<?xml version="1.0" encoding="UTF-8" standalone="no"?>
<!-- Created with Inkscape (http://www.inkscape.org/) -->

<svg
   version="1.1"
   id="svg2"
   width="287.31601"
   height="282.25867"
   viewBox="0 0 287.31601 282.25867"
   sodipodi:docname="CISPA_CysecLab_Logo_4c.ai"
   xmlns:inkscape="http://www.inkscape.org/namespaces/inkscape"
   xmlns:sodipodi="http://sodipodi.sourceforge.net/DTD/sodipodi-0.dtd"
   xmlns="http://www.w3.org/2000/svg"
   xmlns:svg="http://www.w3.org/2000/svg">
  <defs
     id="defs6">
    <clipPath
       clipPathUnits="userSpaceOnUse"
       id="clipPath16">
      <path
         d="M 0,211.694 H 215.487 V 0 H 0 Z"
         id="path14" />
    </clipPath>
  </defs>
  <sodipodi:namedview
     id="namedview4"
     pagecolor="#ffffff"
     bordercolor="#000000"
     borderopacity="0.25"
     inkscape:showpageshadow="2"
     inkscape:pageopacity="0.0"
     inkscape:pagecheckerboard="0"
     inkscape:deskcolor="#d1d1d1" />
  <g
     id="g8"
     inkscape:groupmode="layer"
     inkscape:label="CISPA_CysecLab_Logo_4c"
     transform="matrix(1.3333333,0,0,-1.3333333,0,282.25867)">
    <g
       id="g10">
      <g
         id="g12"
         clip-path="url(#clipPath16)">
        <g
           id="g18"
           transform="translate(136.7048,171.6554)">
          <path
             d="M 0,0 C 1.106,-0.594 1.523,-1.977 0.929,-3.083 0.335,-4.19 -1.048,-4.607 -2.154,-4.014 -3.26,-3.42 -3.678,-2.036 -3.083,-0.929 -2.49,0.177 -1.106,0.594 0,0 m -3.829,-7.134 c 2.827,-1.517 6.361,-0.451 7.878,2.376 1.518,2.827 0.453,6.361 -2.374,7.878 -2.827,1.517 -6.361,0.452 -7.879,-2.375 -1.517,-2.826 -0.452,-6.361 2.375,-7.879"
             style="fill:#009dc5;fill-opacity:1;fill-rule:nonzero;stroke:none"
             id="path20" />
        </g>
        <g
           id="g22"
           transform="translate(131.0936,193.8423)">
          <path
             d="M 0,0 C 1.106,-0.594 1.523,-1.977 0.929,-3.083 0.336,-4.189 -1.048,-4.607 -2.154,-4.013 -3.26,-3.419 -3.677,-2.035 -3.083,-0.929 -2.49,0.177 -1.106,0.594 0,0 m -3.829,-7.133 c 2.827,-1.517 6.361,-0.452 7.878,2.375 1.518,2.827 0.453,6.361 -2.374,7.878 -2.827,1.517 -6.361,0.452 -7.878,-2.375 -1.518,-2.826 -0.453,-6.36 2.374,-7.878"
             style="fill:#009dc5;fill-opacity:1;fill-rule:nonzero;stroke:none"
             id="path24" />
        </g>
        <g
           id="g26"
           transform="translate(120.3239,97.4826)">
          <path
             d="M 0,0 C 1.106,-0.594 1.523,-1.977 0.929,-3.083 0.336,-4.189 -1.048,-4.607 -2.154,-4.013 -3.26,-3.419 -3.677,-2.035 -3.083,-0.929 -2.49,0.177 -1.106,0.594 0,0 m -26.381,6.767 c -1.106,0.593 -1.523,1.977 -0.93,3.083 0.594,1.106 1.978,1.523 3.084,0.93 1.106,-0.595 1.524,-1.978 0.93,-3.084 -0.594,-1.106 -1.978,-1.523 -3.084,-0.929 m 9.668,18.225 c -1.107,0.594 -1.524,1.978 -0.93,3.084 0.593,1.106 1.977,1.523 3.084,0.929 1.106,-0.594 1.523,-1.978 0.929,-3.084 -0.594,-1.106 -1.977,-1.523 -3.083,-0.929 M 13.011,-8.5 10.406,29.81 22.789,52.879 c 0.463,0.861 0.139,1.935 -0.722,2.397 L 9.746,61.89 C 8.884,62.352 7.811,62.029 7.348,61.167 L -5.276,37.649 c -0.157,-0.293 -0.229,-0.625 -0.207,-0.957 l 0.956,-14.05 -9.213,-5.246 -0.054,4.101 c 1.357,0.454 2.556,1.392 3.284,2.749 1.518,2.827 0.452,6.361 -2.375,7.879 -2.826,1.517 -6.361,0.452 -7.879,-2.375 -1.517,-2.826 -0.451,-6.361 2.376,-7.878 0.342,-0.184 0.695,-0.326 1.053,-0.436 l 0.079,-6.042 -4.127,-2.35 c -0.351,0.323 -0.731,0.62 -1.17,0.856 -2.826,1.517 -6.36,0.452 -7.878,-2.375 -1.517,-2.827 -0.452,-6.361 2.375,-7.878 2.827,-1.518 6.362,-0.453 7.879,2.374 0.674,1.255 0.812,2.645 0.539,3.941 L -4.261,18.718 -3.217,3.373 C -4.448,2.884 -5.53,2.001 -6.203,0.745 -7.721,-2.081 -6.656,-5.615 -3.829,-7.133 -1.002,-8.65 2.532,-7.585 4.049,-4.758 5.567,-1.931 4.502,1.603 1.675,3.12 1.236,3.356 0.778,3.508 0.316,3.622 L -1.915,36.423 9.631,57.932 18.832,52.993 7.045,31.036 C 6.888,30.742 6.816,30.41 6.838,30.078 L 9.477,-8.74 c 0.061,-0.892 -0.235,-1.747 -0.833,-2.408 -0.595,-0.656 -1.411,-1.035 -2.298,-1.063 -4.809,-0.152 -15.079,0.768 -29.838,8.637 -14.724,7.957 -21.166,16.008 -23.696,20.099 -0.468,0.756 -0.603,1.645 -0.384,2.505 0.22,0.862 0.769,1.581 1.546,2.023 l 33.81,19.253 c 0.289,0.165 0.527,0.408 0.684,0.702 L 1.092,64.525 c 0.462,0.862 0.139,1.935 -0.723,2.398 l -5.928,3.182 c -0.861,0.462 -1.935,0.139 -2.397,-0.723 -0.462,-0.861 -0.139,-1.935 0.723,-2.397 l 4.367,-2.345 -11.545,-21.509 -33.367,-19 c -1.62,-0.922 -2.765,-2.422 -3.226,-4.226 -0.458,-1.799 -0.173,-3.661 0.804,-5.242 3.316,-5.364 10.35,-13.423 25.034,-21.357 14.717,-7.848 25.32,-9.256 31.623,-9.056 1.858,0.059 3.567,0.85 4.813,2.226 1.249,1.38 1.867,3.164 1.741,5.024"
             style="fill:#009dc5;fill-opacity:1;fill-rule:nonzero;stroke:none"
             id="path28" />
        </g>
        <g
           id="g30"
           transform="translate(47.5955,51.6063)">
          <path
             d="m 0,0 c 0,7 5.374,12.01 12.607,12.01 4.014,0 7.365,-1.46 9.554,-4.114 L 18.711,4.711 C 17.152,6.503 15.194,7.431 12.872,7.431 8.526,7.431 5.441,4.379 5.441,0 c 0,-4.379 3.085,-7.431 7.431,-7.431 2.322,0 4.28,0.928 5.839,2.753 l 3.45,-3.185 C 19.972,-10.55 16.621,-12.01 12.573,-12.01 5.374,-12.01 0,-7 0,0"
             style="fill:#010101;fill-opacity:1;fill-rule:nonzero;stroke:none"
             id="path32" />
        </g>
        <path
           d="m 77.378,63.218 h 5.374 V 39.995 h -5.374 z"
           style="fill:#010101;fill-opacity:1;fill-rule:nonzero;stroke:none"
           id="path34" />
        <g
           id="g36"
           transform="translate(90.4437,42.2841)">
          <path
             d="M 0,0 1.824,4.047 C 3.782,2.621 6.702,1.625 9.488,1.625 c 3.185,0 4.479,1.062 4.479,2.489 0,4.346 -13.502,1.36 -13.502,9.986 0,3.948 3.185,7.232 9.786,7.232 2.92,0 5.906,-0.697 8.062,-2.057 l -1.659,-4.08 c -2.156,1.227 -4.379,1.824 -6.436,1.824 -3.184,0 -4.412,-1.194 -4.412,-2.654 0,-4.28 13.502,-1.327 13.502,-9.853 0,-3.882 -3.218,-7.2 -9.853,-7.2 C 5.773,-2.688 2.057,-1.593 0,0"
             style="fill:#010101;fill-opacity:1;fill-rule:nonzero;stroke:none"
             id="path38" />
        </g>
        <g
           id="g40"
           transform="translate(132.7142,54.7912)">
          <path
             d="m 0,0 c 0,2.555 -1.659,4.047 -4.944,4.047 h -4.379 v -8.061 h 4.379 C -1.659,-4.014 0,-2.522 0,0 m 5.44,0 c 0,-5.175 -3.881,-8.393 -10.085,-8.393 h -4.678 v -6.403 h -5.374 V 8.427 H -4.645 C 1.559,8.427 5.44,5.209 5.44,0"
             style="fill:#010101;fill-opacity:1;fill-rule:nonzero;stroke:none"
             id="path42" />
        </g>
        <g
           id="g44"
           transform="translate(158.5025,49.0515)">
          <path
             d="M 0,0 -3.683,8.891 -7.365,0 Z M 1.691,-4.08 H -9.09 l -2.057,-4.977 h -5.508 l 10.352,23.223 h 5.307 L 9.389,-9.057 h -5.64 z"
             style="fill:#010101;fill-opacity:1;fill-rule:nonzero;stroke:none"
             id="path46" />
        </g>
        <g
           id="g48"
           transform="translate(7.0514,21.0816)">
          <path
             d="m 0,0 c 0,6.801 5.176,11.811 12.176,11.811 3.384,0 6.436,-1.128 8.493,-3.384 L 19.109,6.868 C 17.218,8.792 14.896,9.621 12.242,9.621 6.635,9.621 2.422,5.507 2.422,0 c 0,-5.507 4.213,-9.621 9.82,-9.621 2.654,0 4.976,0.829 6.867,2.787 l 1.56,-1.559 C 18.612,-10.649 15.56,-11.811 12.143,-11.811 5.176,-11.811 0,-6.801 0,0"
             style="fill:#010101;fill-opacity:1;fill-rule:nonzero;stroke:none"
             id="path50" />
        </g>
        <g
           id="g52"
           transform="translate(43.7352,17.4983)">
          <path
             d="M 0,0 V -8.028 H -2.422 V 0 l -9.289,15.195 H -9.09 L -1.128,2.156 6.834,15.195 h 2.455 z"
             style="fill:#010101;fill-opacity:1;fill-rule:nonzero;stroke:none"
             id="path54" />
        </g>
        <g
           id="g56"
           transform="translate(57.4299,12.2898)">
          <path
             d="m 0,0 0.962,1.892 c 1.659,-1.626 4.611,-2.821 7.663,-2.821 4.346,0 6.238,1.825 6.238,4.114 0,6.37 -14.299,2.455 -14.299,11.048 0,3.417 2.653,6.369 8.559,6.369 2.621,0 5.341,-0.763 7.199,-2.057 l -0.829,-1.957 c -1.991,1.294 -4.313,1.924 -6.37,1.924 -4.246,0 -6.137,-1.891 -6.137,-4.213 0,-6.37 14.298,-2.522 14.298,-10.981 0,-3.418 -2.72,-6.337 -8.659,-6.337 C 5.142,-3.019 1.725,-1.791 0,0"
             style="fill:#010101;fill-opacity:1;fill-rule:nonzero;stroke:none"
             id="path58" />
        </g>
        <g
           id="g60"
           transform="translate(99.7869,11.5934)">
          <path
             d="M 0,0 V -2.123 H -16.422 V 21.1 h 15.924 v -2.124 h -13.469 v -8.26 h 12.01 v -2.09 h -12.01 V 0 Z"
             style="fill:#010101;fill-opacity:1;fill-rule:nonzero;stroke:none"
             id="path62" />
        </g>
        <g
           id="g64"
           transform="translate(106.679,21.0816)">
          <path
             d="m 0,0 c 0,6.801 5.175,11.811 12.175,11.811 3.385,0 6.436,-1.128 8.493,-3.384 L 19.11,6.868 C 17.218,8.792 14.896,9.621 12.241,9.621 6.635,9.621 2.422,5.507 2.422,0 c 0,-5.507 4.213,-9.621 9.819,-9.621 2.655,0 4.977,0.829 6.869,2.787 l 1.558,-1.559 C 18.611,-10.649 15.56,-11.811 12.143,-11.811 5.175,-11.811 0,-6.801 0,0"
             style="fill:#010101;fill-opacity:1;fill-rule:nonzero;stroke:none"
             id="path66" />
        </g>
        <g
           id="g68"
           transform="translate(134.8698,32.693)">
          <path
             d="M 0,0 H 5.375 V -18.844 H 17.02 v -4.379 H 0 Z"
             style="fill:#010101;fill-opacity:1;fill-rule:nonzero;stroke:none"
             id="path70" />
        </g>
        <g
           id="g72"
           transform="translate(172.019,18.5268)">
          <path
             d="M 0,0 -3.683,8.891 -7.366,0 Z M 1.692,-4.08 H -9.09 l -2.057,-4.977 h -5.507 l 10.351,23.223 h 5.307 L 9.389,-9.057 h -5.64 z"
             style="fill:#010101;fill-opacity:1;fill-rule:nonzero;stroke:none"
             id="path74" />
        </g>
        <g
           id="g76"
           transform="translate(203.0275,16.371)">
          <path
             d="m 0,0 c 0,1.957 -1.493,2.886 -4.279,2.886 h -6.271 v -5.74 h 6.271 C -1.493,-2.854 0,-1.991 0,0 M -10.55,12.275 V 6.801 h 5.341 c 2.621,0 4.048,0.928 4.048,2.753 0,1.825 -1.427,2.721 -4.048,2.721 z M 5.408,-0.564 c 0,-4.014 -3.185,-6.337 -9.289,-6.337 h -12.01 v 23.223 h 11.346 c 5.806,0 8.791,-2.422 8.791,-6.038 0,-2.322 -1.193,-4.113 -3.085,-5.109 2.588,-0.83 4.247,-2.82 4.247,-5.739"
             style="fill:#010101;fill-opacity:1;fill-rule:nonzero;stroke:none"
             id="path78" />
        </g>
      </g>
    </g>
  </g>
</svg>
