<?xml version="1.0" encoding="UTF-8"?><svg id="Fun_Fact_Quiz" xmlns="http://www.w3.org/2000/svg" viewBox="0 0 240.945 240.945"><defs><style>.cls-1{fill:#102a63;}.cls-1,.cls-2,.cls-3,.cls-4,.cls-5{stroke-width:0px;}.cls-2{fill:#ffc600;}.cls-3{fill:#002864;}.cls-4{fill:#102a62;}.cls-5{fill:#ff7f32;}</style></defs><polygon class="cls-5" points="131.508 81.831 75.957 97.449 60.56 125.058 68.358 164.028 64.558 195.583 86.365 195.583 83.226 181.21 87.322 143.411 119.23 141.713 143.874 130.383 143.791 174.566 141.992 194.397 164.694 194.397 157.988 174.163 162.098 129.106 170.337 102.782 170.053 78.407 189.171 90.96 200.891 66.648 174.419 37.16 159.111 38.003 131.508 81.831"/><path class="cls-1" d="M86.365,198.583h-21.808c-.858,0-1.675-.368-2.244-1.01-.569-.642-.837-1.497-.734-2.349l3.742-31.078-7.703-38.5c-.141-.7-.026-1.426.321-2.05l15.397-27.608c.389-.697,1.04-1.21,1.809-1.427l54.439-15.306,26.987-42.85c.518-.823,1.402-1.343,2.373-1.397l15.309-.844c.912-.051,1.791.315,2.397.992l26.473,29.488c.812.905.998,2.211.47,3.307l-11.721,24.312c-.375.779-1.068,1.357-1.901,1.588-.832.229-1.724.091-2.447-.383l-14.406-9.459.218,18.739c.004.315-.043.629-.137.931l-8.142,26.019-4.026,44.116,6.51,19.64c.303.915.148,1.919-.415,2.7-.564.781-1.469,1.244-2.433,1.244h-22.701c-.843,0-1.646-.354-2.215-.977-.568-.623-.849-1.455-.772-2.294l1.785-19.699.075-39.358-20.383,9.37c-.344.158-.715.25-1.094.27l-29.359,1.563-3.768,34.776,3.034,13.896c.194.887-.024,1.814-.594,2.521-.569.708-1.429,1.119-2.337,1.119ZM67.941,192.583h14.699l-2.344-10.733c-.069-.316-.087-.642-.052-.963l4.095-37.799c.158-1.462,1.354-2.594,2.823-2.672l31.335-1.668,24.124-11.09c.929-.427,2.013-.352,2.874.201s1.381,1.507,1.379,2.53l-.084,44.182c0,.088-.004.177-.013.265l-1.501,16.56h15.263l-5.399-16.29c-.13-.392-.178-.806-.14-1.216l4.111-45.057c.019-.212.061-.421.124-.624l8.096-25.869-.278-23.899c-.013-1.108.587-2.134,1.56-2.667.974-.532,2.16-.485,3.087.124l16.256,10.674,9.361-19.417-24.169-26.922-12.324.679-26.777,42.516c-.396.629-1.011,1.088-1.727,1.29l-54.35,15.281-14.252,25.554,7.581,37.887c.062.312.075.631.037.947l-3.396,28.196ZM131.508,81.831h.01-.01Z"/><polyline class="cls-1" points="101.361 137.345 101.361 170.369 132.35 166.872 132.35 130.085"/><path class="cls-3" d="M101.361,173.369c-.733,0-1.446-.269-1.999-.763-.637-.569-1.001-1.383-1.001-2.237v-33.024c0-1.657,1.343-3,3-3s3,1.343,3,3v29.667l24.989-2.82v-34.105c0-1.657,1.343-3,3-3s3,1.343,3,3v36.786c0,1.527-1.146,2.81-2.664,2.981l-30.989,3.497c-.112.013-.225.019-.336.019Z"/><path class="cls-2" d="M116.855,165.413h0c-5.849,0-10.634-4.785-10.634-10.634v-19.258c0-.553.37-1.04.908-1.169,7.183-1.718,20.359-9.561,20.359-4.595v25.023c0,5.849-4.785,10.634-10.634,10.634Z"/><path class="cls-1" d="M101.361,144.89c-1.657,0-3-1.343-3-3v-7.777c0-1.549,1.18-2.844,2.723-2.987l14.665-1.359,15.484-6.214c.924-.37,1.973-.259,2.798.299s1.319,1.489,1.319,2.485v12.458c0,1.657-1.343,3-3,3s-3-1.343-3-3v-8.022l-11.772,4.724c-.269.108-.552.176-.84.203l-12.377,1.147v5.042c0,1.657-1.343,3-3,3Z"/><circle class="cls-3" cx="112.475" cy="157.105" r="2.173"/><circle class="cls-3" cx="120.76" cy="156.957" r="2.173"/><line class="cls-1" x1="67.863" y1="176.401" x2="82.235" y2="182.966"/><path class="cls-3" d="M82.233,185.967c-.417,0-.841-.087-1.244-.271l-14.372-6.565c-1.508-.688-2.171-2.468-1.482-3.976s2.47-2.173,3.975-1.482l14.372,6.565c1.508.688,2.171,2.468,1.482,3.976-.504,1.103-1.592,1.754-2.73,1.754Z"/><line class="cls-1" x1="67.863" y1="168.139" x2="82.235" y2="170.369"/><path class="cls-3" d="M82.239,173.369c-.153,0-.308-.012-.464-.036l-14.372-2.229c-1.637-.254-2.759-1.787-2.505-3.424.255-1.638,1.794-2.761,3.425-2.504l14.372,2.229c1.637.254,2.759,1.787,2.505,3.424-.23,1.481-1.508,2.541-2.961,2.541Z"/><line class="cls-1" x1="75.91" y1="145.529" x2="77.444" y2="166.911"/><path class="cls-3" d="M77.441,169.911c-1.56,0-2.876-1.206-2.989-2.786l-1.533-21.381c-.118-1.652,1.125-3.088,2.777-3.207,1.65-.118,3.088,1.125,3.207,2.778l1.533,21.381c.118,1.652-1.125,3.088-2.777,3.207-.073.005-.146.008-.218.008Z"/><line class="cls-1" x1="80.105" y1="125.78" x2="73.895" y2="132.695"/><path class="cls-3" d="M73.895,135.695c-.714,0-1.431-.253-2.003-.768-1.233-1.107-1.335-3.003-.229-4.236l6.21-6.916c1.107-1.232,3.004-1.335,4.237-.228,1.232,1.107,1.334,3.003.228,4.236l-6.21,6.916c-.593.66-1.411.996-2.233.996Z"/><rect class="cls-1" x="52.172" y="191.058" width="123.448" height="12.746" rx="5.924" ry="5.924"/><line class="cls-1" x1="169.351" y1="37.439" x2="145.578" y2="78.991"/><path class="cls-3" d="M145.575,81.991c-.505,0-1.017-.128-1.487-.396-1.438-.823-1.937-2.656-1.113-4.094l23.772-41.552c.822-1.438,2.653-1.937,4.094-1.114,1.438.823,1.937,2.656,1.113,4.094l-23.772,41.552c-.554.968-1.565,1.511-2.606,1.511Z"/><line class="cls-1" x1="179.482" y1="42.8" x2="157.821" y2="77.926"/><path class="cls-3" d="M157.818,80.927c-.537,0-1.081-.144-1.572-.447-1.41-.87-1.848-2.718-.979-4.128l21.662-35.126c.87-1.411,2.718-1.848,4.129-.979,1.41.87,1.848,2.718.979,4.128l-21.662,35.126c-.567.919-1.551,1.426-2.557,1.426Z"/><line class="cls-1" x1="174.75" y1="52.366" x2="197.033" y2="74.047"/><path class="cls-3" d="M197.033,77.047c-.754,0-1.509-.283-2.092-.85l-22.283-21.681c-1.188-1.156-1.214-3.055-.059-4.243,1.156-1.187,3.056-1.212,4.242-.058l22.283,21.681c1.188,1.156,1.214,3.055.059,4.243-.588.604-1.369.908-2.15.908Z"/><line class="cls-1" x1="168.063" y1="61.318" x2="192.42" y2="82.25"/><path class="cls-3" d="M192.419,85.25c-.692,0-1.388-.238-1.954-.725l-24.357-20.932c-1.257-1.08-1.4-2.974-.32-4.23,1.081-1.257,2.974-1.399,4.23-.32l24.357,20.932c1.257,1.08,1.4,2.974.32,4.23-.594.69-1.433,1.045-2.276,1.045Z"/><line class="cls-1" x1="67.863" y1="111.964" x2="89.086" y2="135.914"/><path class="cls-3" d="M89.087,138.914c-.829,0-1.653-.341-2.246-1.01l-21.224-23.95c-1.099-1.24-.984-3.136.256-4.235,1.239-1.1,3.137-.984,4.234.255l21.224,23.95c1.099,1.24.984,3.136-.256,4.235-.57.506-1.281.755-1.988.755Z"/><line class="cls-1" x1="73.895" y1="101.146" x2="93.121" y2="125.153"/><path class="cls-3" d="M93.123,128.153c-.88,0-1.751-.385-2.344-1.125l-19.226-24.007c-1.035-1.293-.827-3.182.467-4.217,1.294-1.035,3.182-.826,4.217.466l19.226,24.007c1.035,1.293.827,3.182-.467,4.217-.553.443-1.216.658-1.873.658Z"/><line class="cls-1" x1="86.874" y1="104.268" x2="124.319" y2="94.276"/><path class="cls-3" d="M86.872,107.269c-1.326,0-2.538-.886-2.896-2.228-.428-1.601.524-3.245,2.125-3.672l37.445-9.992c1.602-.429,3.244.524,3.672,2.125.428,1.601-.524,3.245-2.125,3.672l-37.445,9.992c-.259.069-.52.103-.775.103Z"/><line class="cls-1" x1="93.187" y1="112.958" x2="129.312" y2="106.233"/><path class="cls-3" d="M93.184,115.959c-1.417,0-2.678-1.008-2.946-2.451-.304-1.629.771-3.195,2.4-3.499l36.125-6.726c1.637-.306,3.194.771,3.498,2.4.304,1.629-.771,3.195-2.4,3.499l-36.125,6.726c-.186.035-.37.051-.552.051Z"/><line class="cls-1" x1="102.275" y1="123.523" x2="130.137" y2="116.9"/><path class="cls-3" d="M102.272,126.524c-1.357,0-2.588-.928-2.916-2.307-.383-1.612.613-3.229,2.226-3.612l27.862-6.623c1.604-.382,3.229.612,3.612,2.225.383,1.612-.613,3.229-2.226,3.612l-27.862,6.623c-.232.056-.466.082-.696.082Z"/><line class="cls-1" x1="134.87" y1="93.712" x2="152.834" y2="124.111"/><path class="cls-3" d="M152.837,127.111c-1.026,0-2.025-.527-2.586-1.474l-17.964-30.398c-.843-1.427-.37-3.266,1.057-4.109,1.43-.843,3.266-.37,4.109,1.056l17.964,30.398c.843,1.427.37,3.266-1.057,4.109-.479.283-1.005.418-1.523.418Z"/><line class="cls-1" x1="144.426" y1="90.934" x2="166.084" y2="116.371"/><path class="cls-3" d="M166.085,119.371c-.849,0-1.691-.358-2.285-1.055l-21.658-25.437c-1.074-1.262-.922-3.155.339-4.229,1.262-1.073,3.153-.923,4.229.339l21.658,25.437c1.074,1.262.922,3.155-.339,4.229-.565.48-1.256.716-1.944.716Z"/><line class="cls-1" x1="157.464" y1="89.22" x2="170.337" y2="102.782"/><path class="cls-3" d="M170.337,105.782c-.795,0-1.587-.313-2.177-.935l-12.872-13.562c-1.141-1.202-1.091-3.101.11-4.241,1.202-1.142,3.102-1.09,4.241.11l12.872,13.562c1.141,1.202,1.091,3.101-.11,4.241-.58.551-1.323.824-2.064.824Z"/><line class="cls-1" x1="152.834" y1="124.111" x2="152.306" y2="142.386"/><path class="cls-3" d="M152.308,145.386c-.029,0-.059,0-.089-.001-1.656-.048-2.96-1.429-2.912-3.085l.528-18.276c.047-1.656,1.39-2.975,3.086-2.912,1.656.048,2.96,1.429,2.912,3.085l-.528,18.276c-.047,1.626-1.381,2.913-2.997,2.913Z"/><line class="cls-1" x1="143.796" y1="171.655" x2="158.068" y2="173.279"/><path class="cls-3" d="M158.072,176.279c-.113,0-.228-.007-.343-.02l-14.272-1.624c-1.646-.188-2.829-1.674-2.642-3.32.187-1.646,1.665-2.827,3.319-2.642l14.272,1.624c1.646.188,2.829,1.674,2.642,3.32-.174,1.531-1.472,2.661-2.977,2.661Z"/><path class="cls-3" d="M159.991,185.966h-16.195c-1.657,0-3-1.343-3-3s1.343-3,3-3h16.195c1.657,0,3,1.343,3,3s-1.343,3-3,3Z"/><line class="cls-1" x1="144.426" y1="155.444" x2="158.687" y2="157.105"/><path class="cls-3" d="M158.691,160.106c-.116,0-.233-.007-.351-.021l-14.261-1.661c-1.646-.192-2.825-1.681-2.633-3.327.191-1.646,1.695-2.822,3.326-2.633l14.261,1.661c1.646.192,2.825,1.681,2.633,3.327-.178,1.528-1.475,2.653-2.976,2.653Z"/><rect class="cls-1" x="114.167" y="126.77" width="4" height="27.207" transform="translate(-27.504 252.436) rotate(-88.344)"/><path class="cls-4" d="M122.045,151.75c-.698,0-1.323-.49-1.468-1.201-.358-1.76-1.924-3.037-3.722-3.037s-3.363,1.278-3.723,3.038c-.166.812-.964,1.333-1.77,1.169-.812-.166-1.336-.958-1.17-1.77.644-3.15,3.445-5.438,6.662-5.438s6.019,2.287,6.661,5.438c.165.812-.358,1.604-1.17,1.769-.102.021-.202.031-.302.031Z"/><path class="cls-1" d="M127.487,75.671c-.518,0-1.041-.134-1.52-.415-1.428-.841-1.903-2.68-1.062-4.107l2.029-3.447c.84-1.428,2.679-1.903,4.107-1.063,1.428.841,1.903,2.68,1.062,4.107l-2.029,3.447c-.559.95-1.56,1.479-2.588,1.479Z"/><path class="cls-1" d="M134.553,63.668c-.518,0-1.041-.134-1.52-.415-1.428-.841-1.903-2.68-1.062-4.107l3.358-5.705c.84-1.428,2.678-1.903,4.107-1.063,1.428.841,1.903,2.68,1.062,4.107l-3.358,5.705c-.559.95-1.56,1.479-2.588,1.479ZM142.948,49.406c-.517,0-1.041-.134-1.519-.415-1.428-.84-1.904-2.679-1.063-4.107l3.357-5.704c.839-1.426,2.679-1.904,4.106-1.063,1.428.84,1.904,2.679,1.063,4.107l-3.357,5.704c-.559.95-1.56,1.479-2.588,1.479Z"/><path class="cls-1" d="M151.343,35.146c-.518,0-1.041-.134-1.519-.415-1.429-.841-1.904-2.68-1.063-4.107l2.029-3.447c.503-.854,1.396-1.405,2.385-1.471l3.991-.267c1.644-.123,3.084,1.14,3.193,2.793.11,1.653-1.14,3.083-2.793,3.193l-2.41.161-1.226,2.082c-.559.95-1.56,1.479-2.588,1.479Z"/><path class="cls-1" d="M165.069,30.917c-1.565,0-2.885-1.215-2.99-2.8-.11-1.653,1.14-3.083,2.793-3.193l3.99-.267c1.662-.124,3.083,1.14,3.193,2.793s-1.14,3.083-2.793,3.193l-3.99.267c-.068.005-.136.007-.203.007Z"/><path class="cls-3" d="M48.91,146.971c-1.622,0-2.957-1.294-2.998-2.924-.434-17.237,2.924-28.892,9.979-34.64,6.006-4.894,12.382-3.48,12.65-3.417,1.614.375,2.618,1.988,2.242,3.602-.373,1.604-1.973,2.603-3.572,2.249-.219-.044-3.98-.747-7.641,2.309-3.757,3.139-8.137,10.847-7.661,29.747.042,1.657-1.268,3.033-2.924,3.075-.025,0-.051,0-.076,0Z"/><path class="cls-3" d="M37.348,144.89c-.185,0-.372-.017-.561-.053-1.628-.308-2.698-1.877-2.391-3.505.229-1.206,5.778-29.567,22.63-32.33,1.637-.266,3.179.84,3.446,2.475.268,1.635-.841,3.178-2.476,3.446-10.583,1.735-16.368,20.456-17.704,27.523-.272,1.44-1.531,2.443-2.945,2.443Z"/></svg>