<?xml version="1.0" encoding="UTF-8"?><svg id="Fun_Fact_Quiz" xmlns="http://www.w3.org/2000/svg" viewBox="0 0 240.945 240.945"><defs><style>.cls-1{fill:#ffc600;}.cls-1,.cls-2,.cls-3,.cls-4{stroke-width:0px;}.cls-2{fill:#008040;}.cls-3{fill:#002864;}.cls-4{fill:#fff;}</style></defs><circle class="cls-2" cx="120.472" cy="120.472" r="98.121"/><rect class="cls-1" x="73.543" y="199.194" width="93.859" height="19.4"/><path class="cls-3" d="M167.402,221.593h-93.859c-1.657,0-3-1.343-3-3v-19.399c0-1.657,1.343-3,3-3h93.859c1.657,0,3,1.343,3,3v19.399c0,1.657-1.343,3-3,3ZM76.543,215.593h87.859v-13.399h-87.859v13.399Z"/><rect class="cls-1" x="72.585" y="158.288" width="62.529" height="19.283" transform="translate(-64.08 271.779) rotate(-90)"/><path class="cls-3" d="M113.491,202.194h-19.283c-1.657,0-3-1.343-3-3v-62.529c0-1.657,1.343-3,3-3h19.283c1.657,0,3,1.343,3,3v62.529c0,1.657-1.343,3-3,3ZM97.208,196.194h13.283v-56.529h-13.283v56.529Z"/><rect class="cls-1" x="63.143" y="208.894" width="114.658" height="9.7"/><path class="cls-3" d="M177.802,221.593H63.143c-1.657,0-3-1.343-3-3v-9.7c0-1.657,1.343-3,3-3h114.658c1.657,0,3,1.343,3,3v9.7c0,1.657-1.343,3-3,3ZM66.143,215.593h108.658v-3.7h-108.658v3.7Z"/><rect class="cls-1" x="105.831" y="158.288" width="62.529" height="19.283" transform="translate(-30.834 305.025) rotate(-90)"/><path class="cls-3" d="M146.737,202.194h-19.283c-1.657,0-3-1.343-3-3v-62.529c0-1.657,1.343-3,3-3h19.283c1.657,0,3,1.343,3,3v62.529c0,1.657-1.343,3-3,3ZM130.454,196.194h13.283v-56.529h-13.283v56.529Z"/><path class="cls-4" d="M134.094,169.071c-1.104,0-2-.896-2-2v-22.491c0-1.104.896-2,2-2s2,.896,2,2v22.491c0,1.104-.896,2-2,2Z"/><path class="cls-3" d="M137.095,202.194c-1.657,0-3-1.343-3-3v-60.623c0-1.657,1.343-3,3-3s3,1.343,3,3v60.623c0,1.657-1.343,3-3,3Z"/><rect class="cls-1" x="86.918" y="90.035" width="67.109" height="19.283" transform="translate(20.796 220.148) rotate(-90)"/><path class="cls-3" d="M130.114,136.23h-19.283c-1.657,0-3-1.343-3-3v-67.108c0-1.657,1.343-3,3-3h19.283c1.657,0,3,1.343,3,3v67.108c0,1.657-1.343,3-3,3ZM113.831,130.23h13.283v-61.108h-13.283v61.108Z"/><path class="cls-3" d="M120.472,136.23c-1.657,0-3-1.343-3-3v-66.287c0-1.657,1.343-3,3-3s3,1.343,3,3v66.287c0,1.657-1.343,3-3,3Z"/><path class="cls-4" d="M101.009,191.072c-1.104,0-2-.896-2-2v-47.845c0-1.104.896-2,2-2s2,.896,2,2v47.845c0,1.104-.896,2-2,2Z"/><rect class="cls-1" x="66.057" y="63.194" width="108.832" height="9.7" rx="4.85" ry="4.85"/><path class="cls-3" d="M170.039,75.893h-99.133c-4.328,0-7.85-3.521-7.85-7.85s3.521-7.85,7.85-7.85h99.133c4.328,0,7.85,3.521,7.85,7.85s-3.521,7.85-7.85,7.85ZM70.906,66.194c-1.02,0-1.85.83-1.85,1.85s.83,1.85,1.85,1.85h99.133c1.02,0,1.85-.83,1.85-1.85s-.83-1.85-1.85-1.85h-99.133Z"/><path class="cls-3" d="M103.849,202.194c-1.657,0-3-1.343-3-3v-60.623c0-1.657,1.343-3,3-3s3,1.343,3,3v60.623c0,1.657-1.343,3-3,3Z"/><rect class="cls-1" x="82.988" y="130.505" width="74.97" height="10.159" rx="5.08" ry="5.08"/><path class="cls-3" d="M152.878,143.664h-64.811c-4.455,0-8.079-3.625-8.079-8.08s3.624-8.08,8.079-8.08h64.811c4.455,0,8.079,3.625,8.079,8.08s-3.624,8.08-8.079,8.08ZM88.067,133.505c-1.146,0-2.079.933-2.079,2.08s.933,2.08,2.079,2.08h64.811c1.146,0,2.079-.933,2.079-2.08s-.933-2.08-2.079-2.08h-64.811Z"/><polygon class="cls-4" points="97.477 11.414 93.195 19.149 108.364 19.149 109.292 11.414 97.477 11.414"/><path class="cls-3" d="M82.545,55.466h-8.638l4.144-34.546h8.638l-4.144,34.546ZM86.69,20.919l1.036-8.637h25.909l-1.036,8.637h-25.909ZM81.509,64.102l1.036-8.637h25.909l-1.036,8.637h-25.909ZM117.092,55.466h-8.638l4.144-34.546h8.638l-4.144,34.546Z"/><path class="cls-3" d="M107.418,65.602h-25.908c-.429,0-.837-.184-1.122-.504-.284-.321-.418-.749-.367-1.174l.835-6.958h-6.947c-.429,0-.837-.184-1.122-.504-.284-.321-.418-.749-.367-1.174l4.144-34.547c.091-.754.729-1.321,1.489-1.321h7.307l.878-7.315c.091-.754.729-1.321,1.489-1.321h25.909c.429,0,.837.184,1.122.504.284.321.418.749.367,1.174l-.835,6.958h6.947c.429,0,.837.184,1.122.504.284.321.418.749.367,1.174l-4.145,34.547c-.091.754-.729,1.321-1.489,1.321h-7.307l-.878,7.315c-.091.754-.729,1.321-1.489,1.321ZM83.2,62.602h22.887l.677-5.636h-22.887l-.677,5.636ZM110.144,53.966h5.616l3.785-31.547h-5.616l-3.785,31.547ZM84.236,53.966h22.887l3.785-31.547h-22.888l-3.784,31.547ZM75.598,53.966h5.616l3.784-31.547h-5.616l-3.784,31.547ZM88.38,19.419h22.888l.677-5.636h-22.888l-.677,5.636Z"/><path class="cls-3" d="M139.654,29.556l1.036-8.637h8.635l1.036-8.637h8.638l-5.18,43.183h17.273l-1.036,8.637h-43.184l1.036-8.637h17.273l3.108-25.91h-8.635ZM131.016,29.556h8.638l-1.036,8.637h-8.638l1.036-8.637Z"/><path class="cls-3" d="M170.056,65.602h-43.185c-.429,0-.837-.184-1.122-.504-.284-.321-.418-.749-.367-1.174l1.036-8.636c.091-.754.729-1.321,1.489-1.321h15.942l2.748-22.91h-5.613l-.878,7.315c-.091.754-.729,1.321-1.489,1.321h-8.638c-.429,0-.837-.184-1.122-.504-.284-.321-.418-.749-.367-1.174l1.036-8.637c.091-.754.729-1.321,1.489-1.321h7.307l.878-7.315c.091-.754.729-1.321,1.489-1.321h7.304l.878-7.315c.091-.754.729-1.321,1.489-1.321h8.638c.429,0,.837.184,1.122.504.284.321.418.749.367,1.174l-4.979,41.504h15.583c.429,0,.837.184,1.122.504.284.321.418.749.367,1.174l-1.036,8.636c-.091.754-.729,1.321-1.489,1.321ZM128.562,62.602h40.163l.677-5.636h-15.583c-.429,0-.837-.184-1.122-.504-.284-.321-.418-.749-.367-1.174l4.979-41.504h-5.616l-.878,7.315c-.091.754-.729,1.321-1.489,1.321h-7.304l-.677,5.637h6.944c.429,0,.837.184,1.122.504.284.321.418.749.367,1.174l-3.107,25.91c-.091.754-.729,1.321-1.489,1.321h-15.942l-.677,5.636ZM131.671,36.693h5.616l.677-5.637h-5.616l-.677,5.637Z"/><path class="cls-1" d="M78.203,55.466h-8.638l4.144-34.546h8.638l-4.144,34.546ZM82.347,20.919l1.036-8.637h25.909l-1.036,8.637h-25.909ZM77.167,64.102l1.036-8.637h25.909l-1.036,8.637h-25.909ZM112.749,55.466h-8.638l4.144-34.546h8.638l-4.144,34.546Z"/><path class="cls-1" d="M135.311,29.556l1.036-8.637h8.635l1.036-8.637h8.638l-5.18,43.183h17.273l-1.036,8.637h-43.184l1.036-8.637h17.273l3.108-25.91h-8.635ZM126.673,29.556h8.638l-1.036,8.637h-8.638l1.036-8.637Z"/><path class="cls-4" d="M76.883,63.38l14.603.723h4.602l3.79-7.387h-21.332s-1.663,4.576-1.663,5.62v1.044Z"/><polygon class="cls-4" points="141.763 20.827 138.845 29.16 143.947 29.556 140.839 55.466 129.98 55.466 127.6 62.14 141.659 62.515 152.954 35.841 155.926 12.283 146.019 12.283 144.226 21.109 141.763 20.827"/><polygon class="cls-4" points="105.3 45.554 115.982 24.721 115.982 20.919 108.256 20.919 105.3 45.554"/><path class="cls-3" d="M103.075,65.602h-25.908c-.429,0-.837-.184-1.122-.504-.284-.321-.418-.749-.367-1.174l.835-6.958h-6.947c-.429,0-.837-.184-1.122-.504-.284-.321-.418-.749-.367-1.174l4.144-34.547c.091-.754.729-1.321,1.489-1.321h7.308l.877-7.315c.09-.754.729-1.321,1.489-1.321h25.909c.429,0,.837.184,1.122.504.284.321.418.749.367,1.174l-.835,6.958h6.947c.429,0,.837.184,1.122.504.284.321.418.749.367,1.174l-4.145,34.547c-.091.754-.729,1.321-1.489,1.321h-7.307l-.878,7.315c-.091.754-.729,1.321-1.489,1.321ZM78.857,62.602h22.887l.677-5.636h-22.887l-.677,5.636ZM105.802,53.966h5.616l3.785-31.547h-5.616l-3.785,31.547ZM79.893,53.966h22.887l3.785-31.547h-22.887l-3.785,31.547ZM71.256,53.966h5.616l3.785-31.547h-5.617l-3.784,31.547ZM84.038,19.419h22.887l.677-5.636h-22.888l-.676,5.636Z"/><path class="cls-3" d="M165.714,65.602h-43.185c-.429,0-.837-.184-1.122-.504-.284-.321-.418-.749-.367-1.174l1.036-8.636c.091-.754.729-1.321,1.489-1.321h15.942l2.749-22.91h-5.614l-.878,7.315c-.091.754-.729,1.321-1.489,1.321h-8.638c-.429,0-.837-.184-1.122-.504-.284-.321-.418-.749-.367-1.174l1.036-8.637c.091-.754.729-1.321,1.489-1.321h7.307l.878-7.315c.091-.754.729-1.321,1.489-1.321h7.305l.878-7.315c.091-.754.729-1.321,1.489-1.321h8.638c.429,0,.837.184,1.122.504.284.321.418.749.367,1.174l-4.979,41.504h15.583c.429,0,.837.184,1.122.504.284.321.418.749.367,1.174l-1.036,8.636c-.091.754-.729,1.321-1.489,1.321ZM124.219,62.602h40.163l.677-5.636h-15.583c-.429,0-.837-.184-1.122-.504-.284-.321-.418-.749-.367-1.174l4.979-41.504h-5.616l-.878,7.315c-.091.754-.729,1.321-1.489,1.321h-7.305l-.677,5.637h6.945c.429,0,.837.184,1.122.504.284.321.418.749.367,1.174l-3.108,25.91c-.091.754-.729,1.321-1.489,1.321h-15.942l-.677,5.636ZM127.328,36.693h5.616l.677-5.637h-5.616l-.677,5.637Z"/></svg>