<?xml version="1.0" encoding="UTF-8"?>
<svg id="uuid-368b24dc-de96-460c-8106-f95f74e14489" xmlns="http://www.w3.org/2000/svg" version="1.1"
     viewBox="0 0 3071.4 1727.7">
  <defs>
    <style>
      .cls-1 {
        fill: #99d7e7;
      }

      .cls-1, .cls-2, .cls-3, .cls-4, .cls-5, .cls-6, .cls-7, .cls-8, .cls-9, .cls-10, .cls-11, .cls-12, .cls-13, .cls-14, .cls-15, .cls-16, .cls-17, .cls-18, .cls-19 {
        stroke-width: 0px;
      }

      .cls-2 {
        fill: #c9c9c9;
      }

      .cls-20 {
        clip-path: url(#clippath);
      }

      .cls-3, .cls-21, .cls-22, .cls-23 {
        fill: none;
      }

      .cls-21 {
        stroke: #a2d8ea;
      }

      .cls-21, .cls-22 {
        stroke-linejoin: round;
      }

      .cls-21, .cls-22, .cls-23 {
        stroke-width: 8px;
      }

      .cls-4 {
        fill: #ffd400;
      }

      .cls-5 {
        fill: #d5ecf6;
      }

      .cls-6 {
        fill: #ffc600;
      }

      .cls-7 {
        fill: #009cc4;
      }

      .cls-8, .cls-14 {
        fill: #a2d8ea;
      }

      .cls-8, .cls-15 {
        fill-rule: evenodd;
      }

      .cls-22 {
        stroke: #002864;
        stroke-linecap: round;
      }

      .cls-24 {
        clip-path: url(#clippath-1);
      }

      .cls-25 {
        clip-path: url(#clippath-4);
      }

      .cls-26 {
        clip-path: url(#clippath-3);
      }

      .cls-27 {
        clip-path: url(#clippath-2);
      }

      .cls-28 {
        clip-path: url(#clippath-7);
      }

      .cls-29 {
        clip-path: url(#clippath-6);
      }

      .cls-30 {
        clip-path: url(#clippath-5);
      }

      .cls-9 {
        fill: #008040;
      }

      .cls-10 {
        fill: #66c4dc;
      }

      .cls-11 {
        fill: #002864;
      }

      .cls-12 {
        fill: #102a62;
      }

      .cls-23 {
        stroke: #102a62;
        stroke-miterlimit: 10;
      }

      .cls-13 {
        fill: #eb3300;
      }

      .cls-15, .cls-18 {
        fill: #fff;
      }

      .cls-16 {
        fill: #ff7f32;
      }

      .cls-17 {
        fill: #018dca;
      }

      .cls-19 {
        fill: #33b0d0;
      }
    </style>
    <clipPath id="clippath">
      <circle class="cls-3" cx="890.1" cy="878.1" r="378.5"/>
    </clipPath>
    <clipPath id="clippath-1">
      <rect class="cls-3" x="984.8" y="748.5" width="58.3" height="149.8"/>
    </clipPath>
    <clipPath id="clippath-2">
      <circle class="cls-3" cx="897.7" cy="826.3" r="63.1"/>
    </clipPath>
    <clipPath id="clippath-3">
      <rect class="cls-3" x="659.4" y="829.4" width="90" height="67.8"/>
    </clipPath>
    <clipPath id="clippath-4">
      <path class="cls-3" d="M998.3,1008.4v-40.5h48.8v-199.5c0-35.3-28.8-64.1-64.1-64.1h-220.2c-35.3,0-64.1,28.8-64.1,64.1v223.9c0,63.7,52.2,115.9,115.9,115.9h168.4c35.3,0,64.1-28.8,64.1-64.1v-35.6h-48.8Z"/>
    </clipPath>
    <clipPath id="clippath-5">
      <path class="cls-3" d="M1708.3,355c6-4.3,13.4-6.1,20.8-4.9s13.8,5.2,18.1,11.2c4.3,6,6.1,13.4,4.9,20.7-1.2,7.3-5.2,13.8-11.2,18.1-6,4.3-13.4,6.1-20.8,4.9s-13.8-5.2-18.1-11.2c-4.3-6-6.1-13.4-4.9-20.8s5.2-13.8,11.2-18.1h0Z"/>
    </clipPath>
    <clipPath id="clippath-6">
      <path class="cls-3" d="M1623.7,326.1c-2.4,7-7.4,12.7-14,16s-14.2,3.8-21.3,1.4-12.7-7.4-16-14-3.8-14.2-1.4-21.3,7.4-12.7,14-16,14.2-3.8,21.3-1.4,12.7,7.4,16,14,3.8,14.2,1.4,21.3Z"/>
    </clipPath>
    <clipPath id="clippath-7">
      <path class="cls-3" d="M1349.6,308.1c5.4,5.1,8.4,12,8.6,19.5.2,7.4-2.6,14.5-7.7,19.9-5.1,5.4-12.1,8.5-19.5,8.6-7.4.2-14.5-2.5-19.9-7.7-5.4-5.1-8.4-12-8.6-19.5-.2-7.4,2.6-14.5,7.7-19.9,5.1-5.4,12.1-8.5,19.5-8.6,7.4-.2,14.5,2.5,19.9,7.7h0Z"/>
    </clipPath>
  </defs>
  <ellipse class="cls-5" cx="1613.5" cy="929.4" rx="1093.6" ry="431" transform="translate(-217.3 590) rotate(-19.4)"/>
  <path class="cls-13" d="M1351.9,580v41.8h83.9v41.5h-83.9v65.1h-53.7v-190h149v41.5h-95.3,0Z"/>
  <path class="cls-13" d="M1505.1,709.2c-15.7-15.4-23.5-37.2-23.5-65.4v-105.3h53.7v103.7c0,30.4,12,45.6,36.1,45.6s35.8-15.2,35.8-45.6v-103.7h52.9v105.3c0,28.2-7.8,50-23.5,65.4s-37.6,23.1-65.8,23.1-50.2-7.7-65.8-23.1Z"/>
  <path class="cls-13" d="M1882.7,538.5v190h-44.2l-83.9-101.2v101.2h-52.7v-190h44.2l83.9,101.2v-101.2h52.7Z"/>
  <path class="cls-11" d="M1953.7,555.8v74.6h98.2v17.4h-98.2v80.6h-20.1v-190h130.3v17.4h-110.2Z"/>
  <path class="cls-11" d="M2204.7,677.7h-105.8l-22.8,50.8h-20.9l86.8-190h19.8l86.8,190h-21.2l-22.8-50.8h0ZM2197.4,661.4l-45.6-102-45.6,102h91.2,0Z"/>
  <path class="cls-11" d="M2309.1,717.6c-15.1-8.3-27-19.8-35.6-34.6-8.6-14.7-12.9-31.2-12.9-49.5s4.3-34.8,12.9-49.5c8.6-14.7,20.5-26.3,35.7-34.6,15.2-8.3,32.2-12.5,51-12.5s27.1,2.3,39.1,7.1c11.9,4.7,22.1,11.6,30.4,20.6l-12.8,12.8c-14.8-15-33.6-22.5-56.2-22.5s-28.7,3.4-41,10.3c-12.3,6.9-21.9,16.3-28.9,28.2-7,11.9-10.4,25.3-10.4,40.2s3.5,28.2,10.4,40.2c7,11.9,16.6,21.3,28.9,28.2,12.3,6.9,26,10.3,41,10.3,22.8,0,41.5-7.6,56.2-22.8l12.8,12.8c-8.3,9-18.5,16-30.5,20.8-12,4.8-25.1,7.2-39.2,7.2s-35.8-4.2-50.9-12.5h0Z"/>
  <path class="cls-11" d="M2517.9,555.8h-66.8v-17.4h153.6v17.4h-66.8v172.6h-20.1v-172.6h0Z"/>
  <polygon class="cls-4" points="1326.8 708.2 1318.8 708.2 1318.8 554.9 1426.8 554.9 1426.8 562.9 1326.8 562.9 1326.8 708.2"/>
  <rect class="cls-4" x="1323.1" y="638.8" width="92.3" height="8"/>
  <path class="cls-4" d="M1571.7,715.4c-17.1,0-34.1-6.5-47-19.3l-.8-.8c-12.6-12.5-19.5-29.1-19.5-46.7v-89.7h8v89.7c0,15.5,6.1,30.1,17.1,41.1l.8.8c21.7,21.6,56.9,22.7,79.9,2.5,12.6-11,19.8-26.9,19.8-43.6v-90.7h8v90.7c0,19-8.2,37.1-22.6,49.6-12.5,11-28.2,16.4-43.8,16.4h0Z"/>
  <polygon class="cls-4" points="1859.4 716.6 1732.8 570.7 1732.8 708.2 1724.8 708.2 1724.8 549.2 1851.5 695.3 1852.3 558.8 1860.3 558.9 1859.4 716.6"/>
  <path class="cls-7" d="M1358.5,1146.4c-28.9-28.8-43.4-69.8-43.4-123.2v-203.7h84.2v200.6c0,65.1,27,97.7,81.1,97.7s46.4-7.9,60.3-23.6c13.8-15.8,20.8-40.4,20.8-74v-200.6h83.2v203.7c0,53.4-14.5,94.4-43.4,123.2-28.9,28.8-69.4,43.1-121.3,43.1s-92.4-14.4-121.3-43.1h0Z"/>
  <path class="cls-7" d="M1717.3,819.5h84.2v363.8h-84.2v-363.8h0Z"/>
  <path class="cls-7" d="M2182.4,1114.7v68.6h-318v-54.6l199.6-240.6h-195.4v-68.6h306.1v54.6l-199,240.6h206.8Z"/>
  <path class="cls-11" d="M942.1,1307.8c-.1,0-.2,0-.3,0-1.7-.2-2.8-1.7-2.7-3.3l2.2-20.8c.1-1,.7-1.9,1.6-2.3.9-.5,2-.4,2.8,0l12.7,7c1.5.8,2,2.6,1.2,4.1s-2.6,2-4.1,1.2l-8.7-4.8-1.7,16.3c-.2,1.5-1.5,2.7-3,2.7h0Z"/>
  <rect class="cls-1" x="854.1" y="1229.9" width="37.6" height="43.6" rx="5.7" ry="5.7"/>
  <path class="cls-11" d="M885.9,1277.5h-26.1c-5.4,0-9.7-4.4-9.7-9.7v-32.1c0-5.4,4.4-9.7,9.7-9.7h26.1c5.4,0,9.7,4.4,9.7,9.7v32.1c0,5.4-4.4,9.7-9.7,9.7ZM859.8,1233.9c-.9,0-1.7.8-1.7,1.7v32.1c0,.9.8,1.7,1.7,1.7h26.1c.9,0,1.7-.8,1.7-1.7v-32.1c0-.9-.8-1.7-1.7-1.7h-26.1Z"/>
  <rect class="cls-1" x="842.4" y="1286.4" width="60.9" height="75.9" rx="9.9" ry="9.9"/>
  <path class="cls-11" d="M893.4,1366.3h-41.1c-7.7,0-13.9-6.2-13.9-13.9v-56.1c0-7.7,6.2-13.9,13.9-13.9h41.1c7.7,0,13.9,6.2,13.9,13.9v56.1c0,7.7-6.2,13.9-13.9,13.9ZM852.3,1290.4c-3.2,0-5.9,2.7-5.9,5.9v56.1c0,3.2,2.7,5.9,5.9,5.9h41.1c3.2,0,5.9-2.7,5.9-5.9v-56.1c0-3.2-2.7-5.9-5.9-5.9h-41.1Z"/>
  <circle class="cls-10" cx="872.9" cy="1382.5" r="27.1"/>
  <path class="cls-11" d="M872.9,1413.7c-17.2,0-31.1-14-31.1-31.1s14-31.1,31.1-31.1,31.1,14,31.1,31.1-14,31.1-31.1,31.1ZM872.9,1359.4c-12.8,0-23.1,10.4-23.1,23.1s10.4,23.1,23.1,23.1,23.1-10.4,23.1-23.1-10.4-23.1-23.1-23.1Z"/>
  <circle class="cls-10" cx="816.7" cy="1396.1" r="13.6"/>
  <path class="cls-11" d="M816.7,1413.7c-9.7,0-17.6-7.9-17.6-17.6s7.9-17.6,17.6-17.6,17.6,7.9,17.6,17.6-7.9,17.6-17.6,17.6ZM816.7,1386.5c-5.3,0-9.6,4.3-9.6,9.6s4.3,9.6,9.6,9.6,9.6-4.3,9.6-9.6-4.3-9.6-9.6-9.6Z"/>
  <path class="cls-11" d="M918.2,1362c-1,0-2.1-.4-2.8-1.2l-45.3-44.8c-1.6-1.6-1.6-4.1,0-5.7,1.5-1.6,4.1-1.6,5.7,0l42.3,41.8,17.8-20.4c1.5-1.7,4-1.8,5.6-.4,1.7,1.5,1.8,4,.4,5.6l-20.6,23.6c-.7.8-1.8,1.3-2.9,1.4h-.2Z"/>
  <path class="cls-11" d="M872.9,1330c-9.3,0-16.8-7.5-16.8-16.8s7.5-16.8,16.8-16.8,16.8,7.5,16.8,16.8-7.5,16.8-16.8,16.8ZM872.9,1304.4c-4.8,0-8.8,3.9-8.8,8.8s3.9,8.8,8.8,8.8,8.8-3.9,8.8-8.8-3.9-8.8-8.8-8.8Z"/>
  <path class="cls-11" d="M938.8,1338.4c-11.2,0-20.3-9.1-20.3-20.3s1.8-4,4-4,4,1.8,4,4c0,6.8,5.5,12.3,12.3,12.3s12.3-5.5,12.3-12.3,1.8-4,4-4,4,1.8,4,4c0,11.2-9.1,20.3-20.3,20.3Z"/>
  <path class="cls-11" d="M961.9,1322.2h-45.9c-2.2,0-4-1.8-4-4s1.8-4,4-4h45.9c2.2,0,4,1.8,4,4s-1.8,4-4,4Z"/>
  <rect class="cls-9" x="933" y="1296.8" width="13.4" height="21.4"/>
  <path class="cls-11" d="M946.4,1321.2h-13.4c-1.7,0-3-1.3-3-3v-21.4c0-1.7,1.3-3,3-3h13.4c1.7,0,3,1.3,3,3v21.4c0,1.7-1.3,3-3,3ZM936,1315.2h7.4v-15.4h-7.4v15.4Z"/>
  <circle class="cls-10" cx="872.9" cy="1382.5" r="10.8"/>
  <path class="cls-11" d="M872.9,1397.3c-8.1,0-14.8-6.6-14.8-14.8s6.6-14.8,14.8-14.8,14.8,6.6,14.8,14.8-6.6,14.8-14.8,14.8ZM872.9,1375.8c-3.7,0-6.8,3-6.8,6.8s3,6.8,6.8,6.8,6.8-3,6.8-6.8-3-6.8-6.8-6.8Z"/>
  <circle class="cls-11" cx="881.4" cy="1343.2" r="4.9"/>
  <circle class="cls-11" cx="865.3" cy="1343.2" r="4.9"/>
  <circle class="cls-9" cx="935.2" cy="1285.7" r="4.4"/>
  <circle class="cls-9" cx="940.5" cy="1260.3" r="4.4"/>
  <circle class="cls-9" cx="930.8" cy="1272.2" r="6.1"/>
  <path class="cls-11" d="M810.3,1388.2c-1.5,0-2.8-.8-3.6-2.2-1-2-.2-4.4,1.7-5.4l49.8-25.6c2-1,4.4-.2,5.4,1.7s.2,4.4-1.7,5.4l-49.8,25.6c-.6.3-1.2.4-1.8.4h0Z"/>
  <path class="cls-9" d="M1238.8,1271.3l-15.7-.8c-5.6-.3-9.9-5-9.6-10.6l1.7-34.2c.2-3.7,3.4-6.6,7.1-6.4l25.8,1.3c3.7.2,6.6,3.4,6.4,7.1l-3.7,40.1c-.4,7.5-4.6,3.9-12,3.5h0Z"/>
  <path class="cls-11" d="M1247.5,1276.5c-1.4,0-2.8-.3-4.2-.5-1.4-.3-3-.6-4.8-.7l-15.7-.8c-7.8-.4-13.8-7-13.4-14.8l1.7-34.2c.1-2.9,1.4-5.5,3.5-7.4,2.1-1.9,4.9-2.9,7.8-2.8l25.8,1.3c5.9.3,10.5,5.4,10.2,11.3v.2l-3.7,40c-.1,2.1-.6,5.2-2.9,7-1.3,1.1-2.8,1.4-4.4,1.4h0ZM1239,1267.3c2.3.1,4.3.5,5.9.8.6.1,1.3.2,1.9.3,0-.2,0-.5,0-.8v-.2l3.7-40c0-1.5-1.1-2.8-2.6-2.8l-25.8-1.3c-.8,0-1.4.2-2,.7s-.9,1.2-.9,1.9l-1.7,34.2c0,1.6.5,3.2,1.6,4.4,1.1,1.2,2.6,1.9,4.2,2l15.7.8h0Z"/>
  <line class="cls-3" x1="1199.6" y1="1223.7" x2="1212.7" y2="1234.4"/>
  <rect class="cls-12" x="1202.1" y="1220.6" width="8" height="16.9" transform="translate(-508.9 1383.6) rotate(-50.7)"/>
  <line class="cls-3" x1="1226.2" y1="1263.3" x2="1239" y2="1265"/>
  <path class="cls-12" d="M1239,1269c-.2,0-.3,0-.5,0l-12.8-1.6c-2.2-.3-3.7-2.3-3.5-4.5.3-2.2,2.3-3.7,4.5-3.5l12.8,1.6c2.2.3,3.7,2.3,3.5,4.5-.3,2-2,3.5-4,3.5h0Z"/>
  <polygon class="cls-1" points="1228.6 1218.3 1244.5 1233.1 1270 1264.2 1258 1278.5 1238.7 1263.1 1250.8 1307.2 1191.7 1311.9 1189.2 1305.1 1191.5 1257.2 1155.5 1280.8 1153 1272.6 1195.2 1226.9 1213.5 1216.4 1228.6 1218.3"/>
  <polygon class="cls-16" points="1247.8 1302.1 1265.6 1403.6 1257.6 1404 1216 1350 1206.9 1349.5 1176.8 1403 1167.3 1402.6 1191.3 1307.9 1247.8 1302.1"/>
  <path class="cls-11" d="M1173.9,1410.6c-.5,0-1,0-1.6-.1-4.4-.8-7.3-4.4-7.3-9s0-.6,0-.8c.2-.7,15.4-74.2,20.4-99.8,1.2-6,.8-22.3.3-33.1l-23.5,15.2s0,0,0,0c-4.8,3-10.9,1.9-14.1-2.5-3.6-4.9-1.4-10.4,2.1-13.5,1-.9,21.1-19.4,30-32.4,6.6-9.6,15.2-14.2,22.8-17.6l9.2-4.1c8.2-3.6,17.9-.9,23,6.5,1.5,1.9,23.1,29.4,30.9,38.2,5.4,6.1,4.2,13.9.7,18.8-3.7,5.1-9.3,7.1-14.1,5.1-.4-.2-.8-.4-1.2-.8l-11-10.5,28.1,127.1c1.5,5-.7,10-5.2,11.9-4,1.7-9.7.7-13.2-5.5l-35.8-48.6c0-.1-.2-.2-.2-.3-.7-1.2-2-2.1-3.1-2.1h0c-1.3,0-2.2,1.3-2.8,2.3-7.8,14.6-23.9,45.6-25.4,48.5-1.6,4.1-5.2,6.7-9.1,6.7h0ZM1173.1,1401.8c0,.7.4.8.6.8.6,0,1.4-.3,1.9-1.6,0-.2.1-.3.2-.5.2-.3,17.3-33.5,25.6-48.9,2.2-4.1,5.7-6.5,9.7-6.6,4,0,7.9,2.2,10.1,5.8l35.8,48.6c0,.1.2.3.3.4,1,1.8,2.3,2.7,3.2,2.3.6-.2,1.1-1,.6-2.4,0,0,0-.2,0-.3l-30.9-140c-.4-1.7.4-3.5,1.9-4.3,1.5-.9,3.4-.6,4.7.6l19.8,18.8c1.2,0,2.8-.9,3.9-2.5.6-.8,3.3-5-.2-8.8-8.2-9.3-30.3-37.5-31.3-38.7,0,0-.1-.2-.2-.2-2.9-4.3-8.5-5.9-13.3-3.8l-9.2,4.1c-6.9,3-13.9,6.9-19.4,14.8-9.6,13.9-30.4,33-31.3,33.8,0,0,0,0,0,0-1.2,1.1-1.5,2-.9,2.8.4.6,1.7,1.4,3.4.4l29.2-19c1.2-.8,2.7-.9,4-.2,1.3.6,2.1,1.9,2.2,3.3,0,1.3,1.9,31.9,0,42-4.8,24.5-19,92.9-20.4,99.4h0Z"/>
  <ellipse class="cls-12" cx="1222.9" cy="1177.6" rx="27" ry="19.7" transform="translate(-120.5 2215.6) rotate(-81.6)"/>
  <path class="cls-11" d="M1221,1208.4c-.9,0-1.8,0-2.7-.2-6.5-1-12.1-5.2-15.6-11.9-3.3-6.3-4.5-14.2-3.3-22.2,1.2-8,4.6-15.2,9.6-20.3,5.3-5.4,11.9-7.9,18.4-6.9,6.5,1,12.1,5.2,15.6,11.9,3.3,6.3,4.5,14.2,3.3,22.2-2.3,15.7-13.4,27.4-25.3,27.4h0ZM1224.6,1154.7c-3.4,0-6.9,1.7-10,4.8-3.8,3.9-6.5,9.5-7.4,15.8s0,12.4,2.5,17.3c2.3,4.4,5.8,7.2,9.7,7.8,8.4,1.2,17.1-8.1,18.9-20.4.9-6.3,0-12.4-2.5-17.3-2.3-4.4-5.8-7.2-9.7-7.8-.5,0-1-.1-1.6-.1h0Z"/>
  <polygon class="cls-9" points="1209.4 1156.7 1194.9 1149.6 1187.2 1153.9 1197.2 1172.2 1218.7 1178.3 1237.9 1181.9 1240 1161.9 1226.8 1150.8 1209.4 1156.7"/>
  <path class="cls-11" d="M1239.3,1188.5c-.5,0-12.1-1.2-24.6-5.2-12.2-3.9-20.9-9.2-26-15.8-4.7-6-6.1-11.2-4.3-15.4,1.5-3.4,4.8-5.6,9.5-6,6.9-.7,17,2.5,22,9.8,4.2,6.1,6.1,18.2,6.6,21.3,9.4,2.5,17.4,3.3,17.5,3.3l-.8,8h0ZM1196,1154c-.4,0-.8,0-1.2,0-1.8.2-2.8.7-3,1.2-.3.7,0,3.1,3.3,7.3,3.6,4.7,10.1,8.8,18.9,12-.9-4.7-2.4-11-4.6-14.1-2.8-4.1-8.9-6.4-13.5-6.4h0Z"/>
  <path class="cls-11" d="M1246.1,1181l-7.9-1.2c.9-6.3,0-12.4-2.5-17.3-2.3-4.4-5.8-7.2-9.7-7.8-3.9-.6-8,1.1-11.5,4.6l-5.7-5.6c5.3-5.4,11.9-7.9,18.4-6.9,6.5,1,12.1,5.2,15.6,11.9,3.3,6.3,4.5,14.2,3.3,22.2Z"/>
  <rect class="cls-23" x="653.5" y="825.3" width="96" height="72"/>
  <circle class="cls-18" cx="892.5" cy="875.9" r="340.4"/>
  <rect class="cls-19" x="639.1" y="790.9" width="70.6" height="106.3"/>
  <path class="cls-11" d="M713.7,901.2h-78.6v-114.3h78.6v114.3ZM643.1,893.2h62.6v-98.3h-62.6v98.3Z"/>
  <g class="cls-20">
    <g>
      <path class="cls-1" d="M1047.1,967.8v-199.5c0-35.3-28.8-64.1-64.1-64.1h-220.2c-35.3,0-64.1,28.8-64.1,64.1v223.9c0,63.7,52.2,115.9,115.9,115.9h168.4c35.3,0,64.1-28.8,64.1-64.1v-76.2h0Z"/>
      <polygon class="cls-18" points="1048.1 978.8 1043.7 930.9 905.4 930.9 882.4 943.1 879.8 978.8 880.1 997.5 895.8 1030.5 929.1 1049.1 1046.9 1050.2 1044.1 978.8 1048.1 978.8"/>
      <path class="cls-18" d="M897.7,885.5c-32.6,0-59.1-26.5-59.1-59.1s26.5-59.1,59.1-59.1,59.1,26.5,59.1,59.1-26.5,59.1-59.1,59.1Z"/>
      <path class="cls-7" d="M897.7,771.2c30.4,0,55.1,24.7,55.1,55.1s-24.7,55.1-55.1,55.1-55.1-24.7-55.1-55.1,24.7-55.1,55.1-55.1M897.7,763.2c-34.9,0-63.1,28.3-63.1,63.1s28.3,63.1,63.1,63.1,63.1-28.3,63.1-63.1-28.3-63.1-63.1-63.1h0Z"/>
      <rect class="cls-11" x="846.9" y="666.3" width="70.1" height="8" transform="translate(26.1 1373.7) rotate(-76.7)"/>
      <path class="cls-13" d="M890.2,668.2c-17.6,0-31.9-14.3-31.9-31.9s14.3-31.9,31.9-31.9,31.9,14.3,31.9,31.9-14.3,31.9-31.9,31.9Z"/>
      <path class="cls-11" d="M890.2,608.4c15.4,0,27.9,12.5,27.9,27.9s-12.5,27.9-27.9,27.9-27.9-12.5-27.9-27.9,12.5-27.9,27.9-27.9M890.2,600.4c-19.8,0-35.9,16.1-35.9,35.9s16.1,35.9,35.9,35.9,35.9-16.1,35.9-35.9-16.1-35.9-35.9-35.9h0Z"/>
      <g class="cls-24">
        <g>
          <path class="cls-5" d="M1060.6,885.5c-32.6,0-59.1-26.5-59.1-59.1s26.5-59.1,59.1-59.1,59.1,26.5,59.1,59.1-26.5,59.1-59.1,59.1Z"/>
          <path class="cls-7" d="M1060.6,771.2c30.4,0,55.1,24.7,55.1,55.1s-24.7,55.1-55.1,55.1-55.1-24.7-55.1-55.1,24.7-55.1,55.1-55.1M1060.6,763.2c-34.9,0-63.1,28.3-63.1,63.1s28.3,63.1,63.1,63.1,63.1-28.3,63.1-63.1-28.3-63.1-63.1-63.1h0Z"/>
          <circle class="cls-11" cx="1060.4" cy="826.3" r="31.2"/>
        </g>
      </g>
      <path class="cls-11" d="M983,1112.1h-168.4c-66.1,0-119.9-53.8-119.9-119.9v-223.9c0-37.6,30.6-68.1,68.1-68.1h220.2c37.6,0,68.1,30.6,68.1,68.1v275.7c0,37.6-30.6,68.1-68.1,68.1ZM762.8,708.2c-33.2,0-60.1,27-60.1,60.1v223.9c0,61.7,50.2,111.9,111.9,111.9h168.4c33.2,0,60.1-27,60.1-60.1v-275.7c0-33.2-27-60.1-60.1-60.1h-220.2Z"/>
      <rect class="cls-5" x="926.8" y="928.1" width="8" height="117.1"/>
      <rect class="cls-5" x="976" y="928.1" width="8" height="121.1"/>
      <rect class="cls-5" x="1019.6" y="928.1" width="8" height="121.1"/>
      <path class="cls-11" d="M1046.9,1054.2h-106.1c-36,0-65.4-29.3-65.4-65.4v-28.9c0-19.7,16.1-35.8,35.8-35.8h135.8v8h-135.8c-15.3,0-27.8,12.5-27.8,27.8v28.9c0,31.6,25.7,57.4,57.4,57.4h106.1v8h0Z"/>
      <rect class="cls-11" x="879.5" y="986.2" width="169.7" height="8"/>
    </g>
  </g>
  <rect class="cls-11" x="698.7" y="790.9" width="50.8" height="106.3"/>
  <path class="cls-11" d="M753.4,901.2h-58.8v-114.3h58.8v114.3ZM702.7,893.2h42.8v-98.3h-42.8v98.3Z"/>
  <path class="cls-11" d="M638.3,848.1h-11c-2.2,0-4-1.8-4-4s1.8-4,4-4h11c2.2,0,4,1.8,4,4s-1.8,4-4,4Z"/>
  <path class="cls-8" d="M800,982.1c-17.7,0-33.4-8-46.7-23.9-8.5-10-14.8-22.7-19.4-32-2.1-4.2-4-7.9-5.5-10.4-15.4-24.5-37.3-31.1-38.2-31.4h-.1c-11.2-2.9-18-14.3-15.2-25.6,2.4-9.3,10.7-15.8,20.3-15.8s3.5.2,5.2.7c.4.1,38.2,9.5,63.6,49.8,1.3,2,2.9,5.3,4.7,9.1,3.3,6.7,7.3,15.1,12.7,23.1l.6.9c4,5.9,9,13.3,18,13.5h.7c17,0,18.9-16.6,19.5-22,0-.5.1-1,.2-1.4l.4-2.6c4.1-27.7,9.2-62.2,42.9-94.1,3.9-3.7,9-5.7,14.4-5.7s11.2,2.3,15.3,6.6c3.8,4.1,5.9,9.4,5.7,15-.2,5.6-2.5,10.8-6.5,14.7-18.7,17.7-24.4,36.8-27.3,51.5-1.2,6.3-2.1,12.3-3,18.1-1,6.5-1.9,12.8-3.2,18.2-3.3,14-9.2,24.2-17.9,31.5-10.1,8.3-23.5,12.4-41.1,12.4h0Z"/>
  <path class="cls-13" d="M878,818.2c4.7,0,9.1,1.9,12.3,5.3,6.4,6.8,6.2,17.6-.7,24-19.5,18.4-25.5,38.3-28.5,53.6-1.3,6.4-2.2,12.5-3,18.3-1,6.5-1.8,12.6-3.1,17.8-3.2,13.3-8.4,22.6-16.5,29.3-9.3,7.7-21.9,11.5-38.6,11.5s-31.1-7.5-43.7-22.4c-8.2-9.7-14.4-22.1-18.9-31.2-2.2-4.3-4-8.1-5.7-10.8-16.2-25.8-39.5-32.8-40.5-33.1h-.1s-.1,0-.1,0c-9.1-2.3-14.6-11.6-12.3-20.7,1.9-7.5,8.7-12.8,16.5-12.8s2.8.2,4.2.5h0s0,0,0,0c.4,0,36.5,8.9,61,48,1.2,1.8,2.7,5,4.5,8.7,3.3,6.8,7.5,15.4,13,23.6l.6.9c4.3,6.3,10.1,15,21.3,15.3.3,0,.5,0,.8,0,8.7,0,15.6-4,19.6-11.2,2.9-5.3,3.5-11,3.9-14.4,0-.5.1-1,.2-1.3l.4-2.6c4-27.1,9-60.8,41.7-91.8,3.2-3,7.3-4.7,11.7-4.7M878,810.2c-6.2,0-12.3,2.3-17.2,6.8-35.8,33.8-40.2,70.4-44.5,99-.7,4.7-1,20.1-15.8,20.1h-.6c-7.4-.2-11.5-6.9-15.5-12.7-8.3-12.3-13.6-26.2-17.3-32-26.6-42.3-66-51.5-66-51.5-2.1-.5-4.1-.8-6.2-.8-11.2,0-21.3,7.5-24.2,18.8-3.4,13.4,4.7,27,18.1,30.4,0,0,21.1,6.1,35.9,29.7,4.9,7.8,12.7,27.9,25.3,42.9,12.6,14.9,29.2,25.3,49.8,25.3s34.4-5.6,43.7-13.3c9.8-8.2,15.8-19.4,19.2-33.6,2.5-10.4,3.5-22.9,6.2-36.5,3.1-15.6,8.9-33.1,26.1-49.3,10-9.5,10.5-25.3,1-35.3-4.9-5.2-11.5-7.8-18.2-7.8h0Z"/>
  <path class="cls-13" d="M862.5,892.8c-10,0-18-2.8-23.8-8.2-9.3-8.8-9.1-21.1-9.1-21.7l8,.2h-4c0,0,4,0,4,0,0,0,0,9.5,6.7,15.8,4.9,4.6,12.4,6.6,22.2,5.8l.6,8c-1.5.1-3,.2-4.5.2h0Z"/>
  <path class="cls-13" d="M850.2,933.8c-19,0-29.7-14.3-33-23.3l7.5-2.8-3.8,1.4,3.8-1.4c.4,1,9.2,23.7,34.9,16.7l2.1,7.7c-4.1,1.1-8,1.6-11.5,1.6h0Z"/>
  <path class="cls-13" d="M821.1,981.9c-20-15.3-21.4-39.9-21.4-40.9l8-.4-4,.2,4-.2c0,.2,1.3,22,18.3,35l-4.8,6.4Z"/>
  <path class="cls-13" d="M760.3,969.3c-2.7-28.3,19.3-42.7,20.2-43.3l4.3,6.7c-.8.5-18.8,12.5-16.6,35.8l-8,.8h0Z"/>
  <path class="cls-13" d="M739.7,931l-7.8-1.8c4.9-21.7,26.6-28.3,37.4-28.8l.4,8-.2-4,.2,4c0,0-6.6.4-13.6,3.5-8.9,4-14.4,10.4-16.4,19.2Z"/>
  <path class="cls-13" d="M712.3,892.3l-7.8-1.8c6-26.6,29.5-31.9,30.5-32.1l1.7,7.8c-.8.2-19.5,4.5-24.4,26h0Z"/>
  <g class="cls-27">
    <g>
      <path class="cls-15" d="M800,982.1c-17.7,0-33.4-8-46.7-23.9-8.5-10-14.8-22.7-19.4-32-2.1-4.2-4-7.9-5.5-10.4-15.4-24.5-37.3-31.1-38.2-31.4h-.1c-11.2-2.9-18-14.3-15.2-25.6,2.4-9.3,10.7-15.8,20.3-15.8s3.5.2,5.2.7c.4.1,38.2,9.5,63.6,49.8,1.3,2,2.9,5.3,4.7,9.1,3.3,6.7,7.3,15.1,12.7,23.1l.6.9c4,5.9,9,13.3,18,13.5h.7c17,0,18.9-16.6,19.5-22,0-.5.1-1,.2-1.4l.4-2.6c4.1-27.7,9.2-62.2,42.9-94.1,3.9-3.7,9-5.7,14.4-5.7s11.2,2.3,15.3,6.6c3.8,4.1,5.9,9.4,5.7,15-.2,5.6-2.5,10.8-6.5,14.7-18.7,17.7-24.4,36.8-27.3,51.5-1.2,6.3-2.1,12.3-3,18.1-1,6.5-1.9,12.8-3.2,18.2-3.3,14-9.2,24.2-17.9,31.5-10.1,8.3-23.5,12.4-41.1,12.4h0Z"/>
      <path class="cls-14" d="M878,818.2c4.7,0,9.1,1.9,12.3,5.3,6.4,6.8,6.2,17.6-.7,24-19.5,18.4-25.5,38.3-28.5,53.6-1.3,6.4-2.2,12.5-3,18.3-1,6.5-1.8,12.6-3.1,17.8-3.2,13.3-8.4,22.6-16.5,29.3-9.3,7.7-21.9,11.5-38.6,11.5s-31.1-7.5-43.7-22.4c-8.2-9.7-14.4-22.1-18.9-31.2-2.2-4.3-4-8.1-5.7-10.8-16.2-25.8-39.5-32.8-40.5-33.1h-.1s-.1,0-.1,0c-9.1-2.3-14.6-11.6-12.3-20.7,1.9-7.5,8.7-12.8,16.5-12.8s2.8.2,4.2.5h0s0,0,0,0c.4,0,36.5,8.9,61,48,1.2,1.8,2.7,5,4.5,8.7,3.3,6.8,7.5,15.4,13,23.6l.6.9c4.3,6.3,10.1,15,21.3,15.3.3,0,.5,0,.8,0,8.7,0,15.6-4,19.6-11.2,2.9-5.3,3.5-11,3.9-14.4,0-.5.1-1,.2-1.3l.4-2.6c4-27.1,9-60.8,41.7-91.8,3.2-3,7.3-4.7,11.7-4.7M878,810.2c-6.2,0-12.3,2.3-17.2,6.8-35.8,33.8-40.2,70.4-44.5,99-.7,4.7-1,20.1-15.8,20.1h-.6c-7.4-.2-11.5-6.9-15.5-12.7-8.3-12.3-13.6-26.2-17.3-32-26.6-42.3-66-51.5-66-51.5-2.1-.5-4.1-.8-6.2-.8-11.2,0-21.3,7.5-24.2,18.8-3.4,13.4,4.7,27,18.1,30.4,0,0,21.1,6.1,35.9,29.7,4.9,7.8,12.7,27.9,25.3,42.9,12.6,14.9,29.2,25.3,49.8,25.3s34.4-5.6,43.7-13.3c9.8-8.2,15.8-19.4,19.2-33.6,2.5-10.4,3.5-22.9,6.2-36.5,3.1-15.6,8.9-33.1,26.1-49.3,10-9.5,10.5-25.3,1-35.3-4.9-5.2-11.5-7.8-18.2-7.8h0Z"/>
      <path class="cls-21" d="M833.5,863s-.5,28.2,33.2,25.7"/>
      <path class="cls-21" d="M821,909.1s10,27.2,39.7,19.2"/>
      <path class="cls-21" d="M803.7,940.8s1.1,23.6,19.9,37.9"/>
      <path class="cls-21" d="M782.7,929.4s-20.9,13.3-18.4,39.6"/>
      <path class="cls-21" d="M769.5,904.3s-28.1,1.3-33.6,25.7"/>
      <path class="cls-21" d="M735.8,862.4s-22,4.6-27.5,29"/>
    </g>
  </g>
  <g class="cls-26">
    <g>
      <path class="cls-15" d="M800,982.1c-17.7,0-33.4-8-46.7-23.9-8.5-10-14.8-22.7-19.4-32-2.1-4.2-4-7.9-5.5-10.4-15.4-24.5-37.3-31.1-38.2-31.4h-.1c-11.2-2.9-18-14.3-15.2-25.6,2.4-9.3,10.7-15.8,20.3-15.8s3.5.2,5.2.7c.4.1,38.2,9.5,63.6,49.8,1.3,2,2.9,5.3,4.7,9.1,3.3,6.7,7.3,15.1,12.7,23.1l.6.9c4,5.9,9,13.3,18,13.5h.7c17,0,18.9-16.6,19.5-22,0-.5.1-1,.2-1.4l.4-2.6c4.1-27.7,9.2-62.2,42.9-94.1,3.9-3.7,9-5.7,14.4-5.7s11.2,2.3,15.3,6.6c3.8,4.1,5.9,9.4,5.7,15-.2,5.6-2.5,10.8-6.5,14.7-18.7,17.7-24.4,36.8-27.3,51.5-1.2,6.3-2.1,12.3-3,18.1-1,6.5-1.9,12.8-3.2,18.2-3.3,14-9.2,24.2-17.9,31.5-10.1,8.3-23.5,12.4-41.1,12.4h0Z"/>
      <path class="cls-11" d="M878,818.2c4.7,0,9.1,1.9,12.3,5.3,6.4,6.8,6.2,17.6-.7,24-19.5,18.4-25.5,38.3-28.5,53.6-1.3,6.4-2.2,12.5-3,18.3-1,6.5-1.8,12.6-3.1,17.8-3.2,13.3-8.4,22.6-16.5,29.3-9.3,7.7-21.9,11.5-38.6,11.5s-31.1-7.5-43.7-22.4c-8.2-9.7-14.4-22.1-18.9-31.2-2.2-4.3-4-8.1-5.7-10.8-16.2-25.8-39.5-32.8-40.5-33.1h-.1s-.1,0-.1,0c-9.1-2.3-14.6-11.6-12.3-20.7,1.9-7.5,8.7-12.8,16.5-12.8s2.8.2,4.2.5h0s0,0,0,0c.4,0,36.5,8.9,61,48,1.2,1.8,2.7,5,4.5,8.7,3.3,6.8,7.5,15.4,13,23.6l.6.9c4.3,6.3,10.1,15,21.3,15.3.3,0,.5,0,.8,0,8.7,0,15.6-4,19.6-11.2,2.9-5.3,3.5-11,3.9-14.4,0-.5.1-1,.2-1.3l.4-2.6c4-27.1,9-60.8,41.7-91.8,3.2-3,7.3-4.7,11.7-4.7M878,810.2c-6.2,0-12.3,2.3-17.2,6.8-35.8,33.8-40.2,70.4-44.5,99-.7,4.7-1,20.1-15.8,20.1h-.6c-7.4-.2-11.5-6.9-15.5-12.7-8.3-12.3-13.6-26.2-17.3-32-26.6-42.3-66-51.5-66-51.5-2.1-.5-4.1-.8-6.2-.8-11.2,0-21.3,7.5-24.2,18.8-3.4,13.4,4.7,27,18.1,30.4,0,0,21.1,6.1,35.9,29.7,4.9,7.8,12.7,27.9,25.3,42.9,12.6,14.9,29.2,25.3,49.8,25.3s34.4-5.6,43.7-13.3c9.8-8.2,15.8-19.4,19.2-33.6,2.5-10.4,3.5-22.9,6.2-36.5,3.1-15.6,8.9-33.1,26.1-49.3,10-9.5,10.5-25.3,1-35.3-4.9-5.2-11.5-7.8-18.2-7.8h0Z"/>
      <path class="cls-11" d="M862.5,892.8c-10,0-18-2.8-23.8-8.2-9.3-8.8-9.1-21.1-9.1-21.7l8,.2h-4c0,0,4,0,4,0,0,0,0,9.5,6.7,15.8,4.9,4.6,12.4,6.6,22.2,5.8l.6,8c-1.5.1-3,.2-4.5.2h0Z"/>
      <path class="cls-11" d="M850.2,933.8c-19,0-29.7-14.3-33-23.3l7.5-2.8-3.8,1.4,3.8-1.4c.4,1,9.2,23.7,34.9,16.7l2.1,7.7c-4.1,1.1-8,1.6-11.5,1.6h0Z"/>
      <path class="cls-11" d="M821.1,981.9c-20-15.3-21.4-39.9-21.4-40.9l8-.4-4,.2,4-.2c0,.2,1.3,22,18.3,35l-4.8,6.4Z"/>
      <path class="cls-11" d="M760.3,969.3c-2.7-28.3,19.3-42.7,20.2-43.3l4.3,6.7c-.8.5-18.8,12.5-16.6,35.8l-8,.8h0Z"/>
      <path class="cls-11" d="M739.7,931l-7.8-1.8c4.9-21.7,26.6-28.3,37.4-28.8l.4,8-.2-4,.2,4c0,0-6.6.4-13.6,3.5-8.9,4-14.4,10.4-16.4,19.2Z"/>
      <path class="cls-11" d="M712.3,892.3l-7.8-1.8c6-26.6,29.5-31.9,30.5-32.1l1.7,7.8c-.8.2-19.5,4.5-24.4,26h0Z"/>
    </g>
  </g>
  <polygon class="cls-11" points="753.4 901.2 653.5 901.2 653.5 893.2 745.4 893.2 745.4 825.3 753.4 825.3 753.4 901.2"/>
  <path class="cls-11" d="M878.1,860.1c13.8,0,24.9-11.2,24.9-24.9s-11.2-24.9-24.9-24.9-24.9,11.2-24.9,24.9,11.2,24.9,24.9,24.9Z"/>
  <path class="cls-18" d="M873.1,825.2c-1.4,0-2.5,1.1-2.5,2.5s1.1,2.5,2.5,2.5,2.5-1.1,2.5-2.5-1.1-2.5-2.5-2.5h0Z"/>
  <path class="cls-18" d="M883.1,825.3c-1.4,0-2.5,1.1-2.5,2.5s1.1,2.5,2.5,2.5,2.5-1.1,2.5-2.5-1.1-2.5-2.5-2.5h0Z"/>
  <path class="cls-18" d="M878.1,847.2c-5.7,0-10.6-4-11.7-9.6-.2-1.1.5-2.1,1.6-2.4s2.1.5,2.4,1.6c.8,3.7,4,6.4,7.8,6.4s7.1-2.7,7.8-6.4c.2-1.1,1.3-1.8,2.4-1.6,1.1.2,1.8,1.3,1.6,2.4-1.1,5.5-6.1,9.6-11.7,9.6Z"/>
  <path class="cls-1" d="M629.9,932c5.2,0,9.5,4.2,9.5,9.5s-4.2,9.5-9.5,9.5-9.5-4.2-9.5-9.5,4.2-9.5,9.5-9.5M629.9,923.5c-9.9,0-18,8-18,18s8,18,18,18,18-8,18-18-8-18-18-18h0Z"/>
  <path class="cls-1" d="M611.8,869.2c5.2,0,9.5,4.2,9.5,9.5s-4.2,9.5-9.5,9.5-9.5-4.2-9.5-9.5,4.2-9.5,9.5-9.5M611.8,860.7c-9.9,0-18,8-18,18s8,18,18,18,18-8,18-18-8-18-18-18h0Z"/>
  <path class="cls-1" d="M665.8,743.5c5.2,0,9.5,4.2,9.5,9.5s-4.2,9.5-9.5,9.5-9.5-4.2-9.5-9.5,4.2-9.5,9.5-9.5M665.8,735c-9.9,0-18,8-18,18s8,18,18,18,18-8,18-18-8-18-18-18h0Z"/>
  <path class="cls-1" d="M701.4,680.7c5.2,0,9.5,4.2,9.5,9.5s-4.2,9.5-9.5,9.5-9.5-4.2-9.5-9.5,4.2-9.5,9.5-9.5M701.4,672.2c-9.9,0-18,8-18,18s8,18,18,18,18-8,18-18-8-18-18-18h0Z"/>
  <path class="cls-1" d="M737.6,743.5c5.2,0,9.5,4.2,9.5,9.5s-4.2,9.5-9.5,9.5-9.5-4.2-9.5-9.5,4.2-9.5,9.5-9.5M737.6,735c-9.9,0-18,8-18,18s8,18,18,18,18-8,18-18-8-18-18-18h0Z"/>
  <path class="cls-1" d="M917.2,725.6c5.2,0,9.5,4.2,9.5,9.5s-4.2,9.5-9.5,9.5-9.5-4.2-9.5-9.5,4.2-9.5,9.5-9.5M917.2,717.1c-9.9,0-18,8-18,18s8,18,18,18,18-8,18-18-8-18-18-18h0Z"/>
  <path class="cls-1" d="M962,626.8c5.2,0,9.5,4.2,9.5,9.5s-4.2,9.5-9.5,9.5-9.5-4.2-9.5-9.5,4.2-9.5,9.5-9.5M962,618.3c-9.9,0-18,8-18,18s8,18,18,18,18-8,18-18-8-18-18-18h0Z"/>
  <path class="cls-1" d="M1051.8,680.7c5.2,0,9.4,4.2,9.4,9.5s-4.2,9.5-9.4,9.5-9.4-4.2-9.4-9.5,4.2-9.5,9.4-9.5M1051.8,672.2c-9.9,0-17.9,8-17.9,18s8,18,17.9,18,17.9-8,17.9-18-8-18-17.9-18h0Z"/>
  <path class="cls-1" d="M665.8,976.7c5.2,0,9.5,4.2,9.5,9.5s-4.2,9.5-9.5,9.5-9.5-4.2-9.5-9.5,4.2-9.5,9.5-9.5M665.8,968.2c-9.9,0-18,8-18,18s8,18,18,18,18-8,18-18-8-18-18-18h0Z"/>
  <path class="cls-1" d="M827.4,1003.8c5.2,0,9.5,4.2,9.5,9.5s-4.2,9.5-9.5,9.5-9.5-4.2-9.5-9.5,4.2-9.5,9.5-9.5M827.4,995.3c-9.9,0-18,8-18,18s8,17.9,18,17.9,18-8,18-18-8-18-18-18h0Z"/>
  <path class="cls-1" d="M827.4,1057.7c5.2,0,9.5,4.2,9.5,9.4s-4.2,9.4-9.5,9.4-9.5-4.2-9.5-9.4,4.2-9.4,9.5-9.4M827.4,1049.2c-9.9,0-18,8-18,17.9s8,17.9,18,17.9,18-8,18-17.9-8-17.9-18-17.9h0Z"/>
  <path class="cls-1" d="M926.1,1138.5c5.2,0,9.5,4.2,9.5,9.4s-4.2,9.4-9.5,9.4-9.5-4.2-9.5-9.4,4.2-9.4,9.5-9.4M926.1,1130c-9.9,0-18,8-18,17.9s8,17.9,18,17.9,18-8,18-17.9-8-17.9-18-17.9h0Z"/>
  <path class="cls-1" d="M989,1066.7c5.2,0,9.5,4.2,9.5,9.4s-4.2,9.4-9.5,9.4-9.5-4.2-9.5-9.4,4.2-9.4,9.5-9.4M989,1058.2c-9.9,0-18,8-18,17.9s8,17.9,18,17.9,18-8,18-17.9-8-17.9-18-17.9h0Z"/>
  <path class="cls-1" d="M800.5,1129.4c5.2,0,9.5,4.2,9.5,9.4s-4.2,9.4-9.5,9.4-9.5-4.2-9.5-9.4,4.2-9.4,9.5-9.4M800.5,1120.9c-9.9,0-18,8-18,17.9s8,17.9,18,17.9,18-8,18-17.9-8-17.9-18-17.9h0Z"/>
  <path class="cls-1" d="M683.8,1048.7c5.2,0,9.5,4.2,9.5,9.4s-4.2,9.4-9.5,9.4-9.5-4.2-9.5-9.4,4.2-9.4,9.5-9.4M683.8,1040.2c-9.9,0-18,8-18,17.9s8,17.9,18,17.9,18-8,18-17.9-8-17.9-18-17.9h0Z"/>
  <path class="cls-1" d="M1087.7,932c5.2,0,9.4,4.2,9.4,9.5s-4.2,9.5-9.4,9.5-9.4-4.2-9.4-9.5,4.2-9.5,9.4-9.5M1087.7,923.5c-9.9,0-17.9,8-17.9,18s8,18,17.9,18,17.9-8,17.9-18-8-18-17.9-18h0Z"/>
  <path class="cls-1" d="M1087.7,1030.8c5.2,0,9.4,4.2,9.4,9.4s-4.2,9.4-9.4,9.4-9.4-4.2-9.4-9.4,4.2-9.4,9.4-9.4M1087.7,1022.3c-9.9,0-17.9,8-17.9,17.9s8,17.9,17.9,17.9,17.9-8,17.9-17.9-8-18-17.9-18h0Z"/>
  <path class="cls-1" d="M1132.6,994.9c5.2,0,9.4,4.2,9.4,9.5s-4.2,9.5-9.4,9.5-9.4-4.2-9.4-9.5,4.2-9.5,9.4-9.5M1132.6,986.3c-9.9,0-17.9,8-17.9,18s8,18,17.9,18,17.9-8,17.9-18-8-18-17.9-18h0Z"/>
  <path class="cls-1" d="M863.2,1093.5c10.2,0,18.4,8.3,18.4,18.4s-8.3,18.4-18.4,18.4-18.4-8.3-18.4-18.4,8.3-18.4,18.4-18.4M863.2,1085c-14.9,0-26.9,12.1-26.9,26.9s12.1,26.9,26.9,26.9,26.9-12.1,26.9-26.9-12.1-26.9-26.9-26.9h0Z"/>
  <path class="cls-1" d="M755.6,994.9c10.2,0,18.4,8.3,18.4,18.4s-8.3,18.4-18.4,18.4-18.4-8.3-18.4-18.4,8.3-18.4,18.4-18.4M755.6,986.3c-14.9,0-26.9,12.1-26.9,26.9s12.1,26.9,26.9,26.9,26.9-12.1,26.9-26.9-12.1-26.9-26.9-26.9h0Z"/>
  <path class="cls-1" d="M791.5,824.3c10.2,0,18.4,8.3,18.4,18.4s-8.3,18.4-18.4,18.4-18.4-8.3-18.4-18.4,8.3-18.4,18.4-18.4M791.5,815.8c-14.9,0-26.9,12.1-26.9,26.9s12.1,26.9,26.9,26.9,26.9-12.1,26.9-26.9-12.1-26.9-26.9-26.9h0Z"/>
  <path class="cls-1" d="M809.4,734.5c10.2,0,18.4,8.3,18.4,18.4s-8.3,18.4-18.4,18.4-18.4-8.3-18.4-18.4,8.3-18.4,18.4-18.4M809.4,726c-14.9,0-26.9,12.1-26.9,26.9s12.1,26.9,26.9,26.9,26.9-12.1,26.9-26.9-12.1-26.9-26.9-26.9h0Z"/>
  <path class="cls-1" d="M980,725.6c10.2,0,18.4,8.3,18.4,18.4s-8.3,18.4-18.4,18.4-18.4-8.3-18.4-18.4,8.3-18.4,18.4-18.4M980,717.1c-14.9,0-26.9,12.1-26.9,26.9s12.1,26.9,26.9,26.9,26.9-12.1,26.9-26.9-12.1-26.9-26.9-26.9h0Z"/>
  <path class="cls-1" d="M809.4,617.9c10.2,0,18.4,8.3,18.4,18.4s-8.3,18.4-18.4,18.4-18.4-8.3-18.4-18.4,8.3-18.4,18.4-18.4M809.4,609.4c-14.9,0-26.9,12.1-26.9,26.9s12.1,26.9,26.9,26.9,26.9-12.1,26.9-26.9-12.1-26.9-26.9-26.9h0Z"/>
  <path class="cls-1" d="M1105.6,851.2c10.2,0,18.4,8.3,18.4,18.4s-8.3,18.4-18.4,18.4-18.4-8.3-18.4-18.4,8.3-18.4,18.4-18.4M1105.6,842.7c-14.9,0-26.9,12.1-26.9,26.9s12.1,26.9,26.9,26.9,26.9-12.1,26.9-26.9-12.1-26.9-26.9-26.9h0Z"/>
  <path class="cls-1" d="M1150.5,914.1c10.2,0,18.4,8.3,18.4,18.4s-8.3,18.4-18.4,18.4-18.4-8.3-18.4-18.4,8.3-18.4,18.4-18.4M1150.5,905.6c-14.9,0-26.9,12.1-26.9,26.9s12.1,26.9,26.9,26.9,26.9-12.1,26.9-26.9-12.1-26.9-26.9-26.9h0Z"/>
  <path class="cls-1" d="M1105.6,770.5c10.2,0,18.4,8.3,18.4,18.4s-8.3,18.4-18.4,18.4-18.4-8.3-18.4-18.4,8.3-18.4,18.4-18.4M1105.6,762c-14.9,0-26.9,12.1-26.9,26.9s12.1,26.9,26.9,26.9,26.9-12.1,26.9-26.9-12.1-26.9-26.9-26.9h0Z"/>
  <polygon class="cls-1" points="1154.8 907.9 1146.3 907.9 1146.3 861.9 1221.8 729.5 1229.2 733.8 1154.8 864.2 1154.8 907.9"/>
  <polygon class="cls-1" points="984.2 719.9 975.7 719.9 975.7 689.9 1029.2 596.2 1036.6 600.4 984.2 692.2 984.2 719.9"/>
  <polygon class="cls-1" points="616.1 863.9 607.6 863.9 607.6 820.1 554.6 727.3 561.9 723 616.1 817.9 616.1 863.9"/>
  <rect class="cls-1" x="697.5" y="609.6" width="8.5" height="63.8"/>
  <rect class="cls-1" x="733.4" y="609.6" width="8.5" height="128.4"/>
  <rect class="cls-1" x="661.6" y="654.2" width="8.5" height="85.8"/>
  <rect class="cls-1" x="625.7" y="952.4" width="8.5" height="112"/>
  <rect class="cls-1" x="679.5" y="1074" width="8.5" height="60.9"/>
  <rect class="cls-1" x="796.2" y="1153.4" width="8.5" height="60.9"/>
  <rect class="cls-1" x="823.1" y="1026.3" width="8.5" height="27.4"/>
  <rect class="cls-1" x="751.3" y="1034" width="8.5" height="134.4"/>
  <rect class="cls-1" x="805.2" y="659.6" width="8.5" height="72.1"/>
  <rect class="cls-1" x="859" y="1136.5" width="8.5" height="52.1"/>
  <rect class="cls-1" x="921.9" y="1160.7" width="8.5" height="52.1"/>
  <rect class="cls-1" x="984.7" y="1086.9" width="8.5" height="96.4"/>
  <rect class="cls-1" x="1083.4" y="953.8" width="8.5" height="72.9"/>
  <rect class="cls-1" x="1128.3" y="1017.6" width="8.5" height="55.2"/>
  <rect class="cls-1" x="1101.4" y="810.2" width="8.5" height="36.9"/>
  <rect class="cls-1" x="1047.6" y="586.9" width="8.5" height="90.6"/>
  <path class="cls-1" d="M1105.6,716.9c5.2,0,9.4,4.2,9.4,9.5s-4.2,9.5-9.4,9.5-9.4-4.2-9.4-9.5,4.2-9.5,9.4-9.5M1105.6,708.4c-9.9,0-17.9,8-17.9,18s8,18,17.9,18,17.9-8,17.9-18-8-18-17.9-18h0Z"/>
  <rect class="cls-1" x="1101.4" y="623" width="8.5" height="90.6"/>
  <rect class="cls-1" x="957.8" y="532.4" width="8.5" height="90.6"/>
  <path class="cls-7" d="M889.9,573.4c58,0,114.6,16.5,163.7,47.7,50.3,31.9,89.8,77.7,114.3,132.3,16.8,37.5,25.8,77.2,26.7,117.9.8,39.4-5.8,78.1-19.9,115.1-14.1,37-34.8,70.4-61.6,99.2-27.7,29.8-60.8,53.5-98.3,70.3-39.6,17.8-81.5,26.8-124.5,26.8s-114.6-16.5-163.7-47.7c-50.3-31.9-89.8-77.7-114.3-132.3-16.8-37.5-25.8-77.2-26.7-117.9-.9-39.4,5.8-78.1,19.9-115.1,14.1-37,34.8-70.4,61.6-99.2,27.7-29.8,60.8-53.5,98.3-70.3,39.6-17.8,81.5-26.8,124.5-26.8M889.9,499.4c-51.8,0-104.4,10.7-154.8,33.3-190.7,85.6-276,309.6-190.3,500.3,63,140.4,201,223.6,345.6,223.6s104.4-10.7,154.8-33.3c190.7-85.6,276-309.6,190.3-500.3-63-140.4-201-223.6-345.6-223.6h0Z"/>
  <path class="cls-7" d="M1276.9,1388c-10.2,0-20.2-4.4-27.2-12.9l-199.9-245.5c-12.2-15-9.9-37,5-49.2,15-12.2,37-9.9,49.2,5l199.9,245.5c12.2,15,9.9,37-5,49.2-6.5,5.3-14.3,7.9-22.1,7.9Z"/>
  <polygon class="cls-10" points="1094.8 1330.3 1085.3 1291.4 1072.9 1270.6 1052.7 1267.2 1042.6 1275.2 1027.7 1287.4 1026.3 1284 1031.2 1260.7 1024.8 1253.6 1018.9 1257.8 1009.3 1291 1011.2 1302.1 1018.7 1311.9 1027.9 1318.1 1028.7 1333.9 1094.8 1330.3"/>
  <polygon class="cls-9" points="1095.5 1322.4 1107.5 1400.9 1105.6 1407.2 1097.2 1407.2 1067.3 1359.4 1050.6 1408.1 1041.4 1409.5 1030 1400.9 1028.6 1331.3 1095.5 1322.4"/>
  <path class="cls-11" d="M1040.7,1413.7c-1.7,0-3.3-.2-5-.7-7.1-2.1-12-8.5-12.4-15.8v-.2l.5-77.5c-6.3-2.3-11.5-6.6-14.8-12.5-3.9-6.8-4.8-14.7-2.5-22.3l8.5-27.9c0-.1,0-.3.1-.4,2.8-6.7,8.6-8.2,13-6.8,5.1,1.7,8.2,7,6.9,12l-3.7,17.8c1.9-2.1,3.9-4.5,5.7-6.5,5.6-6.2,15.5-9.8,24.6-8.8,8.2.8,15.1,5.2,19.3,12.3,5.9,10,10.3,23.4,14.8,37.6,7.4,23,15.2,82.7,15.7,86.3.6,3.6-.5,7.2-3,9.8-2.5,2.7-6.1,3.9-9.7,3.5h-.2c-3.9-.5-7.2-2.9-8.9-6.3-4.3-8.5-15.3-30.2-21.5-42.5l-10.7,36c-1.2,4.6-4.1,8.4-8.2,10.7-2.7,1.5-5.6,2.3-8.5,2.3h0ZM1031.4,1396.8c.2,3.9,2.9,7.3,6.7,8.4,2.4.7,5,.4,7.2-.8,2.2-1.3,3.8-3.3,4.4-5.8,0,0,0,0,0-.2l13.6-45.7c.5-1.6,1.8-2.7,3.5-2.8,1.6-.2,3.2.7,3.9,2.2.2.4,20,39.4,26.1,51.5.5,1.1,1.6,1.8,2.8,1.9h.2c1.1.2,2.2-.2,2.9-1,.8-.8,1.1-1.9.9-3,0,0,0-.1,0-.2,0-.6-8.1-62.4-15.4-84.9-4.4-13.7-8.6-26.7-14.1-36-3.7-6.2-9.2-8-13.2-8.4-7.4-.7-14.6,2.6-17.9,6.2-2.7,3-6,6.8-8.3,9.4-1.7,1.9-4.3,2.8-6.8,2.3-2.5-.5-4.6-2.3-5.4-4.8-.2-.7-.3-1.4-.1-2.1l4.9-23.3c0,0,0-.1,0-.2.3-1.2-.8-2.2-1.7-2.6-1.2-.4-2.2.3-3,2.1l-8.4,27.7c-1.7,5.4-1,11.1,1.8,16s7.4,8.3,12.8,9.6c1.8.4,3.1,2.1,3.1,3.9l-.6,80.4h0ZM1010.4,1285.7h0Z"/>
  <path class="cls-17" d="M1078.1,1229.6c.4,13.1-9.3,23.8-21.6,24-12.3.2-22.5-10.3-22.9-23.4,0-2.4.2-4.8.8-7.1,2.5-9.7,10.8-16.8,20.8-16.9,12.3-.2,22.5,10.3,22.9,23.4h0Z"/>
  <path class="cls-11" d="M1056.3,1257.6c-14.3,0-26.2-12.2-26.6-27.3,0-2.8.2-5.5.9-8.2,3.1-11.8,13-19.8,24.6-19.9h.3c14.3,0,26.2,12.2,26.6,27.3h0c.2,7.6-2.6,15-7.6,20.3-4.8,5-11.1,7.8-17.9,7.8h-.3,0ZM1055.5,1210.2h-.2c-8,.1-14.8,5.7-16.9,13.9-.5,1.9-.7,3.9-.7,5.9.3,10.8,8.7,19.5,18.6,19.5h.2c4.6,0,8.9-2,12.2-5.4,3.6-3.8,5.6-9,5.4-14.5h0c-.3-10.8-8.7-19.5-18.6-19.5Z"/>
  <path class="cls-11" d="M1058.3,1240.5c-1.2,0-2.3,0-3.5-.2-11.1-1.3-21.5-16.5-22.6-18.2l6.7-4.4c3.6,5.3,11.3,14.1,16.9,14.7,8.2,1,19.7-3.3,19.8-3.4l2.8,7.5c-.5.2-10.7,4-20.1,4h0Z"/>
  <polygon class="cls-11" points="1062.5 1236.5 1076.1 1237 1070.7 1246.4 1054.1 1253 1042.6 1250.1 1033.6 1237.6 1032.7 1223.3 1041.6 1228.6 1053.7 1235.6 1062.5 1236.5"/>
  <line class="cls-22" x1="766.2" y1="1409.7" x2="1411.3" y2="1409.7"/>
  <path class="cls-11" d="M897.7,771.2c30.4,0,55.1,24.7,55.1,55.1s-24.7,55.1-55.1,55.1-55.1-24.7-55.1-55.1,24.7-55.1,55.1-55.1M897.7,763.2c-34.9,0-63.1,28.3-63.1,63.1s28.3,63.1,63.1,63.1,63.1-28.3,63.1-63.1-28.3-63.1-63.1-63.1h0Z"/>
  <g class="cls-25">
    <g>
      <path class="cls-5" d="M629.9,932c5.2,0,9.5,4.2,9.5,9.5s-4.2,9.5-9.5,9.5-9.5-4.2-9.5-9.5,4.2-9.5,9.5-9.5M629.9,923.5c-9.9,0-18,8-18,18s8,18,18,18,18-8,18-18-8-18-18-18h0Z"/>
      <path class="cls-5" d="M611.8,869.2c5.2,0,9.5,4.2,9.5,9.5s-4.2,9.5-9.5,9.5-9.5-4.2-9.5-9.5,4.2-9.5,9.5-9.5M611.8,860.7c-9.9,0-18,8-18,18s8,18,18,18,18-8,18-18-8-18-18-18h0Z"/>
      <path class="cls-5" d="M665.8,743.5c5.2,0,9.5,4.2,9.5,9.5s-4.2,9.5-9.5,9.5-9.5-4.2-9.5-9.5,4.2-9.5,9.5-9.5M665.8,735c-9.9,0-18,8-18,18s8,18,18,18,18-8,18-18-8-18-18-18h0Z"/>
      <path class="cls-5" d="M701.4,680.7c5.2,0,9.5,4.2,9.5,9.5s-4.2,9.5-9.5,9.5-9.5-4.2-9.5-9.5,4.2-9.5,9.5-9.5M701.4,672.2c-9.9,0-18,8-18,18s8,18,18,18,18-8,18-18-8-18-18-18h0Z"/>
      <path class="cls-5" d="M737.6,743.5c5.2,0,9.5,4.2,9.5,9.5s-4.2,9.5-9.5,9.5-9.5-4.2-9.5-9.5,4.2-9.5,9.5-9.5M737.6,735c-9.9,0-18,8-18,18s8,18,18,18,18-8,18-18-8-18-18-18h0Z"/>
      <path class="cls-5" d="M917.2,725.6c5.2,0,9.5,4.2,9.5,9.5s-4.2,9.5-9.5,9.5-9.5-4.2-9.5-9.5,4.2-9.5,9.5-9.5M917.2,717.1c-9.9,0-18,8-18,18s8,18,18,18,18-8,18-18-8-18-18-18h0Z"/>
      <path class="cls-5" d="M962,626.8c5.2,0,9.5,4.2,9.5,9.5s-4.2,9.5-9.5,9.5-9.5-4.2-9.5-9.5,4.2-9.5,9.5-9.5M962,618.3c-9.9,0-18,8-18,18s8,18,18,18,18-8,18-18-8-18-18-18h0Z"/>
      <path class="cls-5" d="M1051.8,680.7c5.2,0,9.4,4.2,9.4,9.5s-4.2,9.5-9.4,9.5-9.4-4.2-9.4-9.5,4.2-9.5,9.4-9.5M1051.8,672.2c-9.9,0-17.9,8-17.9,18s8,18,17.9,18,17.9-8,17.9-18-8-18-17.9-18h0Z"/>
      <path class="cls-5" d="M665.8,976.7c5.2,0,9.5,4.2,9.5,9.5s-4.2,9.5-9.5,9.5-9.5-4.2-9.5-9.5,4.2-9.5,9.5-9.5M665.8,968.2c-9.9,0-18,8-18,18s8,18,18,18,18-8,18-18-8-18-18-18h0Z"/>
      <path class="cls-5" d="M827.4,1003.8c5.2,0,9.5,4.2,9.5,9.5s-4.2,9.5-9.5,9.5-9.5-4.2-9.5-9.5,4.2-9.5,9.5-9.5M827.4,995.3c-9.9,0-18,8-18,18s8,17.9,18,17.9,18-8,18-18-8-18-18-18h0Z"/>
      <path class="cls-5" d="M827.4,1057.7c5.2,0,9.5,4.2,9.5,9.4s-4.2,9.4-9.5,9.4-9.5-4.2-9.5-9.4,4.2-9.4,9.5-9.4M827.4,1049.2c-9.9,0-18,8-18,17.9s8,17.9,18,17.9,18-8,18-17.9-8-17.9-18-17.9h0Z"/>
      <path class="cls-5" d="M926.1,1138.5c5.2,0,9.5,4.2,9.5,9.4s-4.2,9.4-9.5,9.4-9.5-4.2-9.5-9.4,4.2-9.4,9.5-9.4M926.1,1130c-9.9,0-18,8-18,17.9s8,17.9,18,17.9,18-8,18-17.9-8-17.9-18-17.9h0Z"/>
      <path class="cls-5" d="M989,1066.7c5.2,0,9.5,4.2,9.5,9.4s-4.2,9.4-9.5,9.4-9.5-4.2-9.5-9.4,4.2-9.4,9.5-9.4M989,1058.2c-9.9,0-18,8-18,17.9s8,17.9,18,17.9,18-8,18-17.9-8-17.9-18-17.9h0Z"/>
      <path class="cls-5" d="M800.5,1129.4c5.2,0,9.5,4.2,9.5,9.4s-4.2,9.4-9.5,9.4-9.5-4.2-9.5-9.4,4.2-9.4,9.5-9.4M800.5,1120.9c-9.9,0-18,8-18,17.9s8,17.9,18,17.9,18-8,18-17.9-8-17.9-18-17.9h0Z"/>
      <path class="cls-5" d="M683.8,1048.7c5.2,0,9.5,4.2,9.5,9.4s-4.2,9.4-9.5,9.4-9.5-4.2-9.5-9.4,4.2-9.4,9.5-9.4M683.8,1040.2c-9.9,0-18,8-18,17.9s8,17.9,18,17.9,18-8,18-17.9-8-17.9-18-17.9h0Z"/>
      <path class="cls-5" d="M1087.7,932c5.2,0,9.4,4.2,9.4,9.5s-4.2,9.5-9.4,9.5-9.4-4.2-9.4-9.5,4.2-9.5,9.4-9.5M1087.7,923.5c-9.9,0-17.9,8-17.9,18s8,18,17.9,18,17.9-8,17.9-18-8-18-17.9-18h0Z"/>
      <path class="cls-5" d="M1087.7,1048.7c5.2,0,9.4,4.2,9.4,9.4s-4.2,9.4-9.4,9.4-9.4-4.2-9.4-9.4,4.2-9.4,9.4-9.4M1087.7,1040.2c-9.9,0-17.9,8-17.9,17.9s8,17.9,17.9,17.9,17.9-8,17.9-17.9-8-17.9-17.9-17.9h0Z"/>
      <path class="cls-5" d="M1132.6,994.9c5.2,0,9.4,4.2,9.4,9.5s-4.2,9.5-9.4,9.5-9.4-4.2-9.4-9.5,4.2-9.5,9.4-9.5M1132.6,986.3c-9.9,0-17.9,8-17.9,18s8,18,17.9,18,17.9-8,17.9-18-8-18-17.9-18h0Z"/>
      <path class="cls-5" d="M863.2,1093.5c10.2,0,18.4,8.3,18.4,18.4s-8.3,18.4-18.4,18.4-18.4-8.3-18.4-18.4,8.3-18.4,18.4-18.4M863.2,1085c-14.9,0-26.9,12.1-26.9,26.9s12.1,26.9,26.9,26.9,26.9-12.1,26.9-26.9-12.1-26.9-26.9-26.9h0Z"/>
      <path class="cls-5" d="M755.6,994.9c10.2,0,18.4,8.3,18.4,18.4s-8.3,18.4-18.4,18.4-18.4-8.3-18.4-18.4,8.3-18.4,18.4-18.4M755.6,986.3c-14.9,0-26.9,12.1-26.9,26.9s12.1,26.9,26.9,26.9,26.9-12.1,26.9-26.9-12.1-26.9-26.9-26.9h0Z"/>
      <path class="cls-5" d="M791.5,824.3c10.2,0,18.4,8.3,18.4,18.4s-8.3,18.4-18.4,18.4-18.4-8.3-18.4-18.4,8.3-18.4,18.4-18.4M791.5,815.8c-14.9,0-26.9,12.1-26.9,26.9s12.1,26.9,26.9,26.9,26.9-12.1,26.9-26.9-12.1-26.9-26.9-26.9h0Z"/>
      <path class="cls-5" d="M809.4,734.5c10.2,0,18.4,8.3,18.4,18.4s-8.3,18.4-18.4,18.4-18.4-8.3-18.4-18.4,8.3-18.4,18.4-18.4M809.4,726c-14.9,0-26.9,12.1-26.9,26.9s12.1,26.9,26.9,26.9,26.9-12.1,26.9-26.9-12.1-26.9-26.9-26.9h0Z"/>
      <path class="cls-5" d="M980,725.6c10.2,0,18.4,8.3,18.4,18.4s-8.3,18.4-18.4,18.4-18.4-8.3-18.4-18.4,8.3-18.4,18.4-18.4M980,717.1c-14.9,0-26.9,12.1-26.9,26.9s12.1,26.9,26.9,26.9,26.9-12.1,26.9-26.9-12.1-26.9-26.9-26.9h0Z"/>
      <path class="cls-5" d="M809.4,617.9c10.2,0,18.4,8.3,18.4,18.4s-8.3,18.4-18.4,18.4-18.4-8.3-18.4-18.4,8.3-18.4,18.4-18.4M809.4,609.4c-14.9,0-26.9,12.1-26.9,26.9s12.1,26.9,26.9,26.9,26.9-12.1,26.9-26.9-12.1-26.9-26.9-26.9h0Z"/>
      <path class="cls-5" d="M1105.6,851.2c10.2,0,18.4,8.3,18.4,18.4s-8.3,18.4-18.4,18.4-18.4-8.3-18.4-18.4,8.3-18.4,18.4-18.4M1105.6,842.7c-14.9,0-26.9,12.1-26.9,26.9s12.1,26.9,26.9,26.9,26.9-12.1,26.9-26.9-12.1-26.9-26.9-26.9h0Z"/>
      <path class="cls-5" d="M1150.5,914.1c10.2,0,18.4,8.3,18.4,18.4s-8.3,18.4-18.4,18.4-18.4-8.3-18.4-18.4,8.3-18.4,18.4-18.4M1150.5,905.6c-14.9,0-26.9,12.1-26.9,26.9s12.1,26.9,26.9,26.9,26.9-12.1,26.9-26.9-12.1-26.9-26.9-26.9h0Z"/>
      <path class="cls-5" d="M1105.6,770.5c10.2,0,18.4,8.3,18.4,18.4s-8.3,18.4-18.4,18.4-18.4-8.3-18.4-18.4,8.3-18.4,18.4-18.4M1105.6,762c-14.9,0-26.9,12.1-26.9,26.9s12.1,26.9,26.9,26.9,26.9-12.1,26.9-26.9-12.1-26.9-26.9-26.9h0Z"/>
      <polygon class="cls-5" points="1154.8 907.9 1146.3 907.9 1146.3 861.9 1221.8 729.5 1229.2 733.8 1154.8 864.2 1154.8 907.9"/>
      <polygon class="cls-5" points="984.2 719.9 975.7 719.9 975.7 689.9 1029.2 596.2 1036.6 600.4 984.2 692.2 984.2 719.9"/>
      <polygon class="cls-5" points="616.1 863.9 607.6 863.9 607.6 820.1 554.6 727.3 561.9 723 616.1 817.9 616.1 863.9"/>
      <rect class="cls-5" x="697.5" y="609.6" width="8.5" height="63.8"/>
      <rect class="cls-5" x="733.4" y="609.6" width="8.5" height="128.4"/>
      <rect class="cls-5" x="661.6" y="654.2" width="8.5" height="85.8"/>
      <rect class="cls-5" x="625.7" y="952.4" width="8.5" height="112"/>
      <rect class="cls-5" x="679.5" y="1074" width="8.5" height="60.9"/>
      <rect class="cls-5" x="796.2" y="1153.4" width="8.5" height="60.9"/>
      <rect class="cls-5" x="823.1" y="1026.3" width="8.5" height="27.4"/>
      <rect class="cls-5" x="751.3" y="1034" width="8.5" height="134.4"/>
      <rect class="cls-5" x="805.2" y="659.6" width="8.5" height="72.1"/>
      <rect class="cls-5" x="859" y="1136.5" width="8.5" height="52.1"/>
      <rect class="cls-5" x="921.9" y="1160.7" width="8.5" height="52.1"/>
      <rect class="cls-5" x="984.7" y="1086.9" width="8.5" height="96.4"/>
      <rect class="cls-5" x="1083.4" y="953.8" width="8.5" height="91.4"/>
      <rect class="cls-5" x="1128.3" y="1017.6" width="8.5" height="55.2"/>
      <rect class="cls-5" x="1101.4" y="810.2" width="8.5" height="36.9"/>
      <rect class="cls-5" x="1047.6" y="586.9" width="8.5" height="90.6"/>
      <path class="cls-5" d="M1105.6,716.9c5.2,0,9.4,4.2,9.4,9.5s-4.2,9.5-9.4,9.5-9.4-4.2-9.4-9.5,4.2-9.5,9.4-9.5M1105.6,708.4c-9.9,0-17.9,8-17.9,18s8,18,17.9,18,17.9-8,17.9-18-8-18-17.9-18h0Z"/>
      <rect class="cls-5" x="1101.4" y="623" width="8.5" height="90.6"/>
      <rect class="cls-5" x="957.8" y="532.4" width="8.5" height="90.6"/>
    </g>
  </g>
  <polygon class="cls-2" points="1321.4 1229.2 1352.4 1305.2 1297 1307.9 1299.7 1254.7 1241 1261.7 1238.7 1252 1300.5 1230.2 1309.3 1225.4 1321.4 1229.2"/>
  <path class="cls-11" d="M1294.4,1413.7c-.5,0-1,0-1.5-.1-4.8-.8-8.1-4.8-7.8-9.7l9.6-143.8-50.6,5.8c-4.9.6-9.5-2.3-11.2-6.9-1-2.6-.8-5.4.3-7.9,1.2-2.5,3.3-4.4,5.9-5.3l54.4-18.7c1.3-.5,2.5-1,3.6-1.5,5.7-2.4,9.8-4.1,16.4-3.3,5.8.7,10.7,4.5,12.8,9.8l66.5,167.5s0,0,0,0c1.9,5-.2,10.4-5,12.8-4.8,2.4-10.4.8-13.2-3.7l-40.8-65.2c-1.8-2.5-4.8-3.8-7.8-3.5-3.1.3-5.6,2.2-6.8,5l-15.9,61.6c-1.1,4.2-4.7,7-8.9,7h0ZM1327,1332c5.4,0,10.3,2.6,13.4,7.1,0,0,0,.1.1.2l40.9,65.3c.9,1.5,2.2,1.2,2.9.8.7-.3,1.7-1.1,1.1-2.8l-66.5-167.5c-1.1-2.7-3.5-4.5-6.3-4.8-4.5-.5-7.2.6-12.4,2.7-1.2.5-2.4,1-3.8,1.5,0,0-.1,0-.2,0l-54.5,18.7c-.8.3-1.1.8-1.3,1.2-.2.3-.4,1,0,1.7.4,1.2,1.6,1.9,2.8,1.7l55.3-6.3c1.2-.1,2.4.3,3.2,1.1s1.3,2,1.2,3.2l-9.9,148.5c0,.2,0,1.1,1.1,1.3,1.1.2,1.3-.7,1.4-.9l16-61.8c0-.2,0-.3.2-.5,2.3-5.7,7.3-9.5,13.4-10.2.7,0,1.3-.1,1.9-.1h0Z"/>
  <path class="cls-11" d="M1285,1181.2h.2c1.2-13.4,8.8-23.7,18-23.7s18.2,12.2,18.2,27.3-8.2,27.3-18.2,27.3-11.9-4.8-15.2-12.2c-.9.4-2,.6-3,.6-4.8,0-8.8-4.3-8.8-9.7s3.9-9.7,8.8-9.7h0Z"/>
  <path class="cls-11" d="M1303.2,1216.1c-6.9,0-13.2-4.3-17.3-11.6-.3,0-.6,0-.9,0-7,0-12.8-6.1-12.8-13.7s4-11.5,9.3-13.2c2.3-14.2,11-24.2,21.6-24.2s22.2,13.8,22.2,31.3-9.8,31.3-22.2,31.3h0ZM1290.1,1194.7l1.6,3.5c2.7,6.2,7,9.8,11.5,9.8,7.7,0,14.2-10.7,14.2-23.3s-6.5-23.3-14.2-23.3-13.1,8.8-14.1,20.1l-.3,3.8h-3.9c-2.6,0-4.7,2.4-4.7,5.5s2.1,5.7,4.8,5.7,1,0,1.5-.3l3.6-1.5h0ZM1284.7,1185.2h0,0Z"/>
  <ellipse class="cls-16" cx="1339.9" cy="1164.1" rx="11.6" ry="15.4"/>
  <path class="cls-11" d="M1339.9,1183.5c-8.6,0-15.6-8.7-15.6-19.4s7-19.4,15.6-19.4,15.6,8.7,15.6,19.4-7,19.4-15.6,19.4ZM1339.9,1152.7c-4.1,0-7.6,5.2-7.6,11.4s3.5,11.4,7.6,11.4,7.6-5.2,7.6-11.4-3.5-11.4-7.6-11.4Z"/>
  <polygon class="cls-16" points="1286.1 1171.3 1293.2 1159.3 1304.9 1156.9 1314.8 1161.9 1320.6 1172 1322.3 1185.9 1320.9 1195.2 1315.9 1197.5 1304.1 1194.6 1293.1 1184.8 1286.1 1171.3"/>
  <rect class="cls-11" x="1295.5" y="1301.2" width="56.9" height="8"/>
  <rect class="cls-11" x="1295.5" y="1285.2" width="49.5" height="8"/>
  <rect class="cls-11" x="1295.5" y="1269.1" width="43.8" height="8"/>
  <rect class="cls-11" x="1295.5" y="1253.1" width="36.7" height="8"/>
  <rect class="cls-11" x="1286.2" y="1233.2" width="8" height="21.9" transform="translate(-22.2 23.4) rotate(-1)"/>
  <rect class="cls-11" x="1270.1" y="1240.8" width="8" height="19.1" transform="translate(-16.3 16.8) rotate(-.7)"/>
  <rect class="cls-11" x="1253.6" y="1242.9" width="8" height="21.2" transform="translate(-18.9 19.2) rotate(-.9)"/>
  <rect class="cls-11" x="1298.4" y="1237.1" width="27.4" height="8"/>
  <polygon class="cls-11" points="1350.8 1306.3 1389.1 1401.2 1387.3 1408.2 1380.6 1408.2 1341.8 1347.3 1333.6 1336.5 1326.8 1334.8 1316.8 1338.4 1315 1348.4 1298.1 1408.2 1293.3 1409.5 1287.4 1405.2 1294.5 1310.2 1295.5 1307.1 1350.8 1306.3"/>
  <path class="cls-11" d="M1316.1,1200.8c-21.4,0-30.8-16.4-32.8-25.5-.5-2.2.9-4.3,3-4.8,2.2-.5,4.3.9,4.8,3,.2.9,5.1,21.1,28.1,19.1,2.2-.2,4.1,1.4,4.3,3.6.2,2.2-1.4,4.1-3.6,4.3-1.3.1-2.6.2-3.8.2h0Z"/>
  <path class="cls-11" d="M1323.8,1196.4l-7.7-2.2c.8-3,1.3-6.2,1.3-9.5,0-12.6-6.5-23.3-14.2-23.3s-10.1,4.9-12.5,12.5c-.8,2.4-1.3,4.9-1.5,7.5l-8-.7c.3-3.2.9-6.4,1.9-9.3,3.6-11.1,11.4-18,20.1-18,12.4,0,22.2,13.8,22.2,31.3s-.5,7.9-1.6,11.6h0Z"/>
  <polyline class="cls-1" points="1158.4 1265 1174.8 1257.1 1178.1 1266.7 1165.7 1275.3"/>
  <path class="cls-11" d="M1164.6,1280.7c-1.2,0-2.4-.6-3.2-1.6-1.3-1.8-1-4.3.8-5.6l9.4-7.1c2.4-2.4,1.2-3.9.8-4.4-.9-1.1-2.7-1.8-3.9-1.1l-12.8,12c-1.6,1.5-4.1,1.4-5.7-.2-1.5-1.6-1.4-4.1.2-5.7l13-12.2c.1-.1.2-.2.4-.3,5-3.7,11.5-1.8,14.9,2.3,3.3,3.9,4.1,10.2-1.5,15.5-.1.1-.2.2-.3.3l-9.6,7.3c-.7.6-1.6.8-2.4.8h0Z"/>
  <path class="cls-13" d="M1657.4,256.5h54v148h91v42.8h-145v-190.8Z"/>
  <path class="cls-7" d="M1724.5,382.3c-2,0-3.8-1.3-4.5-3.3-.8-2.5.6-5.1,3.1-5.8l55.1-16.8c2.5-.8,5.1.6,5.8,3.1.8,2.5-.6,5.1-3.1,5.8l-55.1,16.8c-.4.1-.9.2-1.4.2h0Z"/>
  <path class="cls-7" d="M1706.3,352.3c6.8-4.9,15-6.8,23.2-5.5s15.4,5.8,20.3,12.6c4.9,6.8,6.8,15,5.5,23.2-1.3,8.2-5.8,15.4-12.6,20.3-6.8,4.9-15,6.8-23.2,5.5s-15.4-5.8-20.3-12.6-6.8-15-5.5-23.2c1.3-8.2,5.8-15.4,12.6-20.3M1703.7,348.8c-15.9,11.5-19.6,33.7-8.1,49.6,11.5,16,33.7,19.6,49.6,8.1,15.9-11.5,19.6-33.7,8.1-49.6-11.5-16-33.7-19.6-49.6-8.1"/>
  <path class="cls-11" d="M1706.3,352.3c6.8-4.9,15-6.8,23.2-5.5s15.4,5.8,20.3,12.6c4.9,6.8,6.8,15,5.5,23.2-1.3,8.2-5.8,15.4-12.6,20.3-6.8,4.9-15,6.8-23.2,5.5s-15.4-5.8-20.3-12.6-6.8-15-5.5-23.2c1.3-8.2,5.8-15.4,12.6-20.3"/>
  <g class="cls-30">
    <g>
      <circle class="cls-11" cx="1725.9" cy="377.7" r="41.6"/>
      <path class="cls-13" d="M1697.8,375.9c0,2.4,2,4.4,4.4,4.4s4.4-2,4.4-4.4-2-4.4-4.4-4.4-.6,0-.9.1l-4.4-7.6v-30.4h-2.7v31.1l4.7,8.2c-.7.8-1.2,1.8-1.2,3h0ZM1703.9,375.9c0,1-.8,1.8-1.8,1.8s-1.8-.8-1.8-1.8.8-1.8,1.8-1.8,1.8.8,1.8,1.8Z"/>
      <path class="cls-13" d="M1716.7,391.6v-4.8c1.8-.6,3.1-2.2,3.1-4.2s-2-4.4-4.4-4.4-4.4,2-4.4,4.4,1.3,3.6,3.1,4.2v4.8c-1.8.6-3.1,2.2-3.1,4.2s2,4.4,4.4,4.4,4.4-2,4.4-4.4-1.3-3.6-3.1-4.2ZM1715.4,380.8c1,0,1.8.8,1.8,1.8s-.8,1.8-1.8,1.8-1.8-.8-1.8-1.8.8-1.8,1.8-1.8ZM1715.4,397.5c-1,0-1.8-.8-1.8-1.8s.8-1.8,1.8-1.8,1.8.8,1.8,1.8-.8,1.8-1.8,1.8Z"/>
      <path class="cls-13" d="M1702.2,382.5c-3.7,0-6.6,3-6.6,6.6s3,6.6,6.6,6.6,6.6-3,6.6-6.6-3-6.6-6.6-6.6ZM1702.2,393.1c-2.2,0-4-1.8-4-4s1.8-4,4-4,4,1.8,4,4-1.8,4-4,4Z"/>
      <path class="cls-13" d="M1727.8,400.3v-4.7c1.7-.6,3-2.2,3-4.2s-2-4.4-4.4-4.4-4.4,2-4.4,4.4,1.3,3.7,3.2,4.2v4.6c-3,.6-5.3,3.3-5.3,6.5s3,6.6,6.6,6.6,6.6-3,6.6-6.6-2.3-5.9-5.3-6.5h0ZM1724.6,391.5c0-1,.8-1.8,1.8-1.8s1.8.8,1.8,1.8-.8,1.8-1.8,1.8-1.8-.8-1.8-1.8ZM1726.4,410.8c-2.2,0-4-1.8-4-4s1.8-4,4-4,4,1.8,4,4-1.8,4-4,4Z"/>
      <path class="cls-13" d="M1715.4,360.5c2.4,0,4.4-2,4.4-4.4s-2-4.4-4.4-4.4-4.4,2-4.4,4.4,2,4.4,4.4,4.4ZM1715.4,354.3c1,0,1.8.8,1.8,1.8s-.8,1.8-1.8,1.8-1.8-.8-1.8-1.8.8-1.8,1.8-1.8Z"/>
      <path class="cls-13" d="M1741.9,387c-4.9,0-8.8,4-8.8,8.8s3.9,8.8,8.8,8.8,8.8-4,8.8-8.8-3.9-8.8-8.8-8.8ZM1741.9,402c-3.4,0-6.2-2.8-6.2-6.2s2.8-6.2,6.2-6.2,6.2,2.8,6.2,6.2-2.8,6.2-6.2,6.2Z"/>
      <path class="cls-13" d="M1706.6,369.3c0,3.6,3,6.6,6.6,6.6s6.6-3,6.6-6.6-3-6.6-6.6-6.6-1.4.1-2,.3l-3.2-5.7v-30.4h-2.7v31.1l3.6,6.3c-1.4,1.2-2.3,3-2.3,5h0ZM1717.2,369.3c0,2.2-1.8,4-4,4s-4-1.8-4-4,1.8-4,4-4,4,1.8,4,4Z"/>
    </g>
  </g>
  <path class="cls-6" d="M1498.4,438.4c-15.9-8.5-28.4-20.2-37.5-35.3-9.1-15.1-13.6-32.2-13.6-51.2s4.5-36.1,13.6-51.2c9.1-15.1,21.6-26.8,37.5-35.3s33.8-12.7,53.8-12.7,33.2,3.1,47.2,9.3c14,6.2,25.6,15.1,34.9,26.7l-34.3,31.1c-12.4-14.9-27.3-22.4-45-22.4s-19.6,2.3-27.7,6.8c-8.1,4.5-14.3,11-18.8,19.2-4.4,8.3-6.7,17.8-6.7,28.5s2.2,20.2,6.7,28.5c4.4,8.3,10.7,14.7,18.8,19.2,8.1,4.5,17.3,6.8,27.7,6.8,17.6,0,32.6-7.5,45-22.4l34.3,31.1c-9.3,11.6-20.9,20.5-34.9,26.7-14,6.2-29.7,9.3-47.2,9.3s-37.9-4.2-53.8-12.7h0Z"/>
  <path class="cls-7" d="M1572.2,372.3c-.7,0-1.4-.2-2.1-.5-2.3-1.1-3.2-4-2.1-6.3l25.2-50.5c1.2-2.3,3.9-3.2,6.3-2.1s3.2,4,2.1,6.3l-25.2,50.5c-.8,1.6-2.5,2.6-4.2,2.6Z"/>
  <path class="cls-7" d="M1626.9,327.2c-2.7,7.9-8.3,14.3-15.7,18s-15.9,4.2-23.8,1.6c-7.9-2.7-14.3-8.3-18-15.7s-4.2-15.9-1.6-23.8,8.3-14.3,15.7-18,15.9-4.2,23.8-1.6c7.9,2.7,14.3,8.3,18,15.7s4.2,15.9,1.6,23.8M1631.1,328.6c6.3-18.6-3.7-38.8-22.3-45.1-18.6-6.3-38.8,3.7-45.1,22.3-6.3,18.6,3.7,38.8,22.3,45.1,18.6,6.3,38.8-3.7,45.1-22.3"/>
  <path class="cls-11" d="M1626.9,327.2c-2.7,7.9-8.3,14.3-15.7,18s-15.9,4.2-23.8,1.6c-7.9-2.7-14.3-8.3-18-15.7s-4.2-15.9-1.6-23.8,8.3-14.3,15.7-18,15.9-4.2,23.8-1.6c7.9,2.7,14.3,8.3,18,15.7s4.2,15.9,1.6,23.8"/>
  <g class="cls-29">
    <g>
      <circle class="cls-11" cx="1598.1" cy="317.1" r="38.8"/>
      <path class="cls-6" d="M1598.3,321.4c-2.4,0-4.4,2-4.4,4.4s2,4.4,4.4,4.4,4.4-2,4.4-4.4-2-4.4-4.4-4.4ZM1598.3,327.6c-1,0-1.8-.8-1.8-1.8s.8-1.8,1.8-1.8,1.8.8,1.8,1.8-.8,1.8-1.8,1.8Z"/>
      <path class="cls-6" d="M1579.4,300.1l-2.2,3.8c-.3,0-.6-.1-.9-.1-2.4,0-4.4,2-4.4,4.4s2,4.4,4.4,4.4,4.4-2,4.4-4.4-.4-2.2-1.2-3l2.5-4.4v-22.2h-2.7v21.5h0ZM1576.3,309.9c-1,0-1.8-.8-1.8-1.8s.8-1.8,1.8-1.8,1.8.8,1.8,1.8-.8,1.8-1.8,1.8Z"/>
      <path class="cls-6" d="M1607.1,308.2c-.7,0-1.4.1-2,.3l-3.3-5.7v-18.9h-2.7v19.6l3.6,6.3c-1.4,1.2-2.3,3-2.3,5,0,3.6,3,6.6,6.6,6.6s6.6-3,6.6-6.6-3-6.6-6.6-6.6h0ZM1607.1,318.8c-2.2,0-4-1.8-4-4s1.8-4,4-4,4,1.8,4,4-1.8,4-4,4Z"/>
      <path class="cls-6" d="M1596.1,314.8c0-3.2-2.3-5.9-5.3-6.5v-7c1.8-.6,3.1-2.2,3.1-4.2s-2-4.4-4.4-4.4-4.4,2-4.4,4.4,1.3,3.6,3.1,4.2v7c-3,.6-5.3,3.3-5.3,6.5s3,6.6,6.6,6.6,6.6-3,6.6-6.6h0ZM1589.5,295.4c1,0,1.8.8,1.8,1.8s-.8,1.8-1.8,1.8-1.8-.8-1.8-1.8.8-1.8,1.8-1.8ZM1589.5,318.8c-2.2,0-4-1.8-4-4s1.8-4,4-4,4,1.8,4,4-1.8,4-4,4Z"/>
      <path class="cls-6" d="M1609.3,303.8c2.4,0,4.4-2,4.4-4.4s-2-4.4-4.4-4.4-4.4,2-4.4,4.4,2,4.4,4.4,4.4ZM1609.3,297.6c1,0,1.8.8,1.8,1.8s-.8,1.8-1.8,1.8-1.8-.8-1.8-1.8.8-1.8,1.8-1.8Z"/>
      <path class="cls-6" d="M1618.1,303.8c-2.4,0-4.4,2-4.4,4.4s2,4.4,4.4,4.4,4.4-2,4.4-4.4-2-4.4-4.4-4.4ZM1618.1,309.9c-1,0-1.8-.8-1.8-1.8s.8-1.8,1.8-1.8,1.8.8,1.8,1.8-.8,1.8-1.8,1.8Z"/>
    </g>
  </g>
  <path class="cls-16" d="M1305.3,438.4c-15.9-8.5-28.4-20.2-37.5-35.3-9.1-15.1-13.6-32.2-13.6-51.2s4.5-36.1,13.6-51.2c9.1-15.1,21.6-26.8,37.5-35.3s33.8-12.7,53.8-12.7,33.2,3.1,47.2,9.3c14,6.2,25.6,15.1,34.9,26.7l-34.3,31.1c-12.4-14.9-27.3-22.4-45-22.4s-19.6,2.3-27.7,6.8c-8.1,4.5-14.3,11-18.8,19.2-4.4,8.3-6.7,17.8-6.7,28.5s2.2,20.2,6.7,28.5c4.4,8.3,10.7,14.7,18.8,19.2,8.1,4.5,17.3,6.8,27.7,6.8,17.6,0,32.6-7.5,45-22.4l34.3,31.1c-9.3,11.6-20.9,20.5-34.9,26.7-14,6.2-29.7,9.3-47.2,9.3s-37.9-4.2-53.8-12.7h0Z"/>
  <path class="cls-7" d="M1357,384c-1.7,0-3.3-.9-4.1-2.5l-26.7-51c-1.2-2.3-.3-5.1,2-6.3,2.3-1.2,5.1-.3,6.3,2l26.7,51c1.2,2.3.3,5.1-2,6.3-.7.4-1.4.5-2.2.5h0Z"/>
  <path class="cls-7" d="M1351.9,305.7c6,5.8,9.5,13.5,9.7,21.8.2,8.3-2.9,16.2-8.6,22.3s-13.5,9.5-21.8,9.7-16.2-2.9-22.3-8.6c-6-5.8-9.5-13.5-9.7-21.8-.2-8.3,2.9-16.2,8.6-22.3,5.8-6,13.5-9.5,21.8-9.7s16.2,2.9,22.3,8.6M1354.9,302.5c-14.2-13.5-36.7-13-50.3,1.2s-13,36.7,1.2,50.3c14.2,13.5,36.7,13,50.3-1.2s13-36.7-1.2-50.3"/>
  <path class="cls-11" d="M1351.9,305.7c6,5.8,9.5,13.5,9.7,21.8.2,8.3-2.9,16.2-8.6,22.3s-13.5,9.5-21.8,9.7-16.2-2.9-22.3-8.6c-6-5.8-9.5-13.5-9.7-21.8-.2-8.3,2.9-16.2,8.6-22.3,5.8-6,13.5-9.5,21.8-9.7s16.2,2.9,22.3,8.6"/>
  <g class="cls-28">
    <g>
      <path class="cls-11" d="M1357.1,300.3c7.5,7.1,11.7,16.7,12,27.1.2,10.3-3.5,20.1-10.7,27.6s-16.7,11.7-27.1,12-20.1-3.5-27.6-10.7-11.7-16.7-12-27.1c-.2-10.3,3.5-20.1,10.7-27.6,7.1-7.5,16.7-11.7,27.1-12s20.1,3.5,27.6,10.7"/>
      <path class="cls-16" d="M1318.6,342.6c-2.4,0-4.4,2-4.4,4.4s2,4.4,4.4,4.4,4.4-2,4.4-4.4-2-4.4-4.4-4.4ZM1318.6,348.7c-1,0-1.8-.8-1.8-1.8s.8-1.8,1.8-1.8,1.8.8,1.8,1.8-.8,1.8-1.8,1.8Z"/>
      <path class="cls-16" d="M1335.4,316.3v-17.8h-2.7v17.8c-1.8.6-3.1,2.2-3.1,4.2s2,4.4,4.4,4.4,4.4-2,4.4-4.4-1.3-3.6-3.1-4.2h0ZM1334,322.3c-1,0-1.8-.8-1.8-1.8s.8-1.8,1.8-1.8,1.8.8,1.8,1.8-.8,1.8-1.8,1.8Z"/>
      <path class="cls-16" d="M1325.2,316.1c2.4,0,4.4-2,4.4-4.4s-1.3-3.6-3.1-4.2v-15.6h-2.7v15.6c-1.8.6-3.1,2.2-3.1,4.2s2,4.4,4.4,4.4h0ZM1325.2,309.9c1,0,1.8.8,1.8,1.8s-.8,1.8-1.8,1.8-1.8-.8-1.8-1.8.8-1.8,1.8-1.8Z"/>
      <path class="cls-16" d="M1323,324.9c-.7,0-1.4.1-2,.3l-3.3-5.7v-18.9h-2.7v19.6l3.6,6.3c-1.4,1.2-2.3,3-2.3,5,0,3.6,3,6.6,6.6,6.6s6.6-3,6.6-6.6-3-6.6-6.6-6.6h0ZM1323,335.5c-2.2,0-4-1.8-4-4s1.8-4,4-4,4,1.8,4,4-1.8,4-4,4Z"/>
      <path class="cls-16" d="M1309.8,327.1c-2.4,0-4.4,2-4.4,4.4s1.3,3.6,3.1,4.2v22.2h2.7v-22.2c1.8-.6,3.1-2.2,3.1-4.2s-2-4.4-4.4-4.4h0ZM1309.8,333.3c-1,0-1.8-.8-1.8-1.8s.8-1.8,1.8-1.8,1.8.8,1.8,1.8-.8,1.8-1.8,1.8Z"/>
      <path class="cls-16" d="M1312,316.1c0-4.9-3.9-8.8-8.8-8.8s-8.8,4-8.8,8.8,3.9,8.8,8.8,8.8,8.8-4,8.8-8.8ZM1303.2,322.3c-3.4,0-6.2-2.8-6.2-6.2s2.8-6.2,6.2-6.2,6.2,2.8,6.2,6.2-2.8,6.2-6.2,6.2Z"/>
      <path class="cls-16" d="M1346.2,298.5c-4.3,0-7.7,3.5-7.7,7.7s3.4,7.7,7.7,7.7,7.7-3.5,7.7-7.7-3.4-7.7-7.7-7.7ZM1346.2,311.3c-2.8,0-5.1-2.3-5.1-5.1s2.3-5.1,5.1-5.1,5.1,2.3,5.1,5.1-2.3,5.1-5.1,5.1Z"/>
    </g>
  </g>
  <path class="cls-18" d="M1979.1,1406.9c0-10.9,8.3-18.7,19.6-18.7s11.4,2.3,14.8,6.4l-5.4,4.9c-2.4-2.8-5.5-4.2-9.1-4.2-6.8,0-11.5,4.7-11.5,11.5s4.8,11.5,11.5,11.5,6.7-1.4,9.1-4.3l5.4,4.9c-3.4,4.2-8.6,6.4-14.9,6.4-11.2,0-19.5-7.8-19.5-18.7h0Z"/>
  <path class="cls-18" d="M2025.3,1388.9h8.3v36.1h-8.3v-36.1Z"/>
  <path class="cls-18" d="M2045.6,1421.4l2.8-6.3c3,2.2,7.6,3.8,11.9,3.8s7-1.7,7-3.9c0-6.8-21-2.1-21-15.5s4.9-11.2,15.2-11.2,9.2,1.1,12.5,3.2l-2.6,6.3c-3.4-1.9-6.8-2.8-10-2.8-4.9,0-6.9,1.9-6.9,4.1,0,6.7,21,2.1,21,15.3s-5,11.2-15.3,11.2-11.5-1.7-14.7-4.2h0Z"/>
  <path class="cls-18" d="M2119.7,1402c0,8-6,13-15.7,13h-7.3v9.9h-8.4v-36.1h15.6c9.6,0,15.7,5,15.7,13.1h0ZM2111.3,1402c0-4-2.6-6.3-7.7-6.3h-6.8v12.5h6.8c5.1,0,7.7-2.3,7.7-6.2Z"/>
  <path class="cls-18" d="M2154,1417.2h-16.7l-3.2,7.7h-8.6l16.1-36.1h8.2l16.1,36.1h-8.8l-3.2-7.7h0ZM2151.3,1410.9l-5.7-13.8-5.7,13.8h11.4Z"/>
  <path class="cls-18" d="M1979.1,1454.3c0-10.6,8-18.3,18.9-18.3s10,1.8,13.2,5.3l-2.4,2.4c-2.9-3-6.5-4.3-10.7-4.3-8.7,0-15.2,6.4-15.2,14.9s6.5,14.9,15.2,14.9,7.7-1.3,10.7-4.3l2.4,2.4c-3.2,3.5-7.9,5.3-13.2,5.3-10.8,0-18.9-7.8-18.9-18.3h0Z"/>
  <path class="cls-18" d="M2036.1,1459.9v12.5h-3.8v-12.5l-14.4-23.6h4.1l12.4,20.2,12.4-20.2h3.8l-14.4,23.6h0Z"/>
  <path class="cls-18" d="M2057.3,1468l1.5-2.9c2.6,2.5,7.2,4.4,11.9,4.4,6.8,0,9.7-2.8,9.7-6.4,0-9.9-22.2-3.8-22.2-17.2s4.1-9.9,13.3-9.9,8.3,1.2,11.2,3.2l-1.3,3c-3.1-2-6.7-3-9.9-3-6.6,0-9.5,2.9-9.5,6.5,0,9.9,22.2,3.9,22.2,17.1s-4.2,9.8-13.4,9.8-10.7-1.9-13.4-4.7h0Z"/>
  <path class="cls-18" d="M2123.1,1469.1v3.3h-25.5v-36.1h24.7v3.3h-20.9v12.8h18.6v3.2h-18.6v13.4h21.7Z"/>
  <path class="cls-18" d="M2133.8,1454.3c0-10.6,8-18.3,18.9-18.3s10,1.8,13.2,5.3l-2.4,2.4c-2.9-3-6.5-4.3-10.7-4.3-8.7,0-15.2,6.4-15.2,14.9s6.5,14.9,15.2,14.9,7.7-1.3,10.7-4.3l2.4,2.4c-3.2,3.5-7.9,5.3-13.2,5.3-10.8,0-18.9-7.8-18.9-18.3h0Z"/>
  <path class="cls-18" d="M2177.6,1436.3h8.4v29.3h18.1v6.8h-26.4v-36.1h0Z"/>
  <path class="cls-18" d="M2237.9,1464.6h-16.8l-3.2,7.7h-8.6l16.1-36.1h8.2l16.1,36.1h-8.8l-3.2-7.7h0ZM2235.3,1458.3l-5.7-13.8-5.7,13.8h11.4Z"/>
  <path class="cls-18" d="M2291.9,1462.5c0,6.2-4.9,9.8-14.4,9.8h-18.6v-36.1h17.6c9,0,13.6,3.8,13.6,9.4s-1.9,6.4-4.8,7.9c4,1.3,6.6,4.4,6.6,8.9h0ZM2267.1,1442.6v8.5h8.3c4.1,0,6.3-1.4,6.3-4.3s-2.2-4.2-6.3-4.2h-8.3ZM2283.5,1461.7c0-3-2.3-4.5-6.6-4.5h-9.7v8.9h9.7c4.3,0,6.6-1.3,6.6-4.4Z"/>
  <path class="cls-7" d="M1950.7,1343.8c4.4,2.4,9.9.7,12.2-3.7,2.4-4.4.7-9.9-3.7-12.2-4.4-2.4-9.9-.7-12.2,3.7-2.4,4.4-.7,9.9,3.7,12.2ZM1956.6,1332.7c1.7.9,2.4,3.1,1.4,4.8-.9,1.7-3.1,2.4-4.8,1.4s-2.4-3.1-1.4-4.8,3.1-2.4,4.8-1.4Z"/>
  <path class="cls-7" d="M1941.9,1309.4c4.4,2.4,9.9.7,12.2-3.7s.7-9.9-3.7-12.2c-4.4-2.4-9.9-.7-12.2,3.7-2.4,4.4-.7,9.9,3.7,12.2ZM1947.9,1298.3c1.7.9,2.4,3.1,1.4,4.8s-3.1,2.4-4.8,1.4-2.4-3.1-1.4-4.8c.9-1.7,3.1-2.4,4.8-1.4Z"/>
  <path class="cls-7" d="M1951.4,1461.1l-4.1-59.5,19.2-35.8c.7-1.3.2-3-1.1-3.7l-19.1-10.3c-1.3-.7-3-.2-3.7,1.1l-19.6,36.5c-.2.5-.4,1-.3,1.5l1.5,21.8-14.3,8.2v-6.4c2-.7,3.9-2.2,5-4.3,2.4-4.4.7-9.9-3.7-12.2-4.4-2.4-9.9-.7-12.2,3.7-2.4,4.4-.7,9.9,3.7,12.2.5.3,1.1.5,1.6.7v9.4c.1,0-6.3,3.7-6.3,3.7-.5-.5-1.1-1-1.8-1.3-4.4-2.4-9.9-.7-12.2,3.7s-.7,9.9,3.7,12.2c4.4,2.4,9.9.7,12.2-3.7,1.1-1.9,1.3-4.1.8-6.1l23.9-13.6,1.6,23.8c-1.9.8-3.6,2.1-4.6,4.1-2.4,4.4-.7,9.9,3.7,12.2,4.4,2.4,9.9.7,12.2-3.7,2.4-4.4.7-9.9-3.7-12.2-.7-.4-1.4-.6-2.1-.8l-3.5-50.9,17.9-33.4,14.3,7.7-18.3,34.1c-.2.5-.4,1-.3,1.5l4.1,60.3c0,1.4-.4,2.7-1.3,3.7-.9,1-2.2,1.6-3.6,1.7-7.5.2-23.4-1.2-46.3-13.4-22.9-12.4-32.9-24.9-36.8-31.2-.7-1.2-.9-2.6-.6-3.9s1.2-2.5,2.4-3.1l52.5-29.9c.4-.3.8-.6,1.1-1.1l19.6-36.5c.7-1.3.2-3-1.1-3.7l-9.2-4.9c-1.3-.7-3-.2-3.7,1.1-.7,1.3-.2,3,1.1,3.7l6.8,3.6-17.9,33.4-51.8,29.5c-2.5,1.4-4.3,3.8-5,6.6-.7,2.8-.3,5.7,1.2,8.1,5.2,8.3,16.1,20.8,38.9,33.2,22.9,12.2,39.3,14.4,49.1,14.1,2.9,0,5.5-1.3,7.5-3.5,1.9-2.1,2.9-4.9,2.7-7.8h0ZM1905.2,1409.1c-1.7-.9-2.4-3.1-1.4-4.8s3.1-2.4,4.8-1.4c1.7.9,2.4,3.1,1.4,4.8-.9,1.7-3.1,2.4-4.8,1.4ZM1890.2,1437.4c-1.7-.9-2.4-3.1-1.4-4.8.9-1.7,3.1-2.4,4.8-1.4,1.7.9,2.4,3.1,1.4,4.8-.9,1.7-3.1,2.4-4.8,1.4ZM1931.2,1447.9c1.7.9,2.4,3.1,1.4,4.8-.9,1.7-3.1,2.4-4.8,1.4s-2.4-3.1-1.4-4.8,3.1-2.4,4.8-1.4Z"/>
</svg>