<?xml version="1.0" encoding="UTF-8"?><svg id="Fun_Fact_Quiz" xmlns="http://www.w3.org/2000/svg" viewBox="0 0 240.945 240.945"><defs><style>.cls-1{fill:#ffc600;}.cls-1,.cls-2,.cls-3,.cls-4,.cls-5,.cls-6{stroke-width:0px;}.cls-2{fill:#66c4dc;}.cls-3{fill:#002864;}.cls-4{fill:#eb3300;}.cls-5{fill:#018dca;}.cls-6{fill:#fff;}</style></defs><polygon class="cls-5" points="71.467 52.964 41.982 178.168 50.362 201.186 171.094 209.527 191.889 74.828 81.605 75.27 71.467 52.964"/><path class="cls-3" d="M171.096,212.527c-.069,0-.139-.002-.209-.007l-120.732-8.341c-1.183-.082-2.206-.852-2.612-1.966l-8.38-23.019c-.199-.549-.234-1.145-.101-1.714l29.485-125.203c.294-1.25,1.351-2.173,2.627-2.298,1.295-.121,2.493.577,3.024,1.745l9.335,20.539,108.344-.435c.906-.007,1.712.377,2.285,1.042.572.665.825,1.548.691,2.415l-20.795,134.699c-.228,1.472-1.494,2.542-2.963,2.542ZM52.514,198.328l116.036,8.016,19.838-128.502-106.771.428h-.012c-1.176,0-2.244-.688-2.731-1.759l-6.501-14.304-27.265,115.776,7.406,20.345Z"/><polygon class="cls-1" points="68.536 167.678 63.714 191.678 162.574 200.832 181.484 83.628 88.429 84.445 68.536 167.678"/><path class="cls-3" d="M162.577,203.832c-.093,0-.186-.004-.279-.013l-98.86-9.154c-.848-.079-1.621-.513-2.13-1.195-.508-.683-.702-1.549-.535-2.383l4.822-24c.008-.036.016-.071.023-.106l19.893-83.233c.32-1.341,1.514-2.291,2.892-2.303l93.055-.817c.897-.009,1.727.375,2.302,1.045.576.67.827,1.561.687,2.433l-18.909,117.204c-.236,1.465-1.502,2.522-2.959,2.522ZM67.313,188.998l92.747,8.588,17.896-110.927-87.155.766-19.334,80.898-4.154,20.675Z"/><polygon class="cls-1" points="63.324 183.253 154.413 190.294 174.677 66.079 80.885 63.991 63.324 183.253"/><path class="cls-3" d="M154.416,193.294c-.078,0-.155-.003-.234-.009l-91.09-7.042c-.829-.064-1.594-.47-2.113-1.12-.519-.65-.744-1.486-.623-2.309l17.562-119.262c.221-1.498,1.553-2.609,3.034-2.562l93.791,2.088c.868.019,1.686.414,2.241,1.082.555.668.793,1.543.653,2.4l-20.264,124.215c-.238,1.461-1.501,2.517-2.958,2.517ZM66.76,180.509l85.137,6.581,19.264-118.089-87.692-1.953-16.708,113.46Z"/><path class="cls-4" d="M83.131,166.709l-2.018-.155,1.601-8.189,2.018.155-1.601,8.189ZM82.731,168.756l.4-2.048,6.056.467-.4,2.048-6.056-.467ZM84.732,158.519l.401-2.048,6.056.467-.401,2.048-6.056-.467ZM91.204,167.332l-2.017-.156,1.601-8.189,2.017.156-1.601,8.189Z"/><path class="cls-4" d="M88.786,169.723c-.013,0-.025,0-.038-.001l-6.055-.467c-.143-.011-.273-.082-.359-.196-.087-.113-.12-.258-.094-.398l.292-1.497-1.457-.112c-.143-.011-.273-.082-.359-.196-.087-.113-.121-.259-.093-.398l1.601-8.189c.049-.249.28-.42.528-.403l1.574.121.316-1.611c.049-.249.285-.422.528-.402l6.056.467c.143.011.273.082.36.196.086.114.12.259.092.399l-.293,1.496,1.458.113c.142.011.272.083.359.196.086.114.12.259.092.398l-1.601,8.189c-.049.249-.267.421-.529.403l-1.573-.122-.315,1.611c-.046.236-.253.404-.49.404ZM83.33,168.301l5.051.39.207-1.06-5.052-.39-.206,1.06ZM89.785,166.72l1.014.079,1.407-7.201-1.014-.079-1.407,7.201ZM83.73,166.253l5.052.39,1.407-7.201-5.052-.389-1.407,7.201ZM81.712,166.098l1.014.078,1.407-7.201-1.014-.078-1.407,7.201ZM85.33,158.064l5.052.389.208-1.059-5.052-.39-.208,1.06Z"/><path class="cls-4" d="M95.241,167.642l-2.018-.155,1.601-8.189,2.018.155-1.601,8.189ZM94.841,169.69l.4-2.048,6.056.467-.4,2.048-6.056-.467ZM96.842,159.453l.401-2.048,6.056.467-.401,2.048-6.056-.467ZM103.314,168.264l-2.018-.155,1.601-8.189,2.017.156-1.601,8.188Z"/><path class="cls-4" d="M100.897,170.657c-.013,0-.025,0-.038-.001l-6.056-.467c-.143-.011-.273-.082-.359-.196-.087-.114-.121-.259-.093-.398l.292-1.497-1.457-.112c-.143-.011-.273-.082-.359-.196-.087-.113-.121-.259-.093-.398l1.601-8.189c.049-.249.286-.421.528-.403l1.574.121.315-1.611c.048-.249.271-.423.528-.402l6.056.467c.143.011.273.082.359.196.087.114.121.259.093.399l-.292,1.496,1.458.113c.142.011.272.083.359.196.086.114.12.259.092.398l-1.601,8.188c-.049.249-.281.421-.528.403l-1.574-.121-.315,1.611c-.046.236-.253.404-.49.404ZM95.44,169.234l5.052.39.207-1.06-5.052-.39-.207,1.06ZM101.896,167.653l1.014.078,1.407-7.201-1.014-.079-1.407,7.201ZM95.84,167.187l5.052.39,1.407-7.201-5.052-.39-1.407,7.201ZM93.822,167.031l1.014.078,1.407-7.201-1.014-.078-1.407,7.201ZM97.441,158.997l5.052.39.207-1.059-5.052-.39-.207,1.059Z"/><path class="cls-4" d="M108.551,162.434l.4-2.048,2.019.155.401-2.048,2.017.156-2.002,10.237,4.037.31-.4,2.048-10.091-.778.4-2.047,4.037.31,1.201-6.142-2.019-.155ZM106.532,162.278l2.018.156-.4,2.048-2.018-.156.4-2.048Z"/><path class="cls-4" d="M115.024,171.746c-.013,0-.025,0-.038-.001l-10.092-.778c-.143-.011-.273-.082-.359-.196-.087-.113-.12-.258-.094-.398l.399-2.047c.05-.249.28-.419.529-.403l3.594.276,1.008-5.153-1.015-.078-.315,1.611c-.048.249-.252.424-.529.402l-2.018-.156c-.142-.011-.272-.082-.358-.196-.087-.113-.12-.258-.094-.398l.399-2.047c.049-.249.252-.421.53-.403l1.574.122.315-1.611c.048-.249.274-.423.528-.403l1.575.121.315-1.611c.049-.249.259-.425.529-.402l2.018.156c.142.011.272.083.359.196.086.114.12.259.092.399l-1.894,9.685,3.477.268c.143.011.273.082.359.196.087.113.12.258.094.398l-.399,2.048c-.047.236-.254.404-.491.404ZM105.53,170.012l9.088.701.206-1.06-3.477-.268c-.143-.011-.273-.082-.359-.196-.087-.114-.121-.259-.093-.399l1.894-9.686-1.014-.079-.315,1.611c-.049.249-.282.422-.528.402l-1.575-.121-.207,1.06,1.458.112c.143.011.273.082.359.196.087.114.121.259.093.399l-1.201,6.142c-.048.249-.277.425-.528.402l-3.594-.276-.206,1.059ZM106.732,163.87l1.014.079.207-1.06-1.015-.079-.206,1.06Z"/><path class="cls-4" d="M119.459,169.509l-2.018-.155,1.601-8.189,2.018.155-1.601,8.189ZM119.059,171.556l.4-2.047,6.056.467-.4,2.047-6.056-.467ZM121.06,161.32l.401-2.048,6.056.467-.401,2.048-6.056-.467ZM127.532,170.131l-2.018-.155,1.601-8.189,2.018.155-1.601,8.189Z"/><path class="cls-4" d="M125.114,172.523c-.013,0-.025,0-.038-.001l-6.055-.467c-.143-.011-.273-.082-.359-.196-.087-.113-.121-.258-.094-.398l.292-1.495-1.457-.112c-.143-.011-.273-.082-.359-.196-.087-.113-.121-.259-.093-.398l1.601-8.189c.049-.249.279-.423.528-.403l1.574.121.316-1.611c.049-.249.283-.424.528-.402l6.056.467c.143.011.273.082.36.196.086.114.12.259.092.399l-.293,1.496,1.457.112c.143.011.273.082.359.196.087.113.121.259.093.398l-1.601,8.189c-.049.249-.287.419-.528.403l-1.574-.121-.315,1.61c-.046.236-.253.404-.49.404ZM119.658,171.1l5.051.39.207-1.058-5.052-.39-.206,1.058ZM126.113,169.521l1.014.078,1.407-7.201-1.014-.078-1.407,7.201ZM120.058,169.054l5.052.39,1.407-7.201-5.052-.39-1.407,7.201ZM118.04,168.899l1.014.078,1.407-7.201-1.014-.078-1.407,7.201ZM121.658,160.864l5.052.39.208-1.059-5.052-.39-.208,1.059Z"/><path class="cls-4" d="M132.769,164.3l.4-2.047,2.019.155.401-2.048,2.018.155-2.002,10.237,4.037.312-.4,2.048-10.091-.778.4-2.047,4.037.31,1.201-6.142-2.018-.156ZM130.751,164.145l2.019.155-.4,2.048-2.019-.155.4-2.048Z"/><path class="cls-4" d="M139.241,173.612c-.013,0-.025,0-.038-.001l-10.092-.778c-.143-.011-.273-.082-.36-.196-.086-.114-.12-.259-.092-.399l.4-2.046c.048-.249.271-.42.528-.402l3.594.276,1.007-5.154-1.015-.079-.313,1.61c-.049.249-.279.424-.529.403l-2.019-.155c-.143-.011-.273-.082-.359-.196-.087-.113-.12-.258-.094-.398l.399-2.047c.05-.249.284-.422.529-.403l1.575.121.315-1.61c.049-.249.287-.425.528-.402l1.575.121.315-1.611c.048-.248.272-.417.528-.402l2.018.155c.143.011.273.082.359.196.087.113.121.259.093.398l-1.893,9.686,3.476.268c.143.011.273.082.359.196.087.113.12.258.094.398l-.399,2.047c-.047.236-.254.404-.491.404ZM129.748,171.879l9.088.701.206-1.06-3.476-.268c-.143-.011-.273-.082-.359-.196-.087-.114-.121-.259-.093-.398l1.893-9.686-1.014-.078-.315,1.611c-.048.249-.27.42-.528.402l-1.575-.121-.207,1.059,1.459.113c.142.011.272.083.359.196.086.114.12.259.092.398l-1.2,6.142c-.049.249-.284.423-.528.403l-3.594-.276-.207,1.059ZM130.949,165.737l1.015.078.206-1.059-1.015-.078-.206,1.059Z"/><path class="cls-4" d="M98.48,152.091l-2.018-.155,1.601-8.189,2.018.155-1.601,8.189ZM98.08,154.139l.4-2.048,6.056.467-.4,2.048-6.056-.467ZM100.081,143.902l.401-2.048,6.056.467-.401,2.048-6.056-.467ZM106.553,152.714l-2.017-.156,1.601-8.189,2.017.156-1.601,8.189Z"/><path class="cls-4" d="M104.136,155.106c-.013,0-.025,0-.038-.001l-6.056-.467c-.143-.011-.273-.082-.359-.196-.087-.114-.121-.259-.093-.399l.292-1.496-1.457-.112c-.143-.011-.273-.082-.359-.196-.087-.113-.121-.259-.093-.398l1.601-8.189c.048-.249.277-.418.528-.403l1.574.121.315-1.611c.049-.249.282-.42.528-.402l6.056.467c.143.011.273.082.359.196.087.114.121.259.093.399l-.292,1.496,1.457.113c.142.011.272.083.359.196.086.114.12.259.092.398l-1.601,8.189c-.049.249-.27.422-.529.403l-1.572-.122-.315,1.611c-.046.236-.253.404-.49.404ZM98.679,153.683l5.052.39.207-1.059-5.052-.39-.207,1.059ZM105.135,152.103l1.013.079,1.407-7.202-1.013-.079-1.407,7.202ZM99.079,151.636l5.052.39,1.407-7.201-5.052-.39-1.407,7.201ZM97.062,151.481l1.014.078,1.407-7.201-1.014-.078-1.407,7.201ZM100.68,143.446l5.052.39.207-1.059-5.052-.39-.207,1.059Z"/><path class="cls-4" d="M110.59,153.025l-2.018-.155,1.601-8.189,2.018.155-1.601,8.189ZM110.19,155.073l.4-2.048,6.056.467-.4,2.048-6.056-.467ZM112.191,144.836l.401-2.048,6.056.467-.401,2.048-6.056-.467ZM118.663,153.647l-2.018-.155,1.601-8.189,2.017.156-1.601,8.188Z"/><path class="cls-4" d="M116.246,156.039c-.013,0-.025,0-.038-.001l-6.056-.467c-.143-.011-.273-.082-.359-.196-.087-.113-.12-.258-.094-.398l.292-1.496-1.457-.112c-.143-.011-.273-.082-.359-.196-.087-.114-.121-.259-.093-.399l1.602-8.189c.049-.249.282-.419.528-.402l1.573.121.316-1.611c.049-.249.287-.42.528-.402l6.056.467c.143.011.273.082.36.196.086.114.12.259.092.399l-.293,1.497,1.458.113c.142.011.272.083.359.196.086.114.12.259.092.398l-1.601,8.188c-.049.249-.283.422-.528.403l-1.574-.121-.313,1.61c-.047.236-.254.404-.491.404ZM110.789,154.617l5.052.39.206-1.059-5.052-.39-.206,1.059ZM117.244,153.036l1.014.078,1.407-7.201-1.014-.079-1.407,7.201ZM111.189,152.569l5.052.39,1.407-7.201-5.052-.39-1.407,7.201ZM109.171,152.414l1.014.078,1.407-7.201-1.013-.078-1.408,7.201ZM112.789,144.38l5.052.39.208-1.06-5.052-.39-.208,1.06Z"/><path class="cls-4" d="M123.9,147.817l.4-2.048,2.019.155.401-2.048,2.017.156-2.002,10.237,4.037.31-.4,2.048-10.091-.778.4-2.047,4.037.31,1.201-6.142-2.019-.155ZM121.882,147.66l2.018.156-.4,2.048-2.018-.156.4-2.048Z"/><path class="cls-4" d="M130.372,157.128c-.013,0-.025,0-.038-.001l-10.091-.778c-.143-.011-.273-.082-.359-.196-.087-.113-.12-.258-.094-.398l.399-2.046c.049-.249.276-.417.529-.403l3.594.276,1.008-5.154-1.015-.078-.315,1.611c-.048.249-.255.426-.529.403l-2.019-.156c-.142-.011-.272-.083-.359-.196-.086-.114-.12-.259-.092-.398l.4-2.048c.049-.249.267-.418.529-.403l1.574.122.313-1.61c.049-.249.272-.421.529-.403l1.575.121.316-1.611c.048-.249.256-.423.529-.402l2.017.156c.142.011.272.083.359.196.086.114.12.259.092.398l-1.893,9.686,3.477.268c.143.011.273.082.359.196.087.114.121.259.093.399l-.4,2.047c-.046.236-.253.404-.49.404ZM120.88,155.394l9.087.701.207-1.059-3.477-.268c-.143-.011-.273-.082-.359-.196-.087-.113-.121-.259-.093-.398l1.893-9.687-1.013-.079-.316,1.611c-.049.249-.285.424-.528.402l-1.575-.121-.206,1.059,1.458.112c.143.011.273.082.359.196.087.114.121.259.093.399l-1.201,6.142c-.049.248-.28.417-.528.402l-3.594-.276-.206,1.058ZM122.08,149.253l1.015.079.207-1.06-1.015-.079-.207,1.06Z"/><path class="cls-4" d="M134.808,154.892l-2.018-.155,1.601-8.189,2.018.155-1.601,8.189ZM134.409,156.939l.4-2.047,6.056.467-.4,2.047-6.056-.467ZM136.409,146.703l.401-2.048,6.056.467-.401,2.048-6.056-.467ZM142.881,155.514l-2.018-.155,1.601-8.189,2.018.155-1.601,8.189Z"/><path class="cls-4" d="M140.464,157.905c-.013,0-.025,0-.038-.001l-6.056-.467c-.143-.011-.273-.082-.359-.196-.087-.114-.121-.259-.093-.399l.292-1.495-1.457-.112c-.143-.011-.273-.082-.359-.196-.087-.113-.121-.259-.093-.398l1.601-8.189c.048-.249.276-.421.528-.403l1.574.121.315-1.611c.049-.249.281-.423.528-.403l6.056.467c.143.011.273.082.359.196.087.114.121.259.093.398l-.292,1.497,1.457.112c.143.011.273.082.359.196.087.114.121.259.093.399l-1.602,8.189c-.048.249-.271.42-.528.402l-1.574-.121-.313,1.609c-.047.236-.254.404-.491.404ZM135.007,156.483l5.052.39.206-1.058-5.051-.39-.207,1.058ZM141.462,154.903l1.014.078,1.408-7.201-1.014-.078-1.408,7.201ZM135.407,154.437l5.051.39,1.408-7.201-5.052-.39-1.407,7.201ZM133.39,154.281l1.014.078,1.407-7.201-1.014-.078-1.407,7.201ZM137.008,146.247l5.052.39.207-1.06-5.052-.39-.207,1.06Z"/><path class="cls-3" d="M73.945,176.846c-.961,0-1.808-.694-1.971-1.672l-2.749-16.52c-.542-3.197-3.294-5.522-6.543-5.522-1.896,0-3.706.813-4.965,2.232-1.259,1.418-1.852,3.312-1.626,5.194l1.909,13.104c.159,1.093-.599,2.108-1.691,2.267-1.088.157-2.107-.597-2.268-1.691l-1.915-13.153c-.368-3.067.581-6.102,2.599-8.375s4.917-3.578,7.957-3.578c5.207,0,9.617,3.726,10.487,8.859l2.75,16.526c.182,1.089-.555,2.12-1.645,2.301-.111.019-.222.028-.33.028Z"/><polygon class="cls-2" points="41.982 178.168 143.293 147.744 165.14 16.773 71.467 52.964 41.982 178.168"/><path class="cls-3" d="M41.982,181.168c-.754,0-1.492-.284-2.057-.815-.78-.734-1.109-1.829-.863-2.872l29.485-125.203c.227-.964.915-1.754,1.839-2.111L164.059,13.975c1.004-.388,2.14-.208,2.976.473.836.681,1.242,1.757,1.064,2.819l-21.848,130.971c-.188,1.128-1.001,2.051-2.096,2.379l-101.311,30.423c-.284.085-.575.127-.863.127ZM74.025,55.193l-27.933,118.608,94.549-28.393,20.675-123.941-87.291,33.726Z"/><path class="cls-4" d="M142.997,74.525c1.567-10.487-5.33-15.966-15.403-12.237-7.768,2.876-15.154,10.387-18.847,18.484-1.566-6.15-7.44-8.753-15.208-5.878-10.074,3.729-19.51,15.253-21.077,25.741-.43,2.88-.219,5.38.518,7.418h-.002c2.239,7.719,15.917,16.959,27.755,26.364,16.198-19.783,34.4-40.823,39.342-51.199h-.002c1.468-2.854,2.495-5.811,2.925-8.692Z"/><path class="cls-6" d="M84.957,108.097l-4.22,1.304,1.897-16.396,4.22-1.304-1.897,16.396ZM86.854,91.701l.474-4.099,12.659-3.912-.474,4.099-12.659,3.912ZM84.483,112.197l.474-4.099,12.659-3.912-.474,4.099-12.659,3.912ZM101.837,102.882l-4.22,1.304,1.897-16.396,4.22-1.304-1.897,16.396Z"/><path class="cls-6" d="M84.484,112.697c-.115,0-.229-.04-.319-.115-.13-.108-.196-.274-.178-.442l.386-3.338-3.487,1.078c-.158.05-.337.016-.467-.093-.13-.108-.196-.274-.178-.442l1.896-16.396c.023-.197.16-.361.35-.42l3.908-1.208.437-3.775c.023-.197.16-.362.35-.42l12.659-3.912c.159-.05.337-.015.467.093.13.108.196.274.178.442l-.386,3.337,3.487-1.077c.158-.05.336-.015.467.093.13.108.196.274.178.442l-1.896,16.396c-.023.197-.16.362-.35.42l-3.909,1.208-.436,3.776c-.023.197-.16.362-.35.42l-12.659,3.912c-.048.015-.098.022-.147.022ZM85.416,108.479l-.348,3.014,11.615-3.589.348-3.014-11.615,3.589ZM83.093,93.387l-1.771,15.311,3.176-.981,1.771-15.311-3.176.981ZM87.313,92.083l-1.771,15.311,11.615-3.589,1.771-15.311-11.616,3.589ZM99.973,88.171l-1.771,15.311,3.177-.981,1.771-15.311-3.176.981ZM101.837,102.882h.01-.01ZM87.787,87.984l-.349,3.013,11.616-3.589.348-3.013-11.615,3.589Z"/><path class="cls-6" d="M111.699,87.978l.474-4.099,4.22-1.304.474-4.099,4.219-1.304-2.371,20.494,8.441-2.608-.474,4.099-21.1,6.52.474-4.099,8.441-2.608,1.423-12.297-4.22,1.304ZM107.478,89.282l4.22-1.304-.474,4.099-4.22,1.304.474-4.099Z"/><path class="cls-6" d="M105.581,106.178c-.115,0-.229-.04-.319-.115-.13-.108-.197-.274-.178-.442l.475-4.1c.023-.197.16-.362.35-.42l8.129-2.512,1.297-11.211-3.177.981-.436,3.775c-.023.197-.16.362-.35.42l-4.221,1.304c-.158.049-.337.015-.467-.093s-.197-.274-.178-.442l.475-4.099c.023-.197.16-.361.35-.42l3.908-1.208.437-3.776c.023-.197.16-.362.35-.42l3.909-1.208.436-3.775c.023-.197.16-.361.35-.42l4.219-1.304c.159-.05.337-.015.467.093.13.108.196.274.178.442l-2.283,19.733,7.709-2.381c.158-.051.337-.015.467.093.13.108.196.274.178.442l-.475,4.099c-.023.197-.16.362-.35.42l-21.101,6.52c-.048.015-.098.022-.147.022ZM106.515,101.96l-.349,3.014,20.057-6.197.349-3.014-7.709,2.381c-.159.049-.337.015-.467-.093s-.196-.274-.178-.442l2.283-19.733-3.175.981-.436,3.775c-.023.197-.16.362-.35.42l-3.909,1.208-.349,3.014,3.488-1.078c.158-.05.337-.015.467.093s.196.274.178.442l-1.423,12.297c-.023.197-.16.362-.35.42l-8.129,2.512ZM107.938,89.663l-.349,3.013,3.177-.981.348-3.013-3.176.981Z"/></svg>