<?xml version="1.0" encoding="UTF-8"?><svg id="Fun_Fact_Quiz" xmlns="http://www.w3.org/2000/svg" viewBox="0 0 240.945 240.945"><defs><style>.cls-1{fill:#c9c9c9;}.cls-1,.cls-2,.cls-3,.cls-4,.cls-5,.cls-6{stroke-width:0px;}.cls-2{fill:#008040;}.cls-3{fill:#002864;}.cls-4{fill:#102a62;}.cls-5{fill:#fff;}.cls-6{fill:#00c8ff;}</style></defs><circle class="cls-2" cx="120.472" cy="120.472" r="98.11"/><rect class="cls-3" x="115.857" y="52.432" width="7.999" height="42.428" transform="translate(-10.149 19.906) rotate(-9.11)"/><path class="cls-6" d="M116.498,69.574c-9.305,0-16.875-7.57-16.875-16.875s7.57-16.875,16.875-16.875,16.875,7.57,16.875,16.875-7.57,16.875-16.875,16.875Z"/><path class="cls-3" d="M116.498,38.824c7.651,0,13.875,6.224,13.875,13.875s-6.224,13.875-13.875,13.875-13.875-6.224-13.875-13.875,6.224-13.875,13.875-13.875M116.498,32.824c-10.977,0-19.875,8.898-19.875,19.875s8.898,19.875,19.875,19.875,19.875-8.898,19.875-19.875-8.898-19.875-19.875-19.875h0Z"/><path class="cls-1" d="M167.809,189.493c-.277,0-.556-.012-.836-.038l-103.939-9.558c-2.384-.219-4.522-1.354-6.021-3.197-1.487-1.829-2.159-4.129-1.892-6.477l8.773-76.961c.523-4.593,4.583-8.19,9.241-8.19.276,0,.555.012.835.038l103.939,9.558c2.384.219,4.522,1.355,6.021,3.198,1.487,1.829,2.159,4.129,1.892,6.477l-8.773,76.961c-.523,4.593-4.583,8.19-9.24,8.19Z"/><path class="cls-3" d="M73.136,88.071h0c.186,0,.375.009.561.026l103.939,9.558c1.574.145,2.983.892,3.969,2.103.974,1.197,1.413,2.705,1.238,4.244l-8.773,76.961c-.354,3.101-3.103,5.53-6.26,5.53-.186,0-.375-.009-.561-.026l-103.939-9.558c-1.574-.145-2.983-.892-3.968-2.103-.974-1.197-1.413-2.705-1.238-4.244l8.773-76.961c.354-3.101,3.103-5.53,6.26-5.53M73.136,82.071c-6.137,0-11.517,4.675-12.221,10.85l-8.773,76.961c-.746,6.545,4.032,12.396,10.618,13.002l103.94,9.558c.372.034.742.051,1.11.051,6.137,0,11.517-4.675,12.221-10.85l8.773-76.961c.746-6.545-4.032-12.396-10.618-13.002l-103.94-9.558c-.372-.034-.742-.051-1.11-.051h0Z"/><path class="cls-5" d="M90.714,129.879c-.474,0-.955-.022-1.43-.065-4.057-.373-7.684-2.292-10.215-5.404-2.514-3.09-3.646-6.996-3.19-10.998.883-7.741,7.71-13.804,15.544-13.804.474,0,.955.022,1.43.065,4.057.373,7.685,2.292,10.215,5.404,2.514,3.09,3.646,6.996,3.19,10.997-.883,7.741-7.71,13.805-15.544,13.805Z"/><path class="cls-3" d="M91.424,96.607v6c.382,0,.77.018,1.154.053,3.246.299,6.145,1.829,8.162,4.309,2,2.459,2.901,5.572,2.537,8.765-.712,6.249-6.231,11.145-12.563,11.145-.383,0-.771-.018-1.155-.053-3.246-.299-6.145-1.829-8.162-4.309-2-2.459-2.901-5.572-2.537-8.765.712-6.249,6.231-11.144,12.563-11.144v-6M91.423,96.607c-9.336,0-17.452,7.061-18.524,16.465-1.137,9.973,6.076,18.805,16.111,19.728.572.053,1.14.078,1.704.078,9.336,0,17.452-7.061,18.524-16.465,1.137-9.973-6.077-18.805-16.112-19.728-.572-.053-1.14-.078-1.704-.078h0Z"/><path class="cls-5" d="M153.781,135.119c-.474,0-.955-.022-1.43-.065-4.057-.373-7.684-2.292-10.215-5.404-2.514-3.09-3.646-6.996-3.19-10.998.883-7.741,7.71-13.804,15.544-13.804.474,0,.955.022,1.43.065,4.057.373,7.685,2.292,10.216,5.404,2.513,3.09,3.646,6.996,3.189,10.997-.883,7.741-7.71,13.805-15.544,13.805Z"/><path class="cls-3" d="M154.492,101.848v6c.382,0,.77.018,1.154.053,3.246.299,6.145,1.829,8.162,4.309,2,2.459,2.901,5.572,2.537,8.765-.712,6.249-6.231,11.145-12.563,11.145-.383,0-.771-.018-1.155-.053-3.246-.299-6.145-1.829-8.162-4.309-2-2.459-2.901-5.572-2.537-8.765.712-6.249,6.231-11.144,12.563-11.144v-6M154.49,101.848c-9.336,0-17.452,7.061-18.524,16.465-1.137,9.973,6.076,18.805,16.111,19.728.572.053,1.14.078,1.704.078,9.336,0,17.452-7.061,18.524-16.465,1.137-9.973-6.077-18.805-16.112-19.728-.572-.053-1.14-.078-1.704-.078h0Z"/><path class="cls-4" d="M119.508,167.681c-.804,0-1.611-.037-2.422-.111-12.499-1.149-22.377-10.988-23.488-23.393-.147-1.65,1.07-3.108,2.721-3.256,1.639-.143,3.107,1.07,3.256,2.721.853,9.519,8.448,17.069,18.061,17.954,9.681.891,18.875-5.168,21.881-14.404.513-1.577,2.21-2.437,3.781-1.924,1.575.513,2.437,2.206,1.924,3.781-3.613,11.103-14.189,18.634-25.713,18.634Z"/><path class="cls-5" d="M90.961,117.252c-.08,0-.161-.004-.243-.011-.668-.062-1.263-.374-1.674-.88-.405-.499-.588-1.133-.514-1.785.149-1.313,1.312-2.342,2.646-2.342.08,0,.161.004.243.011.668.062,1.262.374,1.674.879.405.5.588,1.133.514,1.785-.149,1.313-1.312,2.342-2.646,2.342Z"/><path class="cls-3" d="M91.176,109.235c-2.836,0-5.301,2.145-5.626,5.001-.345,3.029,1.846,5.712,4.894,5.992.174.016.346.024.518.024,2.836,0,5.301-2.145,5.627-5.001.345-3.029-1.846-5.712-4.894-5.992-.174-.016-.346-.024-.518-.024h0Z"/><path class="cls-5" d="M154.028,122.492c-.08,0-.161-.004-.243-.011-.668-.062-1.262-.374-1.674-.879-.405-.5-.588-1.133-.514-1.785.15-1.313,1.312-2.341,2.646-2.341.08,0,.161.004.243.011.667.062,1.262.374,1.673.879.406.5.589,1.134.515,1.787-.15,1.312-1.312,2.34-2.646,2.34Z"/><path class="cls-3" d="M154.244,114.475c-2.836,0-5.301,2.145-5.626,5.001-.345,3.029,1.846,5.712,4.894,5.992.174.016.346.024.518.024,2.836,0,5.301-2.145,5.626-5.001.345-3.029-1.845-5.712-4.894-5.992-.174-.016-.346-.024-.518-.024h0Z"/></svg>