<?xml version="1.0" encoding="UTF-8"?><svg id="Fun_Fact_Quiz" xmlns="http://www.w3.org/2000/svg" viewBox="0 0 240.945 240.945"><defs><style>.cls-1{fill:#ffc600;}.cls-1,.cls-2,.cls-3,.cls-4,.cls-5{stroke-width:0px;}.cls-2{fill:#009cc4;}.cls-3{fill:#008040;}.cls-4{fill:#002864;}.cls-5{fill:#fff;}</style></defs><circle class="cls-2" cx="120.472" cy="120.472" r="98.121"/><path class="cls-1" d="M187.977,107.716c-.074,6.655-15.618,10.607-17.634,16.591-2.09,6.202,7.817,18.745,3.989,23.884-3.866,5.19-18.755-.706-24.03,3.044-5.222,3.713-4.546,19.733-10.793,21.685-6.027,1.884-14.574-11.603-21.23-11.677s-15.499,13.221-21.483,11.205c-6.202-2.09-5.172-18.091-10.311-21.919-5.19-3.866-20.207,1.701-23.957-3.574-3.713-5.222,6.468-17.544,4.516-23.79-1.884-6.027-17.337-10.321-17.263-16.976.074-6.655,15.618-10.607,17.634-16.591,2.09-6.202-7.817-18.745-3.989-23.884,3.866-5.19,18.755.706,24.03-3.044,5.222-3.713,4.546-19.733,10.793-21.685,6.027-1.884,14.574,11.603,21.23,11.677s15.499-13.221,21.483-11.205c6.202,2.09,5.172,18.091,10.311,21.919,5.19,3.866,20.207-1.701,23.957,3.574,3.713,5.222-6.468,17.544-4.516,23.79,1.884,6.027,17.337,10.321,17.263,16.976Z"/><path class="cls-4" d="M138.287,176.107c-4.016,0-7.929-3.317-11.731-6.541-2.785-2.361-6.252-5.3-8.309-5.322-.008,0-.017,0-.024,0-2.061,0-5.573,2.848-8.399,5.138-4.551,3.689-9.26,7.502-13.983,5.91-4.903-1.652-6.362-7.684-7.773-13.518-.831-3.437-1.865-7.715-3.372-8.837-1.545-1.15-5.979-.914-9.548-.722-5.946.318-12.099.647-15.062-3.519-2.935-4.127-.616-9.791,1.627-15.268,1.363-3.331,3.061-7.477,2.471-9.365-.54-1.728-4.184-4.079-7.111-5.968-5.087-3.283-10.347-6.678-10.288-11.937.058-5.259,5.392-8.536,10.55-11.706,2.969-1.825,6.663-4.095,7.241-5.81.632-1.875-.974-6.058-2.264-9.418-2.121-5.525-4.314-11.239-1.289-15.301,3.054-4.099,9.193-3.636,15.136-3.185,3.56.269,7.992.604,9.562-.512,1.531-1.089,2.66-5.343,3.567-8.762,1.539-5.8,3.131-11.798,8.069-13.342,4.756-1.49,9.379,2.429,13.85,6.218,2.785,2.361,6.251,5.3,8.308,5.322.008,0,.017,0,.024,0,2.06,0,5.573-2.848,8.398-5.138,4.551-3.689,9.254-7.505,13.985-5.911,4.902,1.652,6.361,7.684,7.772,13.518.831,3.438,1.865,7.715,3.372,8.838,1.546,1.15,5.983.914,9.548.722,5.949-.316,12.101-.646,15.062,3.52,2.934,4.127.615,9.791-1.627,15.268-1.364,3.332-3.062,7.478-2.472,9.366.54,1.728,4.184,4.079,7.111,5.968,5.087,3.283,10.347,6.677,10.289,11.936-.058,5.258-5.392,8.536-10.55,11.706-2.969,1.825-6.663,4.095-7.241,5.81-.632,1.875.974,6.058,2.264,9.419,2.12,5.525,4.313,11.238,1.289,15.3-3.054,4.099-9.199,3.634-15.137,3.185-3.561-.27-7.991-.604-9.562.511-1.531,1.089-2.659,5.343-3.566,8.761-1.539,5.801-3.131,11.799-8.069,13.343-.709.222-1.415.323-2.118.323ZM118.225,158.243c.029,0,.059,0,.088,0,4.22.047,8.237,3.452,12.122,6.745,2.616,2.219,6.569,5.568,8.181,5.068,1.777-.556,3.097-5.526,4.059-9.155,1.333-5.022,2.592-9.767,5.89-12.112,3.338-2.372,8.498-1.982,13.491-1.604,3.709.28,8.79.666,9.871-.786,1.052-1.412-.758-6.125-2.078-9.566-1.805-4.701-3.67-9.561-2.348-13.484,1.271-3.774,5.407-6.315,9.786-9.006,3.236-1.989,7.669-4.713,7.69-6.66.021-1.947-4.351-4.768-7.542-6.828-4.318-2.787-8.397-5.419-9.585-9.22-1.235-3.952.737-8.77,2.646-13.429,1.396-3.411,3.31-8.083,2.289-9.518-1.049-1.476-6.136-1.204-9.852-1.004-5.001.267-10.167.544-13.452-1.902-3.245-2.417-4.399-7.188-5.62-12.24-.883-3.649-2.092-8.647-3.856-9.242-1.601-.537-5.625,2.726-8.291,4.886-3.929,3.185-7.991,6.476-12.18,6.477-.029,0-.059,0-.088,0-4.22-.047-8.237-3.452-12.121-6.746-2.616-2.218-6.577-5.574-8.18-5.068-1.778.556-3.097,5.525-4.06,9.154-1.333,5.023-2.593,9.768-5.891,12.113-3.338,2.373-8.499,1.982-13.491,1.604-3.71-.282-8.791-.666-9.87.786-1.052,1.412.757,6.125,2.078,9.566,1.804,4.701,3.67,9.561,2.348,13.484-1.271,3.774-5.407,6.315-9.786,9.006-3.236,1.989-7.669,4.713-7.69,6.66s4.35,4.769,7.542,6.829c4.317,2.787,8.396,5.419,9.584,9.22,1.235,3.952-.737,8.769-2.645,13.428-1.397,3.412-3.31,8.083-2.29,9.518,1.05,1.476,6.136,1.203,9.852,1.004,5-.267,10.168-.544,13.452,1.902,3.245,2.417,4.398,7.188,5.62,12.239.883,3.649,2.092,8.647,3.857,9.243,1.596.542,5.626-2.726,8.29-4.886,3.929-3.184,7.99-6.477,12.18-6.477Z"/><path class="cls-1" d="M95.291,112.374l-29.561,110.013s7.145-1.871,15.515,4.111c5.426,3.877,14.236,3.487,18.375,1.098,8.064-4.655,18.846,2.034,18.846,2.034l9.39-118.65"/><path class="cls-4" d="M118.467,232.63c-.55,0-1.099-.151-1.581-.451-.088-.054-9.377-5.67-15.766-1.985-5.197,3-15.354,3.221-21.619-1.255-7.008-5.007-12.798-3.699-13.04-3.642-1.029.245-2.126-.063-2.865-.822-.737-.758-1.037-1.845-.763-2.866l29.561-110.013c.43-1.6,2.073-2.55,3.676-2.119,1.601.43,2.549,2.076,2.119,3.676l-28.481,105.998c3.352.185,8.147,1.237,13.282,4.907,4.503,3.217,12.089,2.697,15.131.941,6.137-3.543,13.276-1.775,17.703.007l9.043-114.262c.13-1.651,1.575-2.88,3.227-2.754,1.652.131,2.885,1.576,2.754,3.228l-9.39,118.649c-.082,1.043-.702,1.968-1.636,2.44-.427.216-.892.323-1.354.323Z"/><path class="cls-4" d="M86.245,217.639c-.182,0-.367-.017-.553-.051-1.629-.304-2.703-1.87-2.399-3.499l19.102-102.438c.305-1.628,1.863-2.703,3.499-2.399,1.629.304,2.703,1.87,2.399,3.499l-19.102,102.438c-.27,1.443-1.529,2.451-2.946,2.451Z"/><path class="cls-4" d="M100.976,214.572c-.155,0-.312-.012-.47-.037-1.637-.257-2.755-1.792-2.498-3.43l15.376-97.874c.257-1.638,1.792-2.751,3.43-2.498,1.637.257,2.755,1.792,2.498,3.43l-15.376,97.874c-.232,1.479-1.509,2.535-2.96,2.535Z"/><path class="cls-1" d="M109.422,123.155l24.246,112.6s5.694-4.705,15.804-2.803c6.554,1.233,14.382-2.83,17.13-6.739,5.355-7.617,17.951-6.088,17.951-6.088l-46.179-111.943"/><path class="cls-4" d="M133.668,238.756c-.33,0-.663-.054-.983-.166-.99-.343-1.729-1.178-1.949-2.203l-24.246-112.601c-.349-1.62.682-3.215,2.301-3.564,1.62-.351,3.217.682,3.564,2.301l23.403,108.685c3.114-1.271,7.96-2.39,14.269-1.204,5.437,1.021,12.101-2.643,14.121-5.516,4.027-5.729,11.126-7.166,15.893-7.436l-44.439-107.726c-.632-1.532.098-3.286,1.63-3.917,1.532-.631,3.285.098,3.917,1.629l46.179,111.942c.406.985.26,2.112-.386,2.96-.645.848-1.695,1.288-2.749,1.162-.104-.012-10.893-1.199-15.136,4.835-3.45,4.909-12.568,9.388-20.139,7.962-8.488-1.597-13.292,2.129-13.338,2.167-.546.451-1.224.688-1.911.688Z"/><path class="cls-4" d="M148.078,219.443c-1.287,0-2.478-.835-2.87-2.13l-29.611-97.676c-.48-1.586.415-3.261,2.001-3.742,1.585-.479,3.261.415,3.741,2l29.611,97.676c.48,1.586-.415,3.261-2.001,3.742-.29.088-.583.13-.871.13Z"/><path class="cls-4" d="M164.029,212.743c-1.219,0-2.364-.748-2.812-1.958l-34.949-94.25c-.576-1.553.216-3.28,1.77-3.856,1.551-.575,3.279.216,3.855,1.77l34.949,94.25c.576,1.553-.216,3.28-1.77,3.856-.344.127-.696.188-1.043.188Z"/><circle class="cls-3" cx="119.054" cy="105.632" r="35.692"/><path class="cls-4" d="M119.08,144.327c-1.682,0-3.379-.11-5.091-.336-10.246-1.353-19.353-6.615-25.642-14.816-6.288-8.202-9.007-18.361-7.654-28.607,2.792-21.152,22.282-36.092,43.425-33.295,10.246,1.353,19.353,6.615,25.642,14.816,6.288,8.202,9.006,18.362,7.653,28.607-2.566,19.44-19.232,33.631-38.333,33.631ZM119.032,72.937c-16.141,0-30.221,11.99-32.389,28.416-1.144,8.657,1.153,17.242,6.467,24.171,5.313,6.93,13.008,11.376,21.665,12.519,8.66,1.143,17.242-1.154,24.171-6.467,6.931-5.313,11.376-13.008,12.519-21.665h0c1.144-8.657-1.152-17.242-6.466-24.171-5.313-6.93-13.008-11.376-21.665-12.519-1.445-.191-2.882-.284-4.302-.284Z"/><path class="cls-5" d="M101.279,112.538h-3.704v-14.814h3.704v14.814ZM101.279,97.723v-3.704h11.11v3.704h-11.11ZM101.279,116.241v-3.704h11.11v3.704h-11.11ZM116.093,112.538h-3.704v-14.814h3.704v14.814Z"/><path class="cls-5" d="M112.389,116.741h-11.11c-.276,0-.5-.224-.5-.5v-3.204h-3.204c-.276,0-.5-.224-.5-.5v-14.814c0-.276.224-.5.5-.5h3.204v-3.204c0-.276.224-.5.5-.5h11.11c.276,0,.5.224.5.5v3.204h3.204c.276,0,.5.224.5.5v14.814c0,.276-.224.5-.5.5h-3.204v3.204c0,.276-.224.5-.5.5ZM101.779,115.741h10.11v-2.704h-10.11v2.704ZM112.889,112.038h2.704v-13.814h-2.704v13.814ZM101.779,112.038h10.11v-13.814h-10.11v13.814ZM98.075,112.038h2.704v-13.814h-2.704v13.814ZM101.779,97.223h10.11v-2.704h-10.11v2.704Z"/><path class="cls-5" d="M125.722,101.427v-3.704h3.703v-3.704h3.704v18.518h7.407v3.704h-18.519v-3.704h7.407v-11.111h-3.703ZM122.018,101.427h3.704v3.704h-3.704v-3.704Z"/><path class="cls-5" d="M140.537,116.741h-18.519c-.276,0-.5-.224-.5-.5v-3.704c0-.276.224-.5.5-.5h6.907v-10.111h-2.703v3.204c0,.276-.224.5-.5.5h-3.704c-.276,0-.5-.224-.5-.5v-3.704c0-.276.224-.5.5-.5h3.204v-3.204c0-.276.224-.5.5-.5h3.203v-3.204c0-.276.224-.5.5-.5h3.704c.276,0,.5.224.5.5v18.018h6.907c.276,0,.5.224.5.5v3.704c0,.276-.224.5-.5.5ZM122.518,115.741h17.519v-2.704h-6.907c-.276,0-.5-.224-.5-.5v-18.018h-2.704v3.204c0,.276-.224.5-.5.5h-3.203v2.704h3.203c.276,0,.5.224.5.5v11.111c0,.276-.224.5-.5.5h-6.907v2.704ZM122.518,104.631h2.704v-2.704h-2.704v2.704Z"/></svg>