<?xml version="1.0" encoding="UTF-8"?><svg id="Fun_Fact_Quiz" xmlns="http://www.w3.org/2000/svg" viewBox="0 0 240.945 240.945"><defs><style>.cls-1{fill:#ffc600;}.cls-1,.cls-2,.cls-3,.cls-4,.cls-5{stroke-width:0px;}.cls-2{fill:#002864;}.cls-3{fill:#102a62;}.cls-4{fill:#eb3300;}.cls-5{fill:#fff;}</style></defs><circle class="cls-1" cx="120.472" cy="120.472" r="69.789"/><path class="cls-3" d="M120.472,193.261c-40.136,0-72.788-32.653-72.788-72.789S80.336,47.684,120.472,47.684s72.789,32.653,72.789,72.789-32.653,72.789-72.789,72.789ZM120.472,53.684c-36.827,0-66.788,29.961-66.788,66.789s29.961,66.789,66.788,66.789,66.789-29.961,66.789-66.789-29.962-66.789-66.789-66.789Z"/><path class="cls-5" d="M97.92,116.02c.988-2.08,1.558-4.398,1.558-6.854,0-8.843-7.168-16.011-16.011-16.011s-16.011,7.168-16.011,16.011c0,2.456.569,4.774,1.558,6.854h28.907Z"/><path class="cls-2" d="M97.919,119.02h-28.906c-1.158,0-2.213-.667-2.71-1.712-1.226-2.581-1.848-5.32-1.848-8.141,0-10.483,8.528-19.011,19.011-19.011s19.011,8.528,19.011,19.011c0,2.821-.622,5.56-1.848,8.141-.497,1.046-1.552,1.712-2.71,1.712ZM71.048,113.02h24.836c.394-1.25.593-2.54.593-3.854,0-7.174-5.837-13.011-13.011-13.011s-13.011,5.837-13.011,13.011c0,1.313.199,2.604.593,3.854Z"/><path class="cls-5" d="M150.174,116.02c.988-2.08,1.558-4.398,1.558-6.854,0-8.843-7.168-16.011-16.011-16.011s-16.011,7.168-16.011,16.011c0,2.456.569,4.774,1.558,6.854h28.907Z"/><path class="cls-2" d="M150.173,119.02h-28.906c-1.158,0-2.213-.667-2.71-1.712-1.226-2.581-1.848-5.32-1.848-8.141,0-10.483,8.528-19.011,19.011-19.011s19.012,8.528,19.012,19.011c0,2.82-.622,5.559-1.849,8.141-.497,1.046-1.552,1.712-2.71,1.712ZM123.302,113.02h24.836c.395-1.25.594-2.541.594-3.854,0-7.174-5.837-13.011-13.012-13.011s-13.011,5.837-13.011,13.011c0,1.313.199,2.604.593,3.854Z"/><path class="cls-4" d="M143.566,135.769c0,17.703-14.351,32.054-32.054,32.054s-32.054-14.351-32.054-32.054"/><path class="cls-2" d="M149.695,104.776c-1.822,1.989-4.44,3.237-7.35,3.237-5.503,0-9.964-4.461-9.964-9.964,0-1.551.355-3.02.987-4.329,10.066-4.856,17.95,9.283,16.327,11.056Z"/><path class="cls-2" d="M96.772,104.776c-1.822,1.989-4.44,3.237-7.35,3.237-5.503,0-9.964-4.461-9.964-9.964,0-1.551.355-3.02.987-4.329,10.066-4.856,17.95,9.283,16.327,11.056Z"/><path class="cls-2" d="M143.566,138.769h-73.339c-1.657,0-3-1.343-3-3s1.343-3,3-3h73.339c1.657,0,3,1.343,3,3s-1.343,3-3,3Z"/><rect class="cls-1" x="68.234" y="84.944" width="31.296" height="10.503"/><path class="cls-2" d="M158.921,91.864c-1.091,0-2.144-.598-2.674-1.637-3.96-7.758-11.825-12.577-20.527-12.577s-16.567,4.819-20.527,12.577c-.753,1.477-2.561,2.061-4.035,1.309-1.477-.753-2.062-2.561-1.309-4.036,4.989-9.776,14.902-15.85,25.871-15.85s20.882,6.073,25.871,15.85c.753,1.476.168,3.283-1.309,4.036-.437.223-.902.328-1.361.328Z"/><path class="cls-2" d="M102.607,98.447h-39.563c-1.657,0-3-1.343-3-3s1.343-3,3-3h39.563c1.657,0,3,1.343,3,3s-1.343,3-3,3Z"/><path class="cls-5" d="M117.933,167.842c-8.467,0-8.241.676-13.838-2.479,0-8.467,6.863-15.33,15.33-15.33,5.761,0,10.78,3.178,13.399,7.876,1.23,2.206-6.424,9.933-14.891,9.933Z"/><path class="cls-2" d="M111.512,170.823c-19.329,0-35.054-15.725-35.054-35.054,0-1.657,1.343-3,3-3s3,1.343,3,3c0,16.021,13.033,29.054,29.054,29.054s29.054-13.033,29.054-29.054c0-1.657,1.343-3,3-3s3,1.343,3,3c0,19.329-15.725,35.054-35.054,35.054Z"/></svg>