<?xml version="1.0" encoding="UTF-8"?><svg id="Fun_Fact_Quiz" xmlns="http://www.w3.org/2000/svg" viewBox="0 0 240.945 240.945"><defs><style>.cls-1{fill:#c9c9c9;}.cls-1,.cls-2,.cls-3,.cls-4,.cls-5,.cls-6{stroke-width:0px;}.cls-2{fill:#002864;}.cls-3{fill:#102a62;}.cls-4{fill:#eb3300;}.cls-5{fill:#fff;}.cls-6{fill:#00c8ff;}</style></defs><circle class="cls-4" cx="120.472" cy="120.472" r="98.11"/><rect class="cls-2" x="112.498" y="52.699" width="8" height="44.46"/><path class="cls-6" d="M116.498,69.574c-9.305,0-16.875-7.57-16.875-16.875s7.57-16.875,16.875-16.875,16.875,7.57,16.875,16.875-7.57,16.875-16.875,16.875Z"/><path class="cls-2" d="M116.498,38.824c7.651,0,13.875,6.224,13.875,13.875s-6.224,13.875-13.875,13.875-13.875-6.224-13.875-13.875,6.224-13.875,13.875-13.875M116.498,32.824c-10.977,0-19.875,8.898-19.875,19.875s8.898,19.875,19.875,19.875,19.875-8.898,19.875-19.875-8.898-19.875-19.875-19.875h0Z"/><path class="cls-1" d="M75.377,194.275c-4.275,0-7.894-3.058-8.601-7.27l-12.847-76.387c-.826-4.917,2.506-9.681,7.43-10.62l102.531-19.55c.556-.106,1.12-.16,1.677-.16,4.276,0,7.894,3.058,8.601,7.27l12.847,76.387c.826,4.917-2.506,9.681-7.43,10.62l-102.53,19.55c-.556.106-1.12.16-1.678.16Z"/><path class="cls-2" d="M165.568,83.289c2.805,0,5.178,2.005,5.643,4.767l12.845,76.387c.549,3.265-1.756,6.55-5.033,7.175l-102.531,19.55c-.371.071-.746.106-1.115.106-2.805,0-5.179-2.005-5.643-4.767l-12.846-76.387c-.549-3.265,1.756-6.551,5.033-7.175l102.531-19.55c.371-.071.746-.107,1.115-.107M165.568,77.289c-.737,0-1.486.069-2.239.213l-102.531,19.55c-6.497,1.239-10.918,7.568-9.826,14.064l12.846,76.387c.966,5.744,5.932,9.772,11.56,9.772.737,0,1.487-.069,2.239-.213l102.531-19.55c6.497-1.239,10.918-7.568,9.826-14.064l-12.845-76.387c-.966-5.744-5.932-9.772-11.56-9.772h0Z"/><path class="cls-5" d="M85.567,139c-7.229,0-13.348-5.185-14.549-12.329-1.394-8.286,4.22-16.314,12.513-17.896.951-.181,1.916-.273,2.869-.273,7.229,0,13.348,5.185,14.549,12.329,1.394,8.286-4.22,16.314-12.513,17.896-.951.181-1.916.273-2.869.273Z"/><path class="cls-2" d="M86.402,105.502v6c5.757,0,10.631,4.133,11.588,9.826,1.125,6.69-3.413,13.173-10.117,14.452-.766.146-1.542.22-2.307.22-5.758,0-10.632-4.133-11.59-9.826-1.125-6.69,3.413-13.173,10.117-14.452.766-.146,1.542-.22,2.308-.22v-6M86.4,105.502c-1.128,0-2.277.106-3.431.326-9.899,1.888-16.574,11.442-14.91,21.34,1.47,8.745,8.956,14.831,17.507,14.831,1.128,0,2.277-.106,3.431-.326,9.899-1.888,16.574-11.442,14.91-21.34-1.47-8.745-8.956-14.832-17.507-14.831h0Z"/><path class="cls-5" d="M147.625,126.6c-7.229,0-13.348-5.185-14.55-12.329-1.393-8.286,4.221-16.314,12.514-17.896.951-.181,1.917-.273,2.87-.273,7.229,0,13.347,5.185,14.548,12.329,1.394,8.286-4.22,16.314-12.513,17.896-.951.181-1.916.273-2.869.273Z"/><path class="cls-2" d="M148.46,93.102v6c5.757,0,10.631,4.133,11.588,9.826,1.125,6.69-3.413,13.173-10.117,14.452-.766.146-1.542.22-2.307.22-5.758,0-10.632-4.133-11.59-9.826-1.125-6.69,3.413-13.173,10.117-14.452.766-.146,1.542-.22,2.308-.22v-6M148.458,93.102c-1.128,0-2.277.106-3.431.326-9.899,1.888-16.574,11.442-14.91,21.34,1.47,8.745,8.956,14.831,17.507,14.831,1.128,0,2.277-.106,3.431-.326,9.899-1.887,16.574-11.442,14.91-21.34-1.47-8.745-8.956-14.832-17.507-14.831h0Z"/><path class="cls-3" d="M93.766,163.115c-.803,0-1.603-.32-2.193-.952-1.131-1.21-1.066-3.109.145-4.24,12.315-11.506,29.179-13.284,38.135-13.32,10.729-.034,19.612,6.792,21.868,11.743.688,1.507.022,3.287-1.485,3.974-1.509.685-3.287.021-3.974-1.486-1.075-2.357-7.558-8.288-16.386-8.231-8.077.032-23.242,1.596-34.062,11.705-.578.54-1.313.808-2.047.808Z"/><path class="cls-5" d="M93.638,120.647c-1.172,0-2.164-.842-2.359-2.002-.236-1.405.721-2.768,2.132-3.037.16-.03.322-.046.48-.046,1.172,0,2.164.842,2.358,2.001.237,1.407-.72,2.769-2.131,3.038-.16.03-.322.046-.48.046Z"/><path class="cls-2" d="M93.891,112.561c-.343,0-.692.032-1.042.099-3.007.573-5.034,3.475-4.529,6.482.447,2.656,2.72,4.505,5.317,4.505.343,0,.692-.032,1.042-.099,3.007-.573,5.034-3.475,4.529-6.482-.447-2.656-2.72-4.505-5.317-4.505h0Z"/><path class="cls-5" d="M155.555,107.802c-1.172,0-2.164-.842-2.359-2.002-.236-1.406.721-2.768,2.132-3.038.16-.03.322-.046.48-.046,1.172,0,2.165.842,2.36,2.002.235,1.405-.721,2.768-2.133,3.038-.16.03-.322.046-.48.046Z"/><path class="cls-2" d="M155.808,99.716c-.343,0-.691.032-1.042.099-3.007.573-5.034,3.475-4.529,6.482.447,2.656,2.72,4.505,5.318,4.505.343,0,.691-.032,1.042-.099,3.007-.573,5.034-3.475,4.529-6.482-.447-2.656-2.72-4.505-5.317-4.505h0Z"/></svg>